<svg xmlns="http://www.w3.org/2000/svg" width="48" height="64" viewBox="0 0 48 64">
    <g fill="none" fill-rule="evenodd">
        <path fill="#FAFAFA" d="M-70-2467h1440v3780H-70z"/>
        <path fill="#FFF" d="M-70-128h1440v420H-70z"/>
        <g>
            <path fill="#3639B4" d="M15.628 48h16.744C41.003 48 48 54.997 48 63.628H0C0 54.997 6.997 48 15.628 48z"/>
            <path fill="#F0D0B4" d="M20.093 39.07h8.93V48l-4.465 5.504L20.093 48z"/>
            <rect width="29.023" height="40.186" x="10.047" y="4.465" fill="#F4D8BF" rx="14.512"/>
            <path fill="#543404" d="M24.558 0c8.631 0 15.628 6.997 15.628 15.628v2.96a14.552 14.552 0 0 1-3.349.389 14.47 14.47 0 0 1-10.532-4.529c-2.409 4.678-7.286 7.878-12.91 7.878-1.558 0-3.06-.246-4.466-.7l.001-5.998C8.93 6.997 15.927 0 24.558 0z"/>
            <path fill="#F0D0B4" d="M10.047 22.326v7.814c-1.85 0-3.35-1.5-3.35-3.35v-1.116c0-1.85 1.5-3.348 3.35-3.348zM39.07 22.326v7.814c1.85 0 3.349-1.5 3.349-3.35v-1.116c0-1.85-1.5-3.348-3.35-3.348z"/>
            <circle cx="18.419" cy="28.098" r="1.674" fill="#000"/>
            <circle cx="30.698" cy="28.098" r="1.674" fill="#000"/>
            <path stroke="#3D3D3D" stroke-linecap="round" stroke-width="1.116" d="M22.326 35.72a2.233 2.233 0 1 0 4.465 0M19.344 24.768a2.233 2.233 0 0 0-2.967 1.08M29.805 24.768a2.233 2.233 0 0 1 2.967 1.08"/>
            <path fill="#EBEBF7" d="M20.093 46.884h-1.376l-2.539 8.96 8.38-2.34z"/>
            <path fill="#EBEBF7" d="M29.023 46.884H30.4l2.538 8.96-8.38-2.34z"/>
            <path fill="#F8531E" d="M28.748 53.504l-1.819.506-2.37 9.618h4.19z"/>
            <path fill="#F8531E" d="M20.372 53.504l1.819.506 2.371 9.618h-4.19z"/>
            <path fill="#EBEBF7" d="M32.372 60.279h4.465v1.116h-4.465z"/>
        </g>
    </g>
</svg>
