<svg xmlns="http://www.w3.org/2000/svg" width="66" height="65" viewBox="0 0 66 65">
    <g fill="none" fill-rule="evenodd">
        <path fill="#FAFAFA" d="M-864-2467H576v3780H-864z"/>
        <path fill="#FFF" d="M-864-128H576v420H-864z"/>
        <g>
            <rect width="8.28" height="2.76" y="31.28" fill="#F8531E" rx="1.38"/>
            <path fill="#EBEBF7" d="M32.66 12.88c10.924 0 19.78 8.856 19.78 19.78 0 8.84-5.798 16.325-13.8 18.86v8.28a3.68 3.68 0 0 1-3.68 3.68h-4.6a3.68 3.68 0 0 1-3.68-3.68v-8.28c-8.001-2.534-13.8-10.02-13.8-18.86 0-10.924 8.856-19.78 19.78-19.78z"/>
            <path fill="#3639B4" d="M32.597 41.003c.628 0 1.17.2 1.598.598.399.4.627.913.627 1.54 0 .628-.228 1.17-.627 1.57-.457.398-.97.598-1.598.598-.627 0-1.14-.228-1.54-.627-.456-.4-.656-.913-.656-1.54 0-.628.2-1.141.656-1.54.4-.4.913-.6 1.54-.6zm.514-18.923c1.854 0 3.365.485 4.506 1.512 1.14.998 1.711 2.367 1.711 4.106 0 1.426-.37 2.596-1.055 3.508-.257.286-1.084 1.056-2.453 2.253a4.05 4.05 0 0 0-1.14 1.398 4.15 4.15 0 0 0-.428 1.882v1.668a1.64 1.64 0 1 1-3.28 0v-1.668c0-1.083.17-2.025.57-2.795.371-.77 1.483-1.968 3.337-3.622l.342-.399c.514-.627.77-1.312.77-2.025 0-.941-.285-1.683-.798-2.224-.542-.542-1.312-.799-2.282-.799-1.226 0-2.11.37-2.68 1.14-.486.657-.714 1.598-.714 2.824-.01.464-.176.864-.464 1.16a1.677 1.677 0 0 1-1.174.451c-.46 0-.838-.172-1.131-.473-.335-.301-.482-.688-.482-1.161l.001.023c-.001-2 .537-3.589 1.66-4.77l.193-.192c1.226-1.198 2.88-1.797 4.99-1.797zM26.68 55.2h11.96v7.36a1.84 1.84 0 0 1-1.84 1.84h-8.28a1.84 1.84 0 0 1-1.84-1.84V55.2z"/>
            <rect width="8.28" height="2.76" x="8.353" y="11.113" fill="#F8531E" rx="1.38" transform="rotate(45 12.493 12.493)"/>
            <rect width="8.28" height="2.76" x="28.52" y="2.76" fill="#F8531E" rx="1.38" transform="rotate(90 32.66 4.14)"/>
            <rect width="8.28" height="2.76" x="48.687" y="11.113" fill="#F8531E" rx="1.38" transform="rotate(135 52.827 12.493)"/>
            <rect width="8.28" height="2.76" x="57.04" y="31.28" fill="#F8531E" rx="1.38" transform="rotate(180 61.18 32.66)"/>
            <rect width="8.28" height="2.76" x="48.687" y="51.447" fill="#F8531E" rx="1.38" transform="rotate(-135 52.827 52.827)"/>
            <rect width="8.28" height="2.76" x="8.353" y="51.447" fill="#F8531E" rx="1.38" transform="rotate(-45 12.493 52.827)"/>
        </g>
    </g>
</svg>
