<?xml version="1.0" encoding="utf-8"?>
<!-- Generator: Adobe Illustrator 18.1.0, SVG Export Plug-In . SVG Version: 6.00 Build 0)  -->
<svg version="1.1" id="Layer_1" xmlns="http://www.w3.org/2000/svg" xmlns:xlink="http://www.w3.org/1999/xlink" x="0px" y="0px"
	 viewBox="0 420.9 595.3 420.9" enable-background="new 0 420.9 595.3 420.9" xml:space="preserve">
<g id="Group_5442" transform="translate(-232.688 -688.074)">
	<path fill="#3639B4" d="M482.5,1359.2c-139.9,0-249.5-54.8-249.5-125.1S342.6,1109,482.5,1109S732,1163.8,732,1234.1
		S622.4,1359.2,482.5,1359.2z M482.5,1127.3c-125.1,0-230.5,48.5-230.5,106.1s105.4,106.1,230.5,106.1S713,1291,713,1233.4
		S606.9,1127.3,482.5,1127.3z"/>
	<path fill="#3639B4" d="M482.5,1284.7c-80.1,0-143.4-25.3-143.4-57.6s63.3-57.6,143.4-57.6s143.4,25.3,143.4,57.6
		C625.9,1259.4,562.6,1284.7,482.5,1284.7z M482.5,1178.6c-80.1,0-134.2,25.3-134.2,48.5c0,23.2,54.1,48.5,134.2,48.5
		s134.2-25.3,134.2-48.5C616.7,1203.9,562.6,1178.6,482.5,1178.6z"/>
	<path fill="#3639B4" d="M482.5,1514.5c-139.9,0-249.5-54.8-249.5-125.1h19c0,57.6,105.4,106.1,230.5,106.1
		C482.5,1495.6,482.5,1514.5,482.5,1514.5z"/>
	<rect x="233" y="1234.1" fill="#3639B4" width="19" height="155.3"/>
	<path fill="#3639B4" d="M818.4,1514.5H482.5v-19h326.8v-136.3H482.5v-19h335.9c4.9,0,9.1,4.2,9.1,9.1v155.3
		C828.3,1510.3,824.1,1514.5,818.4,1514.5z"/>
	<rect x="715.1" y="1234.1" fill="#3639B4" width="14.1" height="116"/>
	<path fill="#3639B4" d="M474.1,1509.6c-2.8,0-4.2-2.1-4.2-4.9v-84.3c0-2.8,2.1-4.9,4.2-4.9s4.2,2.1,4.2,4.9v84.3
		C479,1507.5,476.9,1509.6,474.1,1509.6z"/>
	<path fill="#3639B4" d="M521.2,1509.6c-2.8,0-4.2-2.1-4.2-4.9V1452c0-2.8,2.1-4.9,4.2-4.9c2.1,0,4.2,2.1,4.2,4.9v52.7
		C526.1,1507.5,524,1509.6,521.2,1509.6z"/>
	<path fill="#3639B4" d="M564.7,1509.6L564.7,1509.6c-2.8,0-4.9-2.1-4.9-4.9l0.7-52.7c0-2.8,2.1-4.2,4.9-4.2l0,0
		c2.8,0,4.2,2.1,4.2,4.9l-0.7,52.7C569.6,1507.5,567.5,1509.6,564.7,1509.6z"/>
	<path fill="#3639B4" d="M607.6,1509.6c-2.8,0-4.9-2.1-4.9-4.9v-84.3c0-2.8,2.1-4.9,4.9-4.9c2.8,0,4.9,2.1,4.9,4.9v84.3
		C612.5,1507.5,610.4,1509.6,607.6,1509.6z"/>
	<path fill="#3639B4" d="M647.7,1509.6c-2.8,0-4.9-2.1-4.9-4.9V1452c0-2.8,2.1-4.9,4.9-4.9c2.8,0,4.9,2.1,4.9,4.9v52.7
		C652.6,1507.5,650.5,1509.6,647.7,1509.6z"/>
	<path fill="#3639B4" d="M691.2,1509.6L691.2,1509.6c-2.8,0-4.9-2.1-4.9-4.9l0.7-52.7c0-2.8,2.1-4.2,4.9-4.2l0,0
		c2.8,0,4.2,2.1,4.2,4.9l-0.7,52.7C695.5,1507.5,693.3,1509.6,691.2,1509.6z"/>
	<path fill="#3639B4" d="M729.9,1509.6c-2.8,0-4.9-2.1-4.9-4.9v-84.3c0-2.8,2.1-4.9,4.9-4.9c2.8,0,4.9,2.1,4.9,4.9v84.3
		C734.1,1507.5,732,1509.6,729.9,1509.6z"/>
	<path fill="#3639B4" d="M769.9,1509.6c-2.8,0-4.9-2.1-4.9-4.9V1452c0-2.8,2.1-4.9,4.9-4.9c2.8,0,4.9,2.1,4.9,4.9v52.7
		C774.2,1507.5,772.1,1509.6,769.9,1509.6z"/>
</g>
</svg>
