<?xml version="1.0" encoding="utf-8"?>
<!-- Generator: Adobe Illustrator 18.1.0, SVG Export Plug-In . SVG Version: 6.00 Build 0)  -->
<svg version="1.1" id="Layer_1" xmlns="http://www.w3.org/2000/svg" xmlns:xlink="http://www.w3.org/1999/xlink" x="0px" y="0px"
	 viewBox="0 246.7 595.3 595.2" enable-background="new 0 246.7 595.3 595.2" xml:space="preserve">
<g id="Group_5443" transform="translate(-746.699 -682.818)">
	<path fill="#3639B4" d="M849.3,1524.8c-5.5,0-10.3-4.7-11.1-10.3c0-5.5,4.7-11.1,10.3-11.1l470.5-1.6l-0.8-163.4l-251.8,0.8l0,0
		c-5.5,0-10.3-4.7-10.3-10.3c0-5.5,4.7-11.1,10.3-11.1l262.1-0.8l0,0c5.5,0,10.3,4.7,10.3,10.3l0.8,184.7c0,5.5-4.7,11.1-10.3,11.1
		L849.3,1524.8L849.3,1524.8z"/>
	<path fill="#3639B4" d="M1189.6,1479c-1.6,0-2.4-0.8-3.9-1.6c-0.8-0.8-1.6-2.4-1.6-3.9v-106.6c0-3.2,2.4-5.5,4.7-5.5h106.6l0,0
		c3.2,0,4.7,2.4,5.5,4.7v106.6c0,1.6-0.8,2.4-1.6,3.9c-0.8,0.8-2.4,1.6-3.9,1.6L1189.6,1479L1189.6,1479z M1194.3,1372.4v96.3h96.3
		v-96.3H1194.3z"/>
	<path fill="#3639B4" d="M1053.8,1479.8c-3.2,0-4.7-2.4-4.7-4.7v-106.6c0-3.2,2.4-5.5,4.7-5.5h106.6l0,0c1.6,0,2.4,0.8,3.9,1.6
		s1.6,2.4,1.6,3.9v106.6c0,1.6-0.8,2.4-1.6,3.9c-0.8,0.8-2.4,1.6-3.9,1.6L1053.8,1479.8L1053.8,1479.8z M1058.5,1373.2v96.3h96.3
		v-96.3H1058.5z"/>
	<path fill="#3639B4" d="M925.9,1479.8c-3.2,0-4.7-2.4-4.7-4.7c0-3.2,2.4-5.5,4.7-5.5h91.6v-94c0-3.2,2.4-5.5,4.7-5.5l0,0
		c3.2,0,4.7,2.4,4.7,4.7v98.7c0,1.6-0.8,2.4-1.6,3.9s-2.4,1.6-3.9,1.6L925.9,1479.8L925.9,1479.8z"/>
	<path fill="#3639B4" d="M848.5,1524.8L848.5,1524.8c-56.8,0-102.6-46.6-102.6-102.6V940.6c0-5.5,4.7-11.1,11.1-11.1h184.7
		c5.5,0,11.1,4.7,11.1,11.1v481.6C951.9,1479,905.4,1524.8,848.5,1524.8z M767.2,951.6v470.5c0,45,36.3,81.3,81.3,82.1
		c45,0,81.3-36.3,81.3-82.1V951.6H767.2z"/>
	<path fill="#3639B4" d="M848.5,1470.3c-29.2,0-52.9-23.7-52.9-52.9s23.7-52.9,52.9-52.9s52.9,23.7,52.9,52.9
		C901.4,1446.7,877.7,1470.3,848.5,1470.3z M848.5,1375.6c-23.7,0-42.6,18.9-42.6,42.6c0,23.7,18.9,42.6,42.6,42.6
		s42.6-18.9,42.6-42.6C891.1,1394.6,872.2,1375.6,848.5,1375.6z"/>
	<rect x="756.1" y="999.8" fill="#3639B4" width="184.7" height="11.8"/>
	<path fill="#3639B4" d="M848.5,1198.8c-3.2,0-4.7-2.4-4.7-4.7v-67.1c0-3.2,2.4-4.7,4.7-4.7s4.7,2.4,4.7,4.7v67.1
		C854,1196.4,851.7,1198.8,848.5,1198.8z"/>
	<path fill="#3639B4" d="M882.5,1165.6h-67.1c-3.2,0-4.7-2.4-4.7-4.7s2.4-4.7,4.7-4.7h67.1c3.2,0,4.7,2.4,4.7,4.7
		S885.6,1165.6,882.5,1165.6z"/>
	<path fill="#3639B4" d="M914.8,1497.2c-2.4,0-5.5-0.8-7.1-3.2c-3.9-3.9-3.9-11.1,0-15l327.6-337.9l-117.6-113.7L948,1202.7
		c-3.9,3.9-11.1,3.9-15,0c-3.9-3.9-3.9-11.1,0-15l176.8-182.4c3.9-3.9,11.1-3.9,15,0l132.6,128.7c2.4,1.6,3.2,4.7,3.2,7.1
		c0,3.2-0.8,5.5-3.2,7.9l-334.7,345.8C920.4,1495.6,918,1497.2,914.8,1497.2z"/>
	<path fill="#3639B4" d="M1124,1220.1c-1.6,0-2.4-0.8-3.9-1.6l-76.6-74.2c-0.8-0.8-1.6-2.4-1.6-3.9s0.8-2.4,1.6-3.9l74.2-76.6
		c1.6-2.4,5.5-2.4,7.1,0l76.6,74.2c0.8,0.8,1.6,2.4,1.6,3.9s-0.8,2.4-1.6,3.9l-74.2,76.6C1126.4,1219.3,1124.8,1220.1,1124,1220.1z
		 M1054.6,1140.3l68.7,67.1l67.1-68.7l-68.7-67.1L1054.6,1140.3z"/>
	<path fill="#3639B4" d="M1030.1,1317.2c-1.6,0-2.4-0.8-3.9-1.6l-76.6-74.2c-2.4-1.6-2.4-5.5,0-7.1l74.2-76.6c1.6-2.4,5.5-2.4,7.1,0
		l76.6,74.2c0.8,0.8,1.6,2.4,1.6,3.9s-0.8,2.4-1.6,3.9l-74.2,76.6C1032.5,1316.4,1030.9,1317.2,1030.1,1317.2z M960.6,1237.4
		l68.7,67.1l67.1-68.7l-68.7-67.1L960.6,1237.4z"/>
	<path fill="#3639B4" d="M940.9,1408.8c-1.6,0-2.4-0.8-3.9-1.6c-2.4-1.6-2.4-5.5,0-7.1l63.2-65.5l-63.2-60.8c-2.4-1.6-2.4-5.5,0-7.1
		c1.6-2.4,5.5-2.4,7.1,0l67.1,64.7c2.4,1.6,2.4,5.5,0,7.1l-67.1,68.7C944,1408,942.5,1408.8,940.9,1408.8z"/>
</g>
</svg>
