<?xml version="1.0" encoding="utf-8"?>
<!-- Generator: Adobe Illustrator 22.0.0, SVG Export Plug-In . SVG Version: 6.00 Build 0)  -->
<svg version="1.1" xmlns="http://www.w3.org/2000/svg" xmlns:xlink="http://www.w3.org/1999/xlink" x="0px" y="0px"
	 width="1287.6px" height="945.5px" viewBox="0 0 1287.6 945.5" style="enable-background:new 0 0 1287.6 945.5;"
	 xml:space="preserve">
<style type="text/css">
	.st0{fill:url(#SVGID_3_);}
	.st1{fill:url(#SVGID_4_);}
	.st2{fill:url(#SVGID_5_);}
	.st3{fill:url(#SVGID_6_);}
	.st4{fill:url(#SVGID_7_);}
	.st5{fill:url(#SVGID_8_);}
	.st6{fill:#FFFFFF;}
	.st7{fill:url(#SVGID_9_);}
	.st8{fill:url(#SVGID_10_);}
	.st9{fill:url(#SVGID_11_);}
	.st10{fill:url(#SVGID_12_);}
	.st11{fill:url(#SVGID_13_);}
	.st12{fill:url(#SVGID_14_);}
	.st13{fill:url(#SVGID_15_);}
	.st14{fill:url(#SVGID_16_);}
	.st15{fill:url(#SVGID_17_);}
	.st16{fill:url(#SVGID_18_);}
	.st17{fill:url(#SVGID_19_);}
	.st18{fill:url(#SVGID_20_);}
	.st19{fill:#BABABA;}
</style>
<g id="Layer_1">
</g>
<g id="Objects">
</g>
<g id="text">
	<g>
		<linearGradient id="SVGID_2_" gradientUnits="userSpaceOnUse" x1="223.5688" y1="671.8198" x2="1283.9955" y2="86.411">
			<stop  offset="0" style="stop-color:#F02748"/>
			<stop  offset="0.4057" style="stop-color:#F43B35"/>
			<stop  offset="1" style="stop-color:#3639B4"/>
		</linearGradient>
		<polyline style="fill:url(#SVGID_2_);" points="1051.8,269.5 364.4,305.9 321.7,352.3 271.5,556.8 1051.8,502.8 1051.8,265.7 		
			"/>
		<linearGradient id="SVGID_3_" gradientUnits="userSpaceOnUse" x1="175.4696" y1="10.6841" x2="1530.2035" y2="808.4732">
			<stop  offset="0" style="stop-color:#3639B4"/>
			<stop  offset="0.5943" style="stop-color:#F43B35"/>
			<stop  offset="1" style="stop-color:#F02748"/>
		</linearGradient>
		<polygon class="st0" points="1034.2,405 316.7,487.7 261.5,243.1 1107,165.4 		"/>
		<linearGradient id="SVGID_4_" gradientUnits="userSpaceOnUse" x1="24.6256" y1="266.8344" x2="1379.3612" y2="1064.6245">
			<stop  offset="0" style="stop-color:#3639B4"/>
			<stop  offset="0.5943" style="stop-color:#F43B35"/>
			<stop  offset="1" style="stop-color:#F02748"/>
		</linearGradient>
		<polygon class="st1" points="1104.5,691 136.1,817.7 226.4,515.3 1104.5,417.5 		"/>
		<linearGradient id="SVGID_5_" gradientUnits="userSpaceOnUse" x1="149.5406" y1="568.1205" x2="1238.0947" y2="-32.8159">
			<stop  offset="0.4829" style="stop-color:#F8531E"/>
			<stop  offset="0.9952" style="stop-color:#FDD916"/>
		</linearGradient>
		<polygon class="st2" points="1112.6,147.8 600.2,208 1124.6,135.3 		"/>
		
			<linearGradient id="SVGID_6_" gradientUnits="userSpaceOnUse" x1="-152.1075" y1="1187.6932" x2="908.3465" y2="602.2695" gradientTransform="matrix(-1 0.269 0 1 1400.8595 -187.8693)">
			<stop  offset="0.4829" style="stop-color:#F8531E"/>
			<stop  offset="0.9952" style="stop-color:#FDD916"/>
		</linearGradient>
		<polygon class="st3" points="602.7,801.2 1115.2,723.7 604,790.9 		"/>
		
			<linearGradient id="SVGID_7_" gradientUnits="userSpaceOnUse" x1="273.0188" y1="1110.7946" x2="1333.4728" y2="525.3707" gradientTransform="matrix(-1 0.269 0 1 1400.8595 -187.8693)">
			<stop  offset="0.4829" style="stop-color:#F8531E"/>
			<stop  offset="0.9952" style="stop-color:#FDD916"/>
		</linearGradient>
		<polygon class="st4" points="173.7,840.3 691.2,758.8 180,826.1 		"/>
		<g>
			<g>
				<path class="st6" d="M411.8,406c0.8-5.3,2.7-10.2,5.7-14.5c3-4.4,7-7.7,12.2-10l-16.8-3l4.2-27c7.5-5.8,16.2-11,26-15.5
					c9.8-4.5,20.2-7.5,31-8.9c18.5-2.4,31.7-0.5,39.5,5.7c7.8,6.2,10.7,16.2,8.5,30l-9.6,61.8l-36.5,4.7l9.5-60.7
					c1-6.5,0.1-10.9-2.6-13.2c-2.7-2.3-7.7-3-15-2.1c-4.1,0.5-8.2,1.6-12.1,3.2c-3.9,1.6-7.2,3.4-10,5.5l-0.2,1.5l19.4,3.6
					l-2.6,16.7c-4.3,1.7-7.6,3.9-9.8,6.7c-2.2,2.8-3.7,6.5-4.4,11.2l-4.9,31.8l-36.5,4.7L411.8,406z"/>
				<path class="st6" d="M572.5,356.9c1-6.3,0.5-10.7-1.6-13c-2-2.3-6.2-3.1-12.4-2.3c-8,1-16.6,3.8-25.8,8.4l3.8-24.3
					c4.3-2.6,9.6-4.9,15.9-6.9c6.3-2.1,12.4-3.5,18.4-4.2c15.5-2,26.4-0.1,32.6,5.6c6.2,5.8,8.2,15.6,6.1,29.4l-9.9,63.7l-36.5,4.8
					L572.5,356.9z"/>
				<path class="st6" d="M631.6,409.3c-7.1-0.1-12.6-0.8-16.5-2l4.2-27.2c4.5,1.5,9.6,2.5,15.3,3c5.7,0.5,11.2,0.4,16.4-0.3
					c6.3-0.8,10.7-1.8,13.2-2.9c2.5-1.1,3.9-2.8,4.2-4.9c0.3-2.2-0.5-3.7-2.5-4.7c-2-1-6.2-2.2-12.7-3.7l-6.4-1.6
					c-8.9-2.2-15.2-5.2-18.7-9.1c-3.6-3.9-4.8-9.6-3.6-17.2c1.5-9.6,6.6-17.8,15.4-24.6c8.8-6.8,20.8-11.2,36.1-13.2
					c6.2-0.8,12.6-1.2,19.1-1.2c6.5,0,11.8,0.4,15.7,1.1l-4.2,26.8c-3.8-1.1-8.2-1.8-13.4-2.1c-5.2-0.3-9.8-0.1-14,0.4
					c-5.6,0.7-9.8,1.7-12.7,2.9c-2.9,1.2-4.6,3.1-5,5.6c-0.3,1.8,0.4,3.1,2.1,3.9c1.6,0.8,4.7,1.7,9.1,2.6c3.1,0.6,6.3,1.4,9.7,2.3
					c7.3,1.9,12.7,3.9,16.2,6.1c3.5,2.2,5.7,4.9,6.7,8.2c1,3.3,1.1,7.8,0.2,13.5c-1.5,9.8-6.8,17.9-15.7,24.4
					c-8.9,6.5-20.9,10.7-35.7,12.7C646.3,409,638.7,409.4,631.6,409.3z"/>
				<path class="st6" d="M662.8,259.4l27.4-3.6l-2,12.6l46.4-6l-4.7,22.8l-72.6,9.4L662.8,259.4z"/>
				<path class="st6" d="M725.7,389.2c-5.6-5.5-7.5-14-5.7-25.4l10.6-68.3l36.5-4.7l-10,64.5c-0.8,4.8-0.2,8.2,1.7,10.1
					c1.9,1.9,5.2,2.6,10.2,1.9c3.6-0.5,7.2-1.6,10.6-3.4c3.5-1.8,6.3-3.9,8.6-6.2l11.1-71.1l36.5-4.8l-16,102.7l-33.8,4.4l-0.1-7.8
					c-4.7,3.6-10.1,6.7-16.2,9.2c-6,2.5-12.4,4.2-18.9,5.1C739.6,396.8,731.3,394.8,725.7,389.2z"/>
				<path class="st6" d="M846.9,371.1c-6.8-6.9-8.9-19-6.2-36.3c2.9-18.6,8.3-33.2,16.2-43.6c7.9-10.4,18.1-16.4,30.7-18.1
					c5-0.7,9.2-0.4,12.4,0.7c3.2,1.1,6,3.2,8.2,6.1c3.4-3.4,7.6-6.3,12.6-8.6c4.9-2.3,9.8-3.8,14.6-4.4c10.1-1.3,17,0.3,20.7,4.9
					c3.7,4.6,4.9,11.5,3.4,20.6l-11.7,75.3l-36.5,4.8l10.6-68.3c0.6-3.7,0.5-6.2-0.1-7.7c-0.7-1.5-2.2-2-4.7-1.7
					c-1.7,0.2-3.2,0.9-4.5,2.2c-1.3,1.2-2.5,2.8-3.4,4.8l-10.9,1.4c-0.7-2-1.4-3.4-2.2-4.3c-0.8-0.8-2-1.1-3.9-0.9
					c-3.8,0.5-6.7,3.5-8.8,9.2c-2.1,5.6-4,13.2-5.4,22.7c-1.4,8.7-1,14.7,1.1,17.9c2.1,3.2,6.1,4.4,12.1,3.6c5-0.7,9-1.7,11.9-3
					l-3.8,24.2c-5.7,3-12.6,5-20.9,6.1C864.2,380.6,853.8,378,846.9,371.1z"/>
				<path class="st6" d="M878.3,242.4l61.5-8l2.3-14.5l29.3-3.8l-6,38.2l-92.6,12.1L878.3,242.4z"/>
			</g>
		</g>
		<g>
			<g>
				<path class="st6" d="M328.5,692.5c-4.5-4.6-6.1-11.2-4.7-19.8l2.8-17.9c1.2-7.7,3.9-14.7,8.2-21c4.3-6.3,10.1-11.1,17.6-14.4
					L328,615l6.1-39c10.8-8.4,23.3-15.9,37.5-22.4c14.2-6.5,29.1-10.8,44.8-12.8c26.7-3.5,45.8-0.8,57.1,8.2
					c11.3,8.9,15.4,23.4,12.3,43.3L472,681.6l-52.7,6.9l13.7-87.6c1.5-9.3,0.2-15.7-3.8-19c-4-3.3-11.2-4.3-21.6-3
					c-6,0.8-11.8,2.3-17.5,4.6c-5.7,2.3-10.5,4.9-14.4,7.9l-0.3,2.2l28,5.2l-3.8,24.2c-6.2,2.4-10.9,5.4-14,8.8
					c-3.1,3.5-5.1,8-6,13.7l-1.1,7.1c-0.9,5.7,1.6,8.1,7.4,7.4l11.5-1.5l-5.2,33.5l-43.5,5.7C339.7,698.8,333,697.1,328.5,692.5z"/>
				<path class="st6" d="M384.2,758.4c-7.1-3.9-10-9.7-8.8-17.4l1.2-7.4l-16,2.1l6.3-29.9l49.9-6.5l-3.7,23.9
					c-0.8,5.3,1.6,7.6,7.2,6.9c6-0.8,9.4-3.8,10.2-9.1l3.7-23.9l36.2-4.7l-4.4,28c-1.6,10.2-6.6,19.2-14.9,26.8
					c-8.3,7.6-20.2,12.5-35.8,14.5C401.7,763.4,391.3,762.3,384.2,758.4z"/>
				<path class="st6" d="M503.7,631.7c1.2-7.7,3.9-14.7,8.2-21c4.3-6.3,10.1-11.1,17.6-14.4l-24.3-4.4l6.1-39
					c10.8-8.4,23.3-15.9,37.5-22.4c14.2-6.5,29.1-10.8,44.8-12.8c26.7-3.5,45.8-0.7,57.1,8.2c11.3,8.9,15.4,23.4,12.3,43.3
					l-13.9,89.3l-52.7,6.9l13.7-87.6c1.5-9.3,0.2-15.7-3.8-19c-4-3.3-11.2-4.3-21.6-3c-6,0.8-11.8,2.3-17.5,4.6
					c-5.7,2.3-10.5,4.9-14.4,7.9l-0.3,2.2l28,5.2l-3.8,24.2c-6.2,2.4-11,5.6-14.1,9.6c-3.2,4-5.3,9.4-6.4,16.2l-7.1,45.9l-52.7,6.9
					L503.7,631.7z"/>
				<path class="st6" d="M684.4,645.2c-8.2-6.6-11.1-18-8.5-34.3c2.4-15.6,9.5-28.2,21.1-37.9c11.7-9.7,26.8-15.7,45.5-18.2l38.1-5
					l0.6-3.8c0.9-5.5-1.1-9.2-5.8-11.2c-4.7-2-12.3-2.3-22.8-0.9c-17.4,2.3-35.1,7.1-53.1,14.4l5.6-35.7c8.7-4,18.8-7.6,30.4-10.8
					c11.6-3.2,22.7-5.5,33.3-6.9c9.3-1.2,18.4-1.5,27-0.8l59.7-7.8l-8.4,38l-16,2.1c1.1,2.6,1.7,6,1.8,10.4
					c0.1,4.4-0.1,8.8-0.8,13.2l-13.5,86.5l-52.7,6.9l9.1-58.2l-26.1,3.4c-6.5,0.9-11.5,2.4-14.9,4.8c-3.4,2.3-5.5,6.1-6.3,11.2
					c-0.8,4.9,0,8.2,2.3,9.8c2.3,1.6,6.4,2,12.2,1.2c5.4-0.7,10.3-1.9,14.6-3.5l-5,31.9c-7.9,3.7-18.6,6.5-32,8.2
					C704.5,654,692.6,651.7,684.4,645.2z"/>
				<path class="st6" d="M769.6,684.5l-16.5,2.2l6.6-32.1l57.5-7.5l-9.3,59.9l-42.6,5.6L769.6,684.5z"/>
				<path class="st6" d="M863.5,616.3c-9.9-10-12.9-27.5-9-52.4c4.2-26.7,14.4-48,30.7-63.7c16.3-15.8,38.7-25.5,67.3-29.2
					c18.1-2.4,32.7-1.5,43.8,2.5c11.1,4,18.8,10.2,23,18.7c4.3,8.4,5.5,18.2,3.8,29.4l-14,90.1l-52.7,6.9l13.3-85.4
					c1.5-9.3,0.5-16.1-2.9-20.2c-3.4-4.1-10.5-5.5-21.3-4.1c-10.7,1.4-18.9,5.9-24.8,13.4c-5.9,7.6-10,19.2-12.4,34.7
					c-2,12.6-1.4,21.3,1.6,25.9c3,4.6,8.8,6.4,17.4,5.3c7.3-0.9,13-2.4,17.2-4.4l-5.4,34.9c-8.2,4.3-18.2,7.2-30.2,8.8
					C888.6,630,873.4,626.4,863.5,616.3z"/>
			</g>
		</g>
	</g>
</g>
<g id="_x3C_Layer_x3E_">
</g>
</svg>
