<svg xmlns="http://www.w3.org/2000/svg" viewBox="0 0 65.365 63.752">
  <defs>
    <style>
      .cls-1 {
        fill: #3639b4;
      }
    </style>
  </defs>
  <g id="_Graphic_Installation" data-name=" Graphic_Installation" transform="translate(-492 -4306.818)">
    <g id="Group_5292" data-name="Group 5292" transform="translate(492 4341.497)">
      <path id="Path_4527" data-name="Path 4527" class="cls-1" d="M44.245,61.379c-4.639,0-7.886-1.06-9.543-3.181a5.293,5.293,0,0,1-1.06-4.374.651.651,0,0,1,1.259.331,4.006,4.006,0,0,0,.862,3.247c1.392,1.723,4.308,2.651,8.483,2.651s7.157-.928,8.615-2.717a4.227,4.227,0,0,0,.928-3.247.676.676,0,0,1,1.325-.265,5.5,5.5,0,0,1-1.193,4.308C52.132,60.318,48.884,61.379,44.245,61.379Z" transform="translate(-11.297 -52.651)"/>
      <path id="Path_4528" data-name="Path 4528" class="cls-1" d="M62.686,81.4H2.645a2.873,2.873,0,0,1-1.988-.862,2.666,2.666,0,0,1-.663-2.054c.53-4.175,1.392-11.4,1.789-13.122.8-3.446,4.639-6.627,11.332-9.609a72.941,72.941,0,0,1,9.477-3.38,1.3,1.3,0,1,1,.663,2.518C18.483,56.22,5.627,60.726,4.368,65.962c-.265,1.193-.928,5.964-1.723,12.79H62.686c-.464-6.76-.928-11.664-1.193-12.79-1.259-5.3-13.917-9.742-18.688-11a1.3,1.3,0,0,1,.663-2.518c1.922.53,18.755,5.235,20.61,12.989.4,1.789.994,9.079,1.259,13.254a2.5,2.5,0,0,1-.729,1.988A2.765,2.765,0,0,1,62.686,81.4Z" transform="translate(0.019 -52.33)"/>
    </g>
    <g id="Group_5293" data-name="Group 5293" transform="translate(532.47 4335.069)">
      <path id="Path_4529" data-name="Path 4529" class="cls-1" d="M63.734,51.756a1.383,1.383,0,0,1-1.06-.53c-1.193-1.59-2.187-3.38-1.259-7.555a1.326,1.326,0,1,1,2.585.6c-.729,3.38,0,4.44.8,5.434a1.3,1.3,0,0,1-.265,1.856A3.5,3.5,0,0,1,63.734,51.756Z" transform="translate(-61.049 -42.63)"/>
    </g>
    <g id="Group_5294" data-name="Group 5294" transform="translate(500.627 4337.236)">
      <path id="Path_4530" data-name="Path 4530" class="cls-1" d="M36.141,47.292A9.425,9.425,0,0,1,35.213,52a1.32,1.32,0,0,1-1.193.729,1.935,1.935,0,0,1-.6-.133,1.254,1.254,0,0,1-.6-1.723,6.622,6.622,0,0,0,.729-3.645A1.329,1.329,0,0,1,34.882,45.9,1.376,1.376,0,0,1,36.141,47.292Z" transform="translate(-19.64 -45.9)"/>
      <path id="Path_4531" data-name="Path 4531" class="cls-1" d="M61.775,79.669,59.456,60.12A2.31,2.31,0,0,0,58.064,58l-6.428-2.85a.92.92,0,0,0-.6,0,.59.59,0,0,0-.331.53l-.994,10.139a1.007,1.007,0,0,1-.994.928H26.055a.976.976,0,0,1-.994-.994L24,55.68a.676.676,0,0,0-.331-.53.5.5,0,0,0-.6,0L16.645,58a2.31,2.31,0,0,0-1.392,2.121L13,79.669v.066a2.348,2.348,0,0,0,2.319,2.319H59.456a2.348,2.348,0,0,0,2.319-2.319ZM59.456,80.8H15.319a.976.976,0,0,1-.994-.994l2.319-19.55v-.066a.938.938,0,0,1,.6-.928l5.567-2.518.928,9.212a2.372,2.372,0,0,0,2.319,2.187H48.72a2.325,2.325,0,0,0,2.319-2.187l.928-9.212,5.567,2.518a.938.938,0,0,1,.6.928v.066L60.45,79.8A1.019,1.019,0,0,1,59.456,80.8Z" transform="translate(-13 -48.986)"/>
    </g>
    <g id="Group_5295" data-name="Group 5295" transform="translate(511.557 4324.905)">
      <path id="Path_4532" data-name="Path 4532" class="cls-1" d="M42.486,44.4c2.452,0,4.175-.53,4.705-.994,1.723-1.723,4.838-4.838,5.434-14.845A1.329,1.329,0,0,1,54.018,27.3a1.376,1.376,0,0,1,1.259,1.392c-.663,11-4.374,14.712-6.229,16.5-1.657,1.657-5.169,1.856-6.627,1.856h-.133c-1.458,0-4.97-.2-6.561-1.789-1.789-1.789-5.434-5.5-6.229-16.037a1.327,1.327,0,1,1,2.651-.133c.663,9.609,3.711,12.658,5.368,14.314.53.53,2.319,1.06,4.771,1.06h.2Z" transform="translate(-29.492 -27.292)"/>
    </g>
    <g id="Group_5296" data-name="Group 5296" transform="translate(508.249 4306.818)">
      <path id="Path_4533" data-name="Path 4533" class="cls-1" d="M55.316,13.917c-.2-1.59-1.325-7.422-6.031-9.344a1.39,1.39,0,0,0-.53-.729,8.473,8.473,0,0,0-2.319-1.259.915.915,0,0,1-.2-.265C43.984.331,43.851.331,43.52.2c-.066,0-.066,0-.133-.066A20.863,20.863,0,0,0,40.736,0a10.083,10.083,0,0,0-2.717.2c-.066,0-.066,0-.133.066-.331.066-.464.133-2.651,2.121-.066.066-.133.133-.133.2A11.329,11.329,0,0,0,32.718,3.91a.955.955,0,0,0-.6.729c-3.711,1.524-5.633,7.223-5.964,9.278-.862.133-1.657.862-1.657,2.386a5.014,5.014,0,0,0,.663,2.452,3.055,3.055,0,0,0,2.651,1.524h.265c.2.133.331.265.53.4.133.133.265.2.4.331,1.458,1.127,3.181,2.452,11.6,2.452s10.073-1.325,11.6-2.452a2.805,2.805,0,0,1,.464-.331,3.676,3.676,0,0,1,.53-.4h.2a2.979,2.979,0,0,0,2.651-1.524,4.548,4.548,0,0,0,.663-2.452C56.906,14.778,56.111,14.049,55.316,13.917Zm-1.392,3.512c-.133.265-.265.265-.4.265h-.2a2.579,2.579,0,0,0-1.524.464l-.6.4a3.675,3.675,0,0,1-.53.4c-1.193.862-2.452,1.922-10.007,1.922-7.489,0-8.814-.994-10.007-1.922a3.676,3.676,0,0,0-.53-.4l-.6-.4a2.579,2.579,0,0,0-1.524-.464h-.265c-.066,0-.2,0-.4-.265a2.226,2.226,0,0,1-.331-.928h.133a1.356,1.356,0,0,0,1.325-1.193l.066-.862c.133-1.657,2.187-7.025,4.9-7.621h.066V9.145a.664.664,0,0,0,.663.663.626.626,0,0,0,.663-.663V5.434a6.62,6.62,0,0,1,2.319-.862V11.4a.663.663,0,1,0,1.325,0V2.783c.066,0,.066-.066.133-.066.464,0,1.127-.066,2.121-.066s1.657.066,1.988.066l.066.066V11.4a.663.663,0,0,0,1.325,0V4.573a6.62,6.62,0,0,1,2.319.862V8.615a.663.663,0,1,0,1.325,0V6.76a.243.243,0,0,0,.2.066c3.976,1.325,4.705,7.025,4.705,7.621l.066.862A1.356,1.356,0,0,0,54.057,16.5h.133A1.521,1.521,0,0,1,53.924,17.429Z" transform="translate(-24.5)"/>
    </g>
  </g>
</svg>
