<svg xmlns="http://www.w3.org/2000/svg" width="97" height="36" viewBox="0 0 97 36">
    <g fill="none" fill-rule="evenodd">
        <path fill="#C64218" d="M0 2.22C0 .993.994 0 2.22 0H28.5v4.438H2.22C.993 4.438 0 3.445 0 2.22z"/>
        <path fill="#F8531E" d="M0 1.983C0 3.34 1.1 4.438 2.455 4.438H81.22C89.935 4.438 97 11.504 97 20.22 97 28.935 89.935 36 81.22 36H4c-2.21 0-4-1.79-4-4V1.983z"/>
        <path fill="#FFF" d="M29.252 24.315c.842 0 1.628.378 2.155 1.011.304.372.089.824-.344.883l-.095.007h-.122c-.215 0-.387-.074-.54-.223-.274-.272-.65-.428-1.054-.428-.83 0-1.501.65-1.501 1.43 0 .824.665 1.481 1.5 1.481.36 0 .7-.124.954-.338l.104-.097c.121-.13.258-.206.422-.231l.128-.01h.14c.497 0 .734.493.43.886-.523.653-1.318 1.04-2.177 1.04-1.534 0-2.788-1.225-2.788-2.73 0-1.465 1.263-2.681 2.788-2.681zm35.51 0c.842 0 1.628.378 2.154 1.011.305.372.09.824-.343.883l-.096.007h-.121c-.216 0-.387-.074-.54-.223-.275-.272-.65-.428-1.054-.428-.83 0-1.502.65-1.502 1.43 0 .824.666 1.481 1.502 1.481.36 0 .699-.124.953-.338l.103-.097c.122-.13.259-.206.423-.231l.127-.01h.141c.497 0 .734.493.43.886-.524.653-1.318 1.04-2.177 1.04-1.534 0-2.788-1.225-2.788-2.73 0-1.465 1.263-2.681 2.788-2.681zm-16.44-.013c1.523 0 2.78 1.216 2.78 2.68 0 1.507-1.248 2.732-2.78 2.732-1.534 0-2.782-1.225-2.782-2.731 0-1.465 1.258-2.68 2.781-2.68zm33.917.01c.87 0 1.555.38 1.845 1.012.179.401-.101.738-.541.738-.28 0-.425-.098-.623-.339-.113-.13-.353-.215-.681-.215-.452 0-.73.174-.73.357s.217.32.907.448l.22.047c1.215.277 1.76.772 1.76 1.65 0 1.014-.836 1.67-2.157 1.67-1.028 0-1.821-.467-2.076-1.225-.14-.4.153-.707.582-.707.289 0 .45.115.63.375.143.21.478.361.864.361.582 0 .93-.216.93-.474 0-.22-.118-.323-.67-.448l-.536-.11c-1.145-.262-1.692-.75-1.692-1.587 0-.92.772-1.553 1.968-1.553zm-45.21.053c.319 0 .553.2.597.495l.007.102v1.26h1.857v-1.26c0-.28.16-.494.405-.568l.096-.021.104-.008h.038c.32 0 .554.2.598.495l.007.102v4.104c0 .316-.202.547-.502.59l-.103.007h-.038c-.32 0-.554-.2-.598-.495l-.007-.102v-1.613h-1.857v1.613c0 .28-.16.495-.405.569l-.097.02-.103.008h-.057c-.32 0-.555-.2-.598-.495l-.007-.102v-4.104c0-.315.202-.546.501-.59l.104-.007h.057zm19.538 0c.32 0 .554.2.598.495l.007.102v4.104c0 .316-.202.547-.502.59l-.103.007h-.058c-.32 0-.554-.2-.597-.495l-.008-.102v-4.104c0-.315.203-.546.502-.59l.103-.007h.058zm18.154 0c.32 0 .554.2.598.495l.007.102V25c0 .316-.202.546-.502.59l-.103.007h-1.578v.473h1.456c.285 0 .501.158.577.4l.021.095.007.102v.038c0 .315-.202.546-.501.59l-.104.007h-1.456v1.13h1.578c.284 0 .5.157.576.4l.022.095.007.102v.037c0 .316-.202.547-.502.59l-.103.007h-2.24c-.32 0-.555-.2-.598-.495l-.008-.102v-4.104c0-.315.202-.546.502-.59l.103-.007h2.241zm-26.4 1.188c-.827 0-1.495.649-1.495 1.43 0 .825.662 1.48 1.495 1.48.834 0 1.495-.655 1.495-1.48 0-.781-.667-1.43-1.495-1.43zM34.823 12.027c.154.154.252.353.28.565l.008.128v8.092c-.006.533-.453.96-.996.953-.144.002-.286-.025-.42-.077-.108-.047-.206-.114-.289-.196l-.077-.087-4.637-6.038v5.422c0 .26-.103.508-.288.694-.168.148-.377.242-.6.272l-.134.01h-.024c-.505-.006-.916-.384-.967-.864l-.005-.113v-8.09c.007-.532.453-.959.996-.952.146-.003.29.031.419.1.082.048.16.102.234.162l.106.096 4.664 6.064v-5.42c-.005-.268.098-.527.288-.72.189-.18.443-.282.708-.282.275-.02.545.082.734.28zm25.363 0c.154.154.252.353.28.565l.009.128v8.091c-.007.534-.453.96-.997.953-.144.002-.286-.024-.42-.077-.108-.047-.206-.113-.288-.195l-.078-.087-4.638-6.038v5.422c0 .26-.103.508-.288.694-.168.148-.377.242-.599.272l-.134.01h-.025c-.505-.006-.916-.384-.967-.864l-.005-.113v-8.09c.007-.532.453-.959.997-.952.146-.003.29.032.418.1.083.048.161.102.234.163l.107.095 4.637 6.064v-5.42c-.005-.268.099-.527.288-.72.19-.18.443-.282.708-.282.283-.017.56.085.761.28zm-20.41 2.415c.667-.009 1.325.15 1.912.462.56.307 1.023.76 1.335 1.31.319.585.48 1.24.472 1.902.009.654-.154 1.3-.472 1.876-.312.55-.775 1.003-1.336 1.31-1.198.617-2.627.617-3.825 0-.567-.299-1.032-.755-1.336-1.31-.318-.576-.48-1.222-.472-1.876-.008-.663.154-1.317.473-1.901.305-.556.77-1.012 1.336-1.31.586-.316 1.245-.475 1.912-.463zm8.41 0c.505-.005 1.006.1 1.466.308.454.215.856.522 1.18.9.138.146.213.34.21.54-.003.154-.048.304-.13.436-.078.126-.186.232-.315.308-.148.097-.32.15-.498.154-.144.002-.286-.024-.42-.077-.128-.053-.244-.132-.34-.231-.143-.166-.322-.298-.524-.385-.216-.087-.448-.131-.681-.129-.473-.03-.934.15-1.258.489-.337.383-.506.882-.472 1.387-.009.34.073.677.236.978.146.266.363.488.63.642.287.157.613.237.942.231.396.02.786-.098 1.1-.334.202-.137.437-.217.682-.231.198.004.39.067.55.18.114.078.205.184.262.308.074.115.11.25.105.385-.01.214-.104.417-.262.564-.666.595-1.538.917-2.438.9-.67 0-1.328-.169-1.913-.489-.572-.295-1.031-.764-1.31-1.336-.317-.566-.48-1.203-.47-1.85-.007-.654.156-1.299.47-1.875.31-.544.763-.996 1.31-1.31.578-.313 1.228-.472 1.887-.463zm16.925 0c.668-.009 1.326.15 1.913.462.567.3 1.032.755 1.336 1.31.318.585.48 1.24.472 1.902.009.654-.154 1.3-.472 1.876-.312.55-.775 1.003-1.336 1.31-1.198.617-2.627.617-3.825 0-.567-.299-1.032-.755-1.336-1.31-.318-.576-.48-1.222-.472-1.876-.008-.663.154-1.317.472-1.901.304-.556.769-1.012 1.336-1.31.585-.316 1.245-.475 1.912-.463zm8.41 0c.507-.005 1.008.1 1.467.308.454.215.856.522 1.18.9.138.146.213.34.21.54-.003.154-.048.304-.13.436-.078.126-.186.232-.315.308-.148.097-.32.15-.498.154-.144.002-.286-.024-.42-.077-.128-.053-.245-.132-.34-.231-.143-.166-.322-.298-.524-.385-.216-.087-.448-.131-.681-.129-.473-.03-.934.15-1.258.489-.337.383-.507.882-.471 1.387-.01.34.072.677.235.978.146.266.364.488.63.642.288.157.613.237.943.231.395.02.785-.098 1.1-.334.201-.137.436-.217.681-.231.198.004.39.067.55.18.115.078.205.184.263.308.073.115.11.25.104.385-.01.214-.103.417-.262.564-.665.595-1.538.917-2.438.9-.67 0-1.328-.169-1.912-.489-.572-.295-1.032-.764-1.31-1.336-.318-.566-.48-1.203-.472-1.85-.005-.654.157-1.299.472-1.875.31-.544.762-.996 1.31-1.31.577-.313 1.227-.472 1.886-.463zm8.182-.109c1.13 0 2.022.52 2.398 1.39.235.555-.132 1.022-.707 1.022-.366 0-.556-.137-.813-.468-.145-.176-.455-.292-.878-.292-.582 0-.94.236-.94.482 0 .23.243.407 1 .571l.17.036c1.779.366 2.573 1.055 2.573 2.331 0 1.393-1.086 2.295-2.803 2.295-1.336 0-2.367-.641-2.7-1.683-.182-.553.202-.977.763-.977.377 0 .587.159.823.516.184.285.615.492 1.114.492.752 0 1.2-.294 1.2-.643 0-.327-.183-.463-1.092-.657l-.18-.037c-1.683-.34-2.487-1.023-2.487-2.244 0-1.263 1.004-2.134 2.559-2.134zM65.137 16.24c-.321-.006-.638.074-.917.231-.26.17-.477.4-.629.668-.315.615-.315 1.34 0 1.955.146.266.364.488.63.642.277.16.594.24.916.231.322.006.639-.074.918-.231.272-.157.49-.39.628-.668.164-.3.245-.637.236-.977.006-.34-.075-.676-.236-.977-.145-.267-.363-.49-.628-.643-.278-.16-.596-.24-.918-.231zm-25.335 0c-.322-.006-.639.074-.918.231-.26.17-.476.4-.629.668-.315.615-.315 1.34 0 1.955.146.266.364.488.63.642.277.16.595.24.917.231.321.006.638-.074.917-.231.272-.157.491-.39.629-.668.163-.3.245-.637.235-.977.006-.34-.074-.676-.235-.977-.146-.267-.364-.49-.63-.643-.277-.16-.595-.24-.916-.231zm38.096-4.861c.58 0 1.06.488 1.06 1.08 0 .187-.038.342-.117.526l-.067.144-.474.91c-.162.33-.435.497-.8.497-.199 0-.313-.136-.35-.291-.014-.063-.016-.127-.01-.2.006-.08.023-.179.05-.294l.096-.397-.016-.01c-.21-.152-.359-.376-.418-.635l-.022-.132-.006-.119c0-.594.483-1.079 1.074-1.079z"/>
        <g>
            <path fill="#100E36" d="M9.96 1.144v.003c.373.56.988.913 1.66.95l.028.002c.607.033 1.092.518 1.127 1.125.038.67.394 1.281.958 1.645l.015.01c.51.33.688.993.411 1.534-.306.599-.306 1.308 0 1.907.277.541.1 1.204-.411 1.534l-.015.01c-.564.364-.92.975-.958 1.645-.035.608-.52 1.092-1.127 1.126l-.028.001c-.277.016-.545.085-.79.2v6.166l-3.5-2.694-3.5 2.694.001-6.25c-.186-.065-.383-.105-.586-.116l-.027-.001c-.607-.034-1.093-.518-1.127-1.126-.038-.67-.394-1.281-.958-1.645l-.015-.01C.608 9.524.43 8.861.706 8.32c.307-.599.307-1.308 0-1.907-.277-.54-.099-1.204.412-1.534l.015-.01c.564-.364.92-.975.958-1.645.034-.607.52-1.092 1.127-1.125l.027-.002c.673-.037 1.288-.39 1.66-.95l.002-.003C5.245.634 5.91.456 6.46.73l.022.01c.599.3 1.303.3 1.902 0l.022-.01c.548-.273 1.214-.095 1.553.415z" transform="translate(7.469 10.326)"/>
            <path fill="#151648" d="M3.867 6.575L10.866 6.575 10.866 19.002 7.367 16.308 3.867 19.002z" transform="translate(7.469 10.326)"/>
            <path fill="#3639B4" d="M6.518 13.993l-.022.011c-.549.273-1.214.095-1.553-.415l-.002-.002c-.372-.561-.987-.913-1.66-.95l-.027-.002c-.607-.034-1.093-.518-1.127-1.126-.038-.67-.394-1.281-.958-1.645l-.015-.01c-.51-.33-.689-.993-.412-1.534.307-.599.307-1.308 0-1.907-.277-.54-.099-1.204.412-1.534l.015-.01c.564-.364.92-.975.958-1.645.034-.607.52-1.092 1.127-1.125l.027-.002c.673-.037 1.288-.39 1.66-.95l.002-.003C5.282.634 5.947.456 6.496.73l.022.01c.599.3 1.303.3 1.902 0l.022-.01c.549-.273 1.214-.095 1.553.415l.002.003c.372.56.987.913 1.66.95l.027.002c.607.033 1.093.518 1.127 1.125.038.67.394 1.281.958 1.645l.015.01c.51.33.689.993.412 1.534-.307.599-.307 1.308 0 1.907.277.541.099 1.204-.412 1.534l-.015.01c-.564.364-.92.975-.958 1.645-.034.608-.52 1.092-1.127 1.126l-.027.001c-.673.038-1.288.39-1.66.95l-.002.003c-.339.51-1.004.688-1.553.415l-.022-.01c-.599-.299-1.303-.299-1.902 0z" transform="translate(7.469 10.326)"/>
            <path fill="#FFF" d="M6.342 6.145l-1.746.32-.028.008c-.135.045-.183.216-.08.323l1.22 1.271-.23 1.737-.001.027c0 .142.151.241.286.178l1.604-.753 1.603.753.025.01c.137.043.28-.068.26-.215l-.23-1.737 1.22-1.27.02-.023c.082-.115.018-.281-.128-.308L8.39 6.145l-.848-1.539c-.076-.137-.277-.137-.353 0l-.848 1.539z" transform="translate(7.469 10.326)"/>
        </g>
    </g>
</svg>
