<?xml version="1.0" encoding="UTF-8"?>
<svg width="242px" height="34px" viewBox="0 0 242 34" version="1.1" xmlns="http://www.w3.org/2000/svg" xmlns:xlink="http://www.w3.org/1999/xlink">
    <!-- Generator: Sketch 60.1 (88133) - https://sketch.com -->
    <title>Group 25</title>
    <desc>Created with Sketch.</desc>
    <defs>
        <polygon id="path-1" points="0 0.296506008 32.402487 0.296506008 32.402487 33.931 0 33.931"></polygon>
        <polygon id="path-3" points="0.387377354 0.447 25.002 0.447 25.002 20 0.387377354 20"></polygon>
    </defs>
    <g id="Symbols" stroke="none" stroke-width="1" fill="none" fill-rule="evenodd">
        <g id="Logo/White" transform="translate(0.000000, -1.000000)">
            <g id="Group-25">
                <path d="M59.0642,7.9785 C58.3742,7.9785 57.7112,8.2485 57.2182,8.7305 C56.7232,9.2435 56.4532,9.9315 56.4662,10.6445 L56.4662,25.0645 L44.2982,8.9305 C44.0322,8.6655 43.7332,8.4355 43.4092,8.2465 C43.0752,8.0625 42.6992,7.9705 42.3182,7.9785 C40.9002,7.9605 39.7362,9.0955 39.7179888,10.5145 C39.7179888,10.5355 39.7179888,10.5575 39.7179888,10.5785 L39.7179888,32.0365 C39.7002,33.4545 40.8352,34.6185 42.2542,34.6365 C42.2752,34.6365 42.2972,34.6365 42.3182,34.6365 C43.0262,34.6245 43.7052,34.3575 44.2322,33.8845 C44.7142,33.3915 44.9842,32.7285 44.9842,32.0385 L44.9842,17.6125 L57.0822,33.6785 C57.3332,34.0055 57.6622,34.2635 58.0392,34.4305 C58.3872,34.5705 58.7582,34.6405 59.1332,34.6355 C60.5512,34.6535 61.7152,33.5185 61.7332,32.0995 C61.7332,32.0785 61.7332,32.0565 61.7332,32.0355 L61.7332,10.5715 C61.7332,9.8815 61.4632,9.2185 60.9812,8.7255 C60.4882,8.1985 59.7832,7.9235 59.0642,7.9785" id="Fill-1" fill="#FFFFFF"></path>
                <path d="M76.3632,29.2345 C75.6362,29.6535 74.8092,29.8655 73.9702,29.8495 C73.1302,29.8745 72.3012,29.6615 71.5772,29.2345 C70.8842,28.8255 70.3162,28.2345 69.9362,27.5255 C69.1142,25.8895 69.1142,23.9615 69.9362,22.3255 C70.3332,21.6105 70.8962,21.0015 71.5772,20.5485 C72.3042,20.1295 73.1312,19.9175 73.9702,19.9335 C74.8102,19.9085 75.6392,20.1215 76.3632,20.5485 C77.0562,20.9575 77.6242,21.5485 78.0042,22.2575 C78.4242,23.0585 78.6352,23.9525 78.6192,24.8575 C78.6432,25.7625 78.4312,26.6585 78.0042,27.4575 C77.6452,28.1995 77.0742,28.8185 76.3632,29.2345 M78.8922,16.3825 C77.3612,15.5525 75.6432,15.1285 73.9022,15.1515 C72.1602,15.1205 70.4402,15.5445 68.9122,16.3825 C67.4332,17.1775 66.2212,18.3895 65.4262,19.8685 C64.5942,21.4235 64.1702,23.1645 64.1922,24.9275 C64.1692,26.6685 64.5932,28.3865 65.4232,29.9175 C66.2182,31.3965 67.4302,32.6085 68.9092,33.4035 C72.0342,35.0445 75.7652,35.0445 78.8902,33.4035 C80.3542,32.5885 81.5612,31.3815 82.3762,29.9175 C83.2062,28.3865 83.6302,26.6685 83.6072,24.9275 C83.6302,23.1645 83.2072,21.4235 82.3762,19.8685 C81.5622,18.4045 80.3552,17.1975 78.8922,16.3825" id="Fill-3" fill="#FFFFFF"></path>
                <path d="M90.9212,33.3355 C92.4462,34.1875 94.1642,34.6355 95.9112,34.6355 C98.2602,34.6805 100.5362,33.8235 102.2722,32.2415 C102.6862,31.8495 102.9312,31.3115 102.9562,30.7415 C102.9712,30.3805 102.8762,30.0225 102.6832,29.7165 C102.5332,29.3865 102.2972,29.1035 101.9992,28.8965 C101.5792,28.5965 101.0792,28.4295 100.5632,28.4175 C99.9252,28.4555 99.3112,28.6685 98.7862,29.0325 C97.9652,29.6595 96.9472,29.9745 95.9152,29.9215 C95.0552,29.9375 94.2062,29.7255 93.4542,29.3065 C92.7612,28.8975 92.1932,28.3065 91.8132,27.5975 C91.3862,26.7985 91.1742,25.9025 91.1982,24.9975 C91.1072,23.6525 91.5492,22.3265 92.4292,21.3055 C93.2732,20.4035 94.4772,19.9265 95.7102,20.0055 C96.3192,19.9995 96.9232,20.1165 97.4872,20.3475 C98.0152,20.5805 98.4822,20.9315 98.8542,21.3725 C99.1042,21.6375 99.4072,21.8475 99.7432,21.9875 C100.0912,22.1275 100.4622,22.1975 100.8372,22.1925 C101.3012,22.1835 101.7522,22.0415 102.1372,21.7825 C102.4742,21.5815 102.7562,21.2995 102.9572,20.9625 C103.1732,20.6125 103.2912,20.2115 103.2992,19.8005 C103.3072,19.2695 103.1112,18.7555 102.7522,18.3645 C101.9042,17.3595 100.8552,16.5445 99.6722,15.9715 C98.4722,15.4195 97.1652,15.1385 95.8442,15.1515 C94.1242,15.1285 92.4282,15.5525 90.9222,16.3825 C89.4932,17.2195 88.3132,18.4225 87.5042,19.8685 C86.6822,21.4025 86.2592,23.1185 86.2742,24.8585 C86.2512,26.5785 86.6752,28.2745 87.5042,29.7805 C88.2302,31.3025 89.4292,32.5495 90.9222,33.3355" id="Fill-5" fill="#FFFFFF"></path>
                <path d="M125.1702,7.9785 C124.4802,7.9785 123.8172,8.2485 123.3242,8.7305 C122.8292,9.2435 122.5592,9.9315 122.5722,10.6445 L122.5722,25.0645 L110.4722,8.9315 C110.2062,8.6665 109.9072,8.4365 109.5832,8.2475 C109.2492,8.0635 108.8732,7.9705 108.4922,7.9785 C107.0742,7.9605 105.9102,9.0955 105.891989,10.5145 C105.891989,10.5355 105.891989,10.5575 105.891989,10.5785 L105.891989,32.0365 C105.8742,33.4545 107.0092,34.6185 108.4282,34.6365 C108.4492,34.6365 108.4712,34.6365 108.4922,34.6365 C109.2002,34.6245 109.8792,34.3575 110.4062,33.8845 C110.8882,33.3915 111.1582,32.7285 111.1582,32.0385 L111.1582,17.6125 L123.2582,33.6775 C123.5092,34.0045 123.8382,34.2625 124.2152,34.4295 C124.5632,34.5695 124.9342,34.6395 125.3092,34.6345 C126.7272,34.6525 127.8912,33.5175 127.9092,32.0985 C127.9092,32.0775 127.9092,32.0555 127.9092,32.0345 L127.9092,10.5715 C127.9092,9.8815 127.6392,9.2185 127.1572,8.7255 C126.6312,8.2055 125.9082,7.9345 125.1702,7.9785" id="Fill-7" fill="#FFFFFF"></path>
                <path d="M142.4682,29.2345 C141.7412,29.6535 140.9142,29.8655 140.0752,29.8495 C139.2352,29.8745 138.4062,29.6615 137.6822,29.2345 C136.9892,28.8255 136.4212,28.2345 136.0412,27.5255 C135.2192,25.8895 135.2192,23.9615 136.0412,22.3255 C136.4382,21.6105 137.0012,21.0015 137.6822,20.5485 C138.4092,20.1295 139.2362,19.9175 140.0752,19.9335 C140.9152,19.9085 141.7442,20.1215 142.4682,20.5485 C143.1612,20.9575 143.7292,21.5485 144.1092,22.2575 C144.5292,23.0585 144.7402,23.9525 144.7242,24.8575 C144.7482,25.7625 144.5362,26.6585 144.1092,27.4575 C143.7502,28.1995 143.1792,28.8185 142.4682,29.2345 M144.9972,16.3825 C143.4662,15.5525 141.7482,15.1285 140.0072,15.1515 C138.2652,15.1205 136.5452,15.5445 135.0172,16.3825 C133.5382,17.1775 132.3262,18.3895 131.5312,19.8685 C130.7012,21.4245 130.2782,23.1645 130.3012,24.9275 C130.2782,26.6685 130.7012,28.3865 131.5312,29.9175 C132.3262,31.3965 133.5382,32.6085 135.0172,33.4035 C138.1422,35.0445 141.8732,35.0445 144.9982,33.4035 C146.4622,32.5885 147.6692,31.3815 148.4842,29.9175 C149.3142,28.3865 149.7382,26.6685 149.7152,24.9275 C149.7382,23.1645 149.3142,21.4235 148.4842,19.8685 C147.6892,18.3895 146.4762,17.1775 144.9972,16.3825" id="Fill-9" fill="#FFFFFF"></path>
                <path d="M157.0272,33.3355 C158.5522,34.1875 160.2702,34.6355 162.0172,34.6355 C164.3662,34.6805 166.6422,33.8235 168.3782,32.2415 C168.7922,31.8495 169.0372,31.3115 169.0622,30.7415 C169.0772,30.3805 168.9822,30.0225 168.7892,29.7165 C168.6392,29.3865 168.4032,29.1035 168.1052,28.8965 C167.6852,28.5965 167.1852,28.4295 166.6692,28.4175 C166.0312,28.4555 165.4172,28.6685 164.8922,29.0325 C164.0712,29.6595 163.0532,29.9745 162.0212,29.9215 C161.1612,29.9375 160.3122,29.7255 159.5602,29.3065 C158.8672,28.8975 158.2992,28.3065 157.9192,27.5975 C157.4922,26.7985 157.2802,25.9025 157.3042,24.9975 C157.2122,23.6525 157.6542,22.3265 158.5342,21.3055 C159.3782,20.4035 160.5822,19.9265 161.8152,20.0055 C162.4242,19.9995 163.0282,20.1165 163.5922,20.3475 C164.1202,20.5805 164.5872,20.9315 164.9592,21.3725 C165.2092,21.6375 165.5122,21.8475 165.8482,21.9875 C166.1962,22.1275 166.5672,22.1975 166.9422,22.1925 C167.4062,22.1835 167.8572,22.0415 168.2422,21.7825 C168.5792,21.5815 168.8612,21.2995 169.0622,20.9625 C169.2782,20.6125 169.3962,20.2115 169.4042,19.8005 C169.4122,19.2695 169.2162,18.7555 168.8572,18.3645 C168.0102,17.3595 166.9612,16.5445 165.7782,15.9715 C164.5782,15.4195 163.2712,15.1385 161.9502,15.1515 C160.2302,15.1285 158.5342,15.5525 157.0282,16.3825 C155.5992,17.2195 154.4192,18.4225 153.6102,19.8685 C152.7882,21.4025 152.3652,23.1185 152.3802,24.8585 C152.3572,26.5785 152.7812,28.2745 153.6102,29.7805 C154.3362,31.3025 155.5352,32.5495 157.0282,33.3355" id="Fill-11" fill="#FFFFFF"></path>
                <path d="M173.0922,30.3275 C174.3002,30.3275 175.2802,31.3075 175.2802,32.5155 C175.2802,33.7235 174.3002,34.7035 173.0922,34.7035 C171.8842,34.7035 170.9042,33.7235 170.9042,32.5155 C170.9042,31.3075 171.8842,30.3275 173.0922,30.3275" id="Fill-13" fill="#FFFFFF"></path>
                <g id="Group-17" transform="translate(0.000000, 0.703500)">
                    <mask id="mask-2" fill="white">
                        <use xlink:href="#path-1"></use>
                    </mask>
                    <g id="Clip-16"></g>
                    <path d="M30.4893984,30.923 C30.4922,31.6 29.9472,32.151 29.2702,32.154 C29.2662,32.154 29.2622,32.154 29.2582,32.154 L25.5672,32.154 C25.4932,32.149 25.4352,32.091 25.4302,32.017 L25.4302,16.297 C25.4152,14.642 24.0772,13.304 22.4222,13.289 L9.7072,13.289 C8.9242,13.292 8.1692,13.584 7.5882,14.109 C7.0532,14.605 6.7342,15.291 6.7002,16.02 L6.7002,32.02 C6.6952,32.094 6.6372,32.152 6.5632,32.1570123 L2.8002,32.1570123 C2.1232,32.16 1.5722,31.615 1.5692,30.938 C1.5692,30.934 1.5692,30.93 1.5692,30.926 L1.5692,8.09 C1.5772,7.644 1.8102,7.233 2.1882,6.997 L10.3232,2.212 C10.5082,2.102 10.7242,2.054 10.9382,2.075 C11.0562,2.064 11.1752,2.088 11.2802,2.143 L29.6002,7.338 C30.1302,7.47 30.4992,7.951 30.4893984,8.497 L30.4893984,30.923 Z M16.0652077,26.89 C16.0662,27.145 15.9692,27.39 15.7922,27.574 C15.5332,27.893 15.2062,28.15 14.8352,28.326 L8.6822,31.397 L8.5452,31.397 C8.4772,31.397 8.4772,31.329 8.4772,31.26 L8.4772,16.02 C8.4912,15.774 8.6172,15.547 8.8192,15.405 C9.0682,15.193 9.3812,15.073 9.7082,15.063 L15.8602,15.063 C15.9342,15.066 15.9942,15.124 16.0002,15.197 L16.0002,26.887 L16.0652077,26.89 Z M30.2842,5.561 L11.9632,0.434 C11.6962,0.355 11.4212,0.309 11.1432,0.297 C10.6142,0.287 10.0932,0.429 9.6432,0.707 L1.5002,5.497 C0.5632,6.021 -0.0128,7.016 -1.55026606e-05,8.09 L-1.55026606e-05,30.923 C0.0152,32.578 1.3532,33.916 3.0082,33.931 L7.5202,33.931 C7.9322,33.878 8.3282,33.739 8.6822,33.521 L15.9282,29.897 C16.5112,29.599 17.0222,29.179 17.4282,28.666 C17.8212,28.157 18.0372,27.533 18.0432,26.889 L18.0432,15.197 C18.0482,15.123 18.1062,15.065 18.1802,15.06 L22.5552,15.06 C23.2322,15.054 23.7842,15.598 23.7902,16.275 C23.7902,16.282 23.7902,16.29 23.7902,16.297 L23.7902,33.042 C23.7772,33.279 23.8792,33.507 24.0632,33.657 C24.2312,33.815 24.4482,33.911 24.6782,33.93 L29.4002,33.93 C31.0522,33.911 32.3852,32.575 32.4002,30.923 L32.4002,8.497 C32.4532,7.148 31.5802,5.937 30.2842,5.561 L30.2842,5.561 Z" id="Fill-15" fill="#FFFFFF" mask="url(#mask-2)"></path>
                </g>
                <path d="M207.2752,29.2345 C206.5482,29.6535 205.7212,29.8655 204.8822,29.8495 C204.0422,29.8745 203.2132,29.6615 202.4892,29.2345 C201.7962,28.8255 201.2282,28.2345 200.8482,27.5255 C200.0262,25.8895 200.0262,23.9615 200.8482,22.3255 C201.2452,21.6105 201.8082,21.0015 202.4892,20.5485 C203.2162,20.1295 204.0432,19.9175 204.8822,19.9335 C205.7222,19.9085 206.5512,20.1215 207.2752,20.5485 C207.9682,20.9575 208.5362,21.5485 208.9162,22.2575 C209.3362,23.0585 209.5472,23.9525 209.5312,24.8575 C209.5552,25.7625 209.3432,26.6585 208.9162,27.4575 C208.5572,28.1995 207.9862,28.8185 207.2752,29.2345 M209.8042,16.3825 C208.2732,15.5525 206.5552,15.1285 204.8142,15.1515 C203.0722,15.1205 201.3522,15.5445 199.8242,16.3825 C198.3452,17.1775 197.1332,18.3895 196.3382,19.8685 C195.5082,21.4245 195.0852,23.1645 195.1082,24.9275 C195.0852,26.6685 195.5082,28.3865 196.3382,29.9175 C197.1332,31.3965 198.3452,32.6085 199.8242,33.4035 C202.9492,35.0445 206.6802,35.0445 209.8052,33.4035 C211.2692,32.5885 212.4762,31.3815 213.2912,29.9175 C214.1212,28.3865 214.5442,26.6685 214.5212,24.9275 C214.5442,23.1645 214.1212,21.4245 213.2912,19.8685 C212.4962,18.3895 211.2832,17.1775 209.8042,16.3825" id="Fill-18" fill="#FFFFFF"></path>
                <path d="M180.4752,33.3355 C182.0002,34.1875 183.7182,34.6355 185.4652,34.6355 C187.8142,34.6805 190.0902,33.8235 191.8262,32.2415 C192.2402,31.8495 192.4852,31.3115 192.5102,30.7415 C192.5252,30.3805 192.4302,30.0225 192.2372,29.7165 C192.0872,29.3865 191.8512,29.1035 191.5532,28.8965 C191.1332,28.5965 190.6332,28.4295 190.1172,28.4175 C189.4792,28.4555 188.8652,28.6685 188.3402,29.0325 C187.5192,29.6595 186.5012,29.9745 185.4692,29.9215 C184.6092,29.9375 183.7602,29.7255 183.0082,29.3065 C182.3152,28.8975 181.7472,28.3065 181.3672,27.5975 C180.9402,26.7985 180.7282,25.9025 180.7522,24.9975 C180.6612,23.6525 181.1032,22.3265 181.9832,21.3055 C182.8272,20.4035 184.0312,19.9265 185.2642,20.0055 C185.8732,19.9995 186.4772,20.1165 187.0412,20.3475 C187.5692,20.5805 188.0362,20.9315 188.4082,21.3725 C188.6582,21.6375 188.9612,21.8475 189.2972,21.9875 C189.6452,22.1275 190.0162,22.1975 190.3912,22.1925 C190.8552,22.1835 191.3062,22.0415 191.6912,21.7825 C192.0282,21.5815 192.3102,21.2995 192.5112,20.9625 C192.7272,20.6125 192.8452,20.2115 192.8532,19.8005 C192.8612,19.2695 192.6652,18.7555 192.3062,18.3645 C191.4582,17.3595 190.4092,16.5445 189.2262,15.9715 C188.0262,15.4195 186.7192,15.1385 185.3982,15.1515 C183.6782,15.1285 181.9822,15.5525 180.4762,16.3825 C179.0472,17.2195 177.8672,18.4225 177.0582,19.8685 C176.2362,21.4025 175.8122,23.1185 175.8272,24.8585 C175.8042,26.5785 176.2282,28.2745 177.0582,29.7805 C177.7842,31.3025 178.9832,32.5495 180.4762,33.3355" id="Fill-20" fill="#FFFFFF"></path>
                <g id="Group-24" transform="translate(217.000000, 14.703500)">
                    <mask id="mask-4" fill="white">
                        <use xlink:href="#path-3"></use>
                    </mask>
                    <g id="Clip-23"></g>
                    <path d="M17.8222,0.516 C15.8682,0.459 13.9802,1.229 12.6222,2.635 C11.6382,1.208 9.9772,0.403 8.2472,0.516 C6.9632,0.563 5.7542,1.131 4.8972,2.088 C4.5742,1.2 3.7832,0.567 2.8462,0.447 L2.4362,0.447 C1.2032,0.686 0.3312,1.793 0.3902,3.048 L0.3902,17.402 C0.4112,18.79 1.5312,19.91 2.9192,19.931 L3.2612,19.931 C4.5362,19.73 5.4692,18.622 5.4492,17.331 L5.4492,7.558 C5.5282,6.297 6.5142,5.281 7.7732,5.165 C9.1422,5.249 10.1832,6.426 10.0992,7.795 C10.0992,7.807 10.0982,7.819 10.0972,7.831 L10.0972,17.47 C10.0972,18.867 11.2302,20 12.6272,20 C14.0232,20 15.1562,18.867 15.1562,17.47 L15.1562,11.933 L15.2242,7.833 C15.1332,6.489 16.1482,5.324 17.4932,5.233 C17.6032,5.226 17.7142,5.226 17.8242,5.233 C18.9232,5.159 19.8742,5.989 19.9482,7.088 C19.9562,7.199 19.9542,7.31 19.9432,7.421 L19.9432,17.47 C19.9642,18.858 21.0842,19.978 22.4722,19.999 L22.8142,19.999 C24.0892,19.798 25.0222,18.69 25.0022,17.399 L25.0022,8.036 C24.9322,2.499 21.1042,0.516 17.8222,0.516" id="Fill-22" fill="#FFFFFF" mask="url(#mask-4)"></path>
                </g>
            </g>
        </g>
    </g>
</svg>