<svg xmlns="http://www.w3.org/2000/svg" width="222" height="64" viewBox="0 0 222 64">
    <g fill="none" fill-rule="evenodd">
        <path fill="#F8531E" d="M0 0h190c17.673 0 32 14.327 32 32 0 17.673-14.327 32-32 32H0V0z"/>
        <path fill="#FFF" fill-rule="nonzero" stroke="#FFF" stroke-width="2" d="M108.9 48.116a4.288 4.288 0 0 0 3.373-1.635c.186-.243.081-.452-.209-.452h-.255a.565.565 0 0 0-.463.209 3.365 3.365 0 0 1-2.446 1.032 3.429 3.429 0 0 1-3.443-3.443c0-1.82 1.53-3.35 3.443-3.35.95 0 1.808.382 2.423.997a.59.59 0 0 0 .463.197h.22c.302 0 .43-.209.232-.452a4.319 4.319 0 0 0-3.338-1.588c-2.377 0-4.324 1.924-4.324 4.196 0 2.365 1.947 4.289 4.324 4.289zM123.436 48c.244 0 .371-.128.371-.37v-3.687h4.81v3.686c0 .243.128.371.372.371h.07c.243 0 .37-.128.37-.37v-7.536c0-.243-.127-.37-.37-.37h-.07c-.244 0-.371.127-.371.37v3.037h-4.81v-3.037c0-.243-.128-.37-.372-.37h-.104c-.244 0-.371.127-.371.37v7.535c0 .243.127.371.37.371h.105zm20.622.093c2.377 0 4.313-1.925 4.313-4.29 0-2.271-1.936-4.196-4.313-4.196-2.376 0-4.312 1.925-4.312 4.197 0 2.364 1.936 4.289 4.312 4.289zm0-.846a3.419 3.419 0 0 1-3.43-3.443c0-1.82 1.518-3.35 3.43-3.35 1.913 0 3.432 1.53 3.432 3.35a3.419 3.419 0 0 1-3.432 3.443zm15.105.753c.243 0 .37-.128.37-.37v-7.536c0-.243-.127-.37-.37-.37h-.105c-.243 0-.37.127-.37.37v7.535c0 .243.127.371.37.371h.105zm14.953.116a4.288 4.288 0 0 0 3.374-1.635c.185-.243.08-.452-.209-.452h-.255a.565.565 0 0 0-.464.209 3.365 3.365 0 0 1-2.446 1.032 3.429 3.429 0 0 1-3.442-3.443c0-1.82 1.53-3.35 3.442-3.35.95 0 1.809.382 2.423.997a.59.59 0 0 0 .464.197h.22c.301 0 .429-.209.232-.452a4.319 4.319 0 0 0-3.339-1.588c-2.376 0-4.323 1.924-4.323 4.196 0 2.365 1.947 4.289 4.323 4.289zm18.49-.116c.243 0 .37-.128.37-.37v-.07c0-.244-.127-.371-.37-.371h-3.582v-3.524h3.361c.244 0 .371-.128.371-.371v-.07c0-.243-.127-.37-.37-.37h-3.362v-2.32h3.582c.243 0 .37-.127.37-.37v-.07c0-.243-.127-.37-.37-.37h-4.058c-.243 0-.37.127-.37.37v7.535c0 .243.127.371.37.371h4.058z"/>
        <path fill="#100E36" d="M87.905 14.905l.667 1.02c.336.513.896.837 1.508.871l1.218.068a1.932 1.932 0 0 1 1.82 1.821l.069 1.217c.034.613.357 1.172.87 1.508l1.02.668c.823.539 1.11 1.61.667 2.487l-.55 1.088a1.932 1.932 0 0 0 0 1.742l.55 1.088a1.932 1.932 0 0 1-.667 2.487l-1.02.668a1.932 1.932 0 0 0-.87 1.508l-.069 1.217a1.932 1.932 0 0 1-1.82 1.82l-1.218.069c-.16.01-.319.038-.47.086v11.546l-6.337-4.945-6.337 4.945V36.26a1.935 1.935 0 0 0-.1-.008l-1.216-.068a1.932 1.932 0 0 1-1.821-1.821l-.068-1.217a1.932 1.932 0 0 0-.871-1.508l-1.02-.668a1.932 1.932 0 0 1-.666-2.487l.549-1.088a1.932 1.932 0 0 0 0-1.742l-.55-1.088a1.932 1.932 0 0 1 .667-2.487l1.02-.668c.513-.336.836-.895.87-1.508l.069-1.217a1.932 1.932 0 0 1 1.82-1.82l1.218-.069a1.932 1.932 0 0 0 1.508-.87l.668-1.02a1.932 1.932 0 0 1 2.487-.667l1.088.55a1.932 1.932 0 0 0 1.741 0l1.089-.55a1.932 1.932 0 0 1 2.487.666z"/>
        <path fill="#100E36" d="M77.002 25.071h12.673v22.813L83.34 42.94l-6.337 4.945z"/>
        <path fill="#3639B4" d="M82.653 38.26l-1.088.55a1.932 1.932 0 0 1-2.487-.667l-.668-1.02a1.932 1.932 0 0 0-1.508-.871l-1.217-.068a1.932 1.932 0 0 1-1.82-1.821l-.069-1.217a1.932 1.932 0 0 0-.87-1.508l-1.02-.668a1.932 1.932 0 0 1-.667-2.487l.55-1.088a1.932 1.932 0 0 0 0-1.742l-.55-1.088a1.932 1.932 0 0 1 .666-2.487l1.02-.668c.513-.336.837-.895.871-1.508l.068-1.217a1.932 1.932 0 0 1 1.821-1.82l1.217-.069a1.932 1.932 0 0 0 1.508-.87l.668-1.02a1.932 1.932 0 0 1 2.487-.667l1.088.55a1.932 1.932 0 0 0 1.742 0l1.088-.55a1.932 1.932 0 0 1 2.487.666l.668 1.02c.336.513.895.837 1.508.871l1.217.068a1.932 1.932 0 0 1 1.82 1.821l.069 1.217c.034.613.358 1.172.87 1.508l1.02.668c.823.539 1.11 1.61.667 2.487l-.55 1.088a1.932 1.932 0 0 0 0 1.742l.55 1.088a1.932 1.932 0 0 1-.666 2.487l-1.02.668a1.932 1.932 0 0 0-.871 1.508l-.068 1.217a1.932 1.932 0 0 1-1.821 1.82l-1.217.069a1.932 1.932 0 0 0-1.508.87l-.668 1.02a1.932 1.932 0 0 1-2.487.667l-1.088-.55a1.932 1.932 0 0 0-1.742 0z"/>
        <path fill="#FFF" d="M81.483 24.28l-3.16.59-.052.013a.363.363 0 0 0-.146.594l2.211 2.333-.417 3.19-.003.049c0 .26.275.442.52.325l2.903-1.382 2.903 1.382.046.019a.363.363 0 0 0 .47-.394l-.417-3.189 2.21-2.333.034-.041a.363.363 0 0 0-.23-.566l-3.161-.59-1.537-2.823a.363.363 0 0 0-.637 0l-1.537 2.824z"/>
        <g fill="#FFF">
            <path d="M118.424 15.675c.499-.038.988.152 1.33.516.334.34.522.797.522 1.273V32.32a1.777 1.777 0 0 1-1.805 1.75 1.972 1.972 0 0 1-.759-.142 1.708 1.708 0 0 1-.664-.519l-8.396-11.085v9.954c0 .476-.187.933-.521 1.273-.366.327-.837.51-1.329.52h-.044a1.777 1.777 0 0 1-1.76-1.795v-14.85c.012-.98.82-1.762 1.804-1.75a1.51 1.51 0 0 1 .757.185c.225.13.433.29.617.472l8.445 11.133v-9.95a1.846 1.846 0 0 1 .522-1.321 1.838 1.838 0 0 1 1.28-.519zm25.524 4.95a6.241 6.241 0 0 1 2.657.565 6.504 6.504 0 0 1 2.137 1.652c.25.27.385.624.38.99-.006.284-.088.56-.238.802-.14.233-.335.427-.569.566a1.68 1.68 0 0 1-.902.283 1.972 1.972 0 0 1-.76-.142 1.802 1.802 0 0 1-.616-.424 2.63 2.63 0 0 0-.949-.707c-.391-.16-.81-.24-1.233-.236a2.876 2.876 0 0 0-2.277.897 3.523 3.523 0 0 0-.854 2.547c-.017.625.13 1.243.427 1.794.263.49.657.897 1.138 1.18.522.289 1.111.435 1.708.424a3.04 3.04 0 0 0 1.993-.614c.364-.25.79-.398 1.233-.424.358.008.705.124.996.33.207.143.371.339.475.566.134.212.2.459.19.708a1.513 1.513 0 0 1-.475 1.035 6.393 6.393 0 0 1-4.414 1.651 7.133 7.133 0 0 1-3.463-.897 5.416 5.416 0 0 1-2.372-2.452 6.821 6.821 0 0 1-.853-3.397c-.01-1.2.283-2.384.853-3.443a6.438 6.438 0 0 1 2.372-2.405 6.917 6.917 0 0 1 3.416-.85zm20.352-4.95a1.814 1.814 0 0 1 1.378.516c.335.34.522.797.522 1.273v14.854a1.777 1.777 0 0 1-1.804 1.75 1.972 1.972 0 0 1-.76-.142 1.708 1.708 0 0 1-.663-.519l-8.397-11.084v9.954c0 .476-.188.933-.522 1.273-.366.327-.837.51-1.329.52h-.044a1.777 1.777 0 0 1-1.76-1.795v-14.85c.013-.98.82-1.762 1.804-1.75a1.51 1.51 0 0 1 .758.186c.224.13.432.289.616.472l8.398 11.132v-9.95a1.846 1.846 0 0 1 .521-1.321 1.838 1.838 0 0 1 1.282-.519zm25.524 4.95a6.241 6.241 0 0 1 2.656.565 6.494 6.494 0 0 1 2.137 1.652c.25.27.385.624.38.99-.006.284-.088.56-.238.802-.139.233-.335.427-.569.566a1.68 1.68 0 0 1-.902.283 1.972 1.972 0 0 1-.759-.142 1.802 1.802 0 0 1-.617-.424 2.63 2.63 0 0 0-.949-.707c-.391-.16-.81-.24-1.233-.236a2.876 2.876 0 0 0-2.277.897 3.52 3.52 0 0 0-.853 2.547c-.017.625.13 1.243.427 1.794.263.49.657.897 1.138 1.18.522.289 1.111.435 1.708.424a3.04 3.04 0 0 0 1.993-.614c.364-.25.79-.398 1.233-.424.358.008.705.124.996.33.207.143.37.339.475.566.134.212.2.459.19.708a1.513 1.513 0 0 1-.475 1.035 6.393 6.393 0 0 1-4.415 1.651 7.133 7.133 0 0 1-3.462-.897 5.416 5.416 0 0 1-2.372-2.452 6.821 6.821 0 0 1-.853-3.397c-.01-1.2.283-2.384.853-3.443a6.438 6.438 0 0 1 2.372-2.405 6.917 6.917 0 0 1 3.416-.85zm-61.103 0a7.103 7.103 0 0 1 3.463.849 6.224 6.224 0 0 1 2.418 2.405 7.174 7.174 0 0 1 .854 3.491 6.998 6.998 0 0 1-.854 3.443 6.227 6.227 0 0 1-2.42 2.405 7.487 7.487 0 0 1-6.926 0 5.921 5.921 0 0 1-2.42-2.405 6.998 6.998 0 0 1-.854-3.443 7.176 7.176 0 0 1 .857-3.49 5.921 5.921 0 0 1 2.419-2.406 6.976 6.976 0 0 1 3.463-.85zm45.875 0a7.103 7.103 0 0 1 3.463.849 5.923 5.923 0 0 1 2.42 2.405 7.182 7.182 0 0 1 .854 3.491 6.998 6.998 0 0 1-.854 3.443 6.227 6.227 0 0 1-2.42 2.405 7.487 7.487 0 0 1-6.926 0 5.921 5.921 0 0 1-2.42-2.405 6.997 6.997 0 0 1-.853-3.443 7.183 7.183 0 0 1 .854-3.49 5.921 5.921 0 0 1 2.42-2.406 6.976 6.976 0 0 1 3.462-.85zm-45.828 3.3a3.217 3.217 0 0 0-1.66.423 3.54 3.54 0 0 0-1.14 1.227 3.975 3.975 0 0 0 0 3.588c.264.489.658.897 1.14 1.179a3.1 3.1 0 0 0 1.66.424 3.217 3.217 0 0 0 1.66-.424c.494-.287.89-.714 1.14-1.226.296-.552.443-1.17.426-1.794a3.703 3.703 0 0 0-.427-1.794 3.042 3.042 0 0 0-1.138-1.18 3.1 3.1 0 0 0-1.661-.424zm45.875 0a3.217 3.217 0 0 0-1.66.423 3.54 3.54 0 0 0-1.14 1.227 3.975 3.975 0 0 0 0 3.588c.264.489.659.897 1.14 1.179a3.1 3.1 0 0 0 1.66.424 3.217 3.217 0 0 0 1.66-.424c.494-.287.89-.714 1.14-1.226.296-.552.443-1.17.427-1.794a3.703 3.703 0 0 0-.427-1.794 3.042 3.042 0 0 0-1.14-1.18 3.1 3.1 0 0 0-1.66-.424z"/>
        </g>
    </g>
</svg>
