<svg xmlns="http://www.w3.org/2000/svg" viewBox="0 0 86.14 64.745">
  <defs>
    <style>
      .cls-1 {
        fill: #fff;
      }

      .cls-2 {
        fill: #3639b4;
      }
    </style>
  </defs>
  <g id="_Graphic_Return" data-name=" Graphic_Return" transform="translate(-782.505 -4316.818)">
    <g id="Group_5226" data-name="Group 5226" transform="translate(800.804 4330.525)">
      <path id="Path_4457" data-name="Path 4457" class="cls-1" d="M84.73,70.976H33.559A4.033,4.033,0,0,1,29.5,66.917V26.659A4.033,4.033,0,0,1,33.559,22.6h51.1a4.033,4.033,0,0,1,4.059,4.059V66.917A3.937,3.937,0,0,1,84.73,70.976Z" transform="translate(-28.169 -21.269)"/>
      <path id="Path_4458" data-name="Path 4458" class="cls-2" d="M84.061,71.638H32.89a5.367,5.367,0,0,1-5.39-5.39V25.99a5.368,5.368,0,0,1,5.39-5.39h51.1a5.367,5.367,0,0,1,5.39,5.39V66.248A5.27,5.27,0,0,1,84.061,71.638ZM32.89,23.262a2.7,2.7,0,0,0-2.728,2.728V66.248a2.7,2.7,0,0,0,2.728,2.728h51.1a2.7,2.7,0,0,0,2.728-2.728V25.99a2.7,2.7,0,0,0-2.728-2.728Z" transform="translate(-27.5 -20.6)"/>
    </g>
    <g id="Group_5227" data-name="Group 5227" transform="translate(844.589 4332.322)">
      <path id="Path_4459" data-name="Path 4459" class="cls-2" d="M93.965,71.476a.629.629,0,0,1-.665-.665V23.965a.665.665,0,0,1,1.331,0V70.811A.716.716,0,0,1,93.965,71.476Z" transform="translate(-93.3 -23.3)"/>
    </g>
    <g id="Group_5228" data-name="Group 5228" transform="translate(793.118 4330.592)">
      <path id="Path_4460" data-name="Path 4460" class="cls-1" d="M22.518,22.6H44.942c1.065,0,1.863.732,1.73,1.53l-2.4,10.447a2.147,2.147,0,0,1-2.2,1.53H19.723c-1.065,0-1.863-.665-1.73-1.53l2.4-10.447a2.014,2.014,0,0,1,2.129-1.53Z" transform="translate(-16.628 -21.336)"/>
      <path id="Path_4461" data-name="Path 4461" class="cls-2" d="M41.468,36.87H19.044a3.26,3.26,0,0,1-2.462-1.065,2.481,2.481,0,0,1-.6-2v-.067L18.312,23.3a3.5,3.5,0,0,1,3.527-2.6H44.263a3.158,3.158,0,0,1,2.462,1.065,2.481,2.481,0,0,1,.6,2v.067L45,34.208A3.552,3.552,0,0,1,41.468,36.87ZM18.644,34.075c.067.067.2.067.4.067H41.468c.466,0,.865-.266.865-.4v-.067l2.329-10.314c-.067-.067-.2-.067-.4-.067H21.838c-.532,0-.865.266-.865.4v.067Zm1-10.58Zm25.086-.067Z" transform="translate(-15.949 -20.7)"/>
    </g>
    <g id="Group_5229" data-name="Group 5229" transform="translate(796.245 4330.592)">
      <path id="Path_4462" data-name="Path 4462" class="cls-1" d="M87.837,22.6H24.423c-1.065,0-1.863.732-1.73,1.53l2.4,10.447a2.147,2.147,0,0,0,2.2,1.53H90.7c1.065,0,1.863-.665,1.73-1.53l-2.4-10.447a2.147,2.147,0,0,0-2.2-1.53Z" transform="translate(-21.328 -21.336)"/>
      <path id="Path_4463" data-name="Path 4463" class="cls-2" d="M89.953,36.87H26.538a3.5,3.5,0,0,1-3.527-2.6L20.683,23.827v-.067a2.413,2.413,0,0,1,.6-2A3.26,3.26,0,0,1,23.744,20.7H87.158a3.5,3.5,0,0,1,3.527,2.6l2.329,10.447v.067a2.413,2.413,0,0,1-.6,2A3.158,3.158,0,0,1,89.953,36.87ZM23.344,23.362l2.329,10.314v.067a1.049,1.049,0,0,0,.865.4H89.953a2.353,2.353,0,0,0,.4-.067L88.023,23.761v-.067a1.049,1.049,0,0,0-.865-.4H23.744A1.45,1.45,0,0,0,23.344,23.362Z" transform="translate(-20.649 -20.7)"/>
    </g>
    <g id="Group_5232" data-name="Group 5232" transform="translate(807.126 4369.918)">
      <g id="Group_5230" data-name="Group 5230" transform="translate(0 4.126)">
        <line id="Line_485" data-name="Line 485" class="cls-1" x2="13.575" transform="translate(0.665 0.665)"/>
        <path id="Path_4464" data-name="Path 4464" class="cls-2" d="M51.24,87.331H37.665a.665.665,0,0,1,0-1.331H51.24a.665.665,0,1,1,0,1.331Z" transform="translate(-37 -86)"/>
      </g>
      <g id="Group_5231" data-name="Group 5231" transform="translate(0.067)">
        <line id="Line_486" data-name="Line 486" class="cls-1" x2="6.455" transform="translate(0.665 0.665)"/>
        <path id="Path_4465" data-name="Path 4465" class="cls-2" d="M44.22,81.131H37.765a.665.665,0,1,1,0-1.331H44.22a.629.629,0,0,1,.665.665A.667.667,0,0,1,44.22,81.131Z" transform="translate(-37.1 -79.8)"/>
      </g>
    </g>
    <g id="Group_5243" data-name="Group 5243" transform="translate(782.505 4316.818)">
      <g id="Group_5233" data-name="Group 5233" transform="translate(0 0)">
        <ellipse id="Ellipse_420" data-name="Ellipse 420" class="cls-1" cx="19.963" cy="19.963" rx="19.963" ry="19.963" transform="translate(1.331 1.331)"/>
        <path id="Path_4466" data-name="Path 4466" class="cls-2" d="M21.293,42.587A21.293,21.293,0,1,1,42.587,21.293,21.356,21.356,0,0,1,21.293,42.587Zm0-39.925A18.632,18.632,0,1,0,39.925,21.293,18.687,18.687,0,0,0,21.293,2.662Z" transform="translate(0 0)"/>
      </g>
      <g id="Group_5242" data-name="Group 5242" transform="translate(8.517 10.78)">
        <g id="Group_5237" data-name="Group 5237">
          <g id="Group_5236" data-name="Group 5236">
            <g id="Group_5234" data-name="Group 5234" transform="translate(0.2 0.2)">
              <path id="Path_4467" data-name="Path 4467" class="cls-2" d="M19.887,26.881a.962.962,0,0,1-.466-.133l-5.989-4.392a.832.832,0,0,1,0-1.331l5.989-4.392a.633.633,0,0,1,.466-.133.881.881,0,0,1,.865.865v8.784a.722.722,0,0,1-.266.6,1.943,1.943,0,0,1-.6.133Z" transform="translate(-13.1 -16.5)"/>
            </g>
            <g id="Group_5235" data-name="Group 5235">
              <path id="Path_4468" data-name="Path 4468" class="cls-2" d="M19.787,16.533a.667.667,0,0,1,.665.665v8.784a.667.667,0,0,1-.665.665.946.946,0,0,1-.4-.133L13.4,22.122a.693.693,0,0,1,0-1.065l5.989-4.392a.489.489,0,0,1,.4-.133m0-.333a1.073,1.073,0,0,0-.6.2L13.2,20.791a1,1,0,0,0,0,1.6l5.989,4.392a1.073,1.073,0,0,0,.6.2,1.023,1.023,0,0,0,1-1V17.2a.98.98,0,0,0-1-1Z" transform="translate(-12.8 -16.2)"/>
            </g>
          </g>
        </g>
        <g id="Group_5241" data-name="Group 5241" transform="translate(1.863 3.859)">
          <g id="Group_5240" data-name="Group 5240">
            <g id="Group_5238" data-name="Group 5238" transform="translate(0.067 0.067)">
              <path id="Path_4469" data-name="Path 4469" class="cls-2" d="M17.364,39a1.664,1.664,0,1,1,0-3.327H30.672a5.124,5.124,0,1,0,0-10.247H17.563a1.664,1.664,0,1,1,0-3.327H30.672a8.418,8.418,0,1,1,0,16.835H17.364Z" transform="translate(-15.7 -22.1)"/>
            </g>
            <g id="Group_5239" data-name="Group 5239">
              <path id="Path_4470" data-name="Path 4470" class="cls-2" d="M30.639,22.2a8.318,8.318,0,1,1,0,16.635H17.33a1.6,1.6,0,1,1,0-3.194H30.639a5.2,5.2,0,0,0,5.19-5.19,5.14,5.14,0,0,0-5.19-5.124H17.53a1.6,1.6,0,1,1,0-3.194H30.639m0-.133H17.53a1.73,1.73,0,1,0,0,3.46H30.639a4.991,4.991,0,1,1,0,9.981H17.33a1.73,1.73,0,1,0,0,3.46H30.639a8.534,8.534,0,0,0,8.517-8.517A8.379,8.379,0,0,0,30.639,22Z" transform="translate(-15.6 -22)"/>
            </g>
          </g>
        </g>
      </g>
    </g>
  </g>
</svg>
