<?xml version="1.0" encoding="utf-8"?>
<!-- Generator: Adobe Illustrator 18.1.0, SVG Export Plug-In . SVG Version: 6.00 Build 0)  -->
<svg version="1.1" id="Layer_1" xmlns="http://www.w3.org/2000/svg" xmlns:xlink="http://www.w3.org/1999/xlink" x="0px" y="0px"
	 viewBox="0 0 624.3 400.4" enable-background="new 0 0 624.3 400.4" xml:space="preserve">
<g opacity="0.14">
	<path fill="#4A4B4A" d="M483,330.9c15.4,2,29,8.9,43.8,13c17.6,4.9,36.7,8.1,55.2,8.6c8,0.2,38.7-1.9,42-9.4
		c4.5-10.3-30.9-19.6-41.2-17.5c-16.5,3.3-32.7-8.3-38.9-9.9c-22.3-5.8-54.3-5.7-77.4-3.7c-8.1,0.7-52.2,4-42.7,15.7
		C431.2,337,471.1,329.4,483,330.9z"/>
</g>
<g opacity="0.22">
	<ellipse fill="#4A4B4A" cx="153" cy="377.1" rx="86.1" ry="11.6"/>
</g>
<g>
	<g>
		<polygon fill="#100E37" points="59.3,267.3 57.2,312 64.4,312 75.7,267.3 		"/>
	</g>
	<g>
		<polygon fill="#100E37" points="368.4,267.3 370.5,312 363.4,312 352,267.3 		"/>
	</g>
	<g>
		<path fill="#FDD917" d="M42.8,226.9l7.1-82.6c1.9-19.1,15.6-33.5,31.8-33.5h262.6c15.6,0,28.9,13.4,31.5,31.7l10.3,84.4H42.8z"/>
	</g>
	<g opacity="0.55">
		<path fill="#D4D4D4" d="M384.6,172.4c0,0-26.4,7.1-36.9,22.2H81c0,0-7.1-21-31.9-20.8v36.7h338.2L384.6,172.4z"/>
	</g>
	<g>
		<rect x="59.2" y="255.4" fill="#100E37" width="309.5" height="15.1"/>
	</g>
	<g>
		<path fill="#FDD916" d="M410.4,167h-7.6c-13.6,0-26.4,1.2-34.4,12.3c-5.7,8-8.5,18.2-8.5,18.2l-145.4,2.3l-145.4-2.3
			c0,0-2.8-10.3-8.5-18.2c-8-11.1-20.8-12.3-34.4-12.3h-7.6c-14.4,0-21,8.2-17.9,22.5c3.8,17.5,8.5,40.2,21.6,59.1
			c6.2,9,16.6,14.1,27.4,14.1H188h53.1h138.3c10.8,0,21.1-5.2,27.4-14.1c13.1-18.8,17.8-41.6,21.6-59.1
			C431.4,175.2,424.9,167,410.4,167z"/>
	</g>
	<g opacity="0.55">
		<path fill="#D4D4D4" d="M355.5,231.5H73.6c-3.9,0-7.1-3.6-7.1-8l0,0c0-14,10.1-25.4,22.6-25.4h253.3c11.2,0,20.3,10.2,20.3,22.8
			v2.6C362.6,227.9,359.4,231.5,355.5,231.5z"/>
	</g>
	<g>
		<path fill="#4A4B4A" d="M207.1,226.9H72.7c-3.4,0-6.2-3.1-6.2-7l0,0c0-12.4,8.9-22.4,19.9-22.4h120.7c3.4,0,6.2,3.1,6.2,7v15.4
			C213.3,223.8,210.5,226.9,207.1,226.9z"/>
	</g>
	<g>
		<path fill="#4A4B4A" d="M356.4,226.9H222c-3.4,0-6.2-3.1-6.2-7v-15.4c0-3.9,2.8-7,6.2-7h120.7c11,0,19.9,10,19.9,22.4l0,0
			C362.6,223.8,359.8,226.9,356.4,226.9z"/>
	</g>
	<g>
		<path fill="#F8531E" d="M166.8,208.9l-46.2,3.6c-5.8,0.5-10.9-4-11.4-9.9l-3.6-46.8c-0.4-5.9,3.9-11,9.7-11.5l46.2-3.6
			c5.8-0.5,10.9,4,11.4,9.9l3.6,46.8C177,203.3,172.6,208.5,166.8,208.9z"/>
	</g>
	<g>
		<path fill="#F8531E" d="M316.8,216.1l-46.2,3.6c-5.8,0.5-10.9-4-11.4-9.9l-3.6-46.8c-0.4-5.9,3.9-11,9.7-11.5l46.2-3.6
			c5.8-0.5,10.9,4,11.4,9.9l3.6,46.8C326.9,210.5,322.6,215.6,316.8,216.1z"/>
	</g>
	<g>
		<path fill="#AB9476" d="M269.9,226.8l-41.1-8c-5.9-1.2-9.8-7-8.6-13l5.2-26c1.2-6,7-9.9,12.9-8.8l41.1,8c5.9,1.2,9.8,7,8.6,13
			l-5.2,26C281.6,224.1,275.9,228,269.9,226.8z"/>
	</g>
	<g>
		<path fill="#AB9476" d="M116.5,190.2L102.9,204c-4,4.1-10.6,4.1-14.6,0l-23.7-24c-4.1-4.2-4.1-10.9,0-15.1L78.2,151
			c4-4.1,10.6-4.1,14.6,0l23.7,24C120.7,179.2,120.7,186,116.5,190.2z"/>
	</g>
</g>
<g opacity="0.12">
	<ellipse fill="#4A4B4A" cx="347" cy="387.5" rx="76.6" ry="12.9"/>
</g>
<g>
	<g>
		<path fill="#F3244C" d="M172.1,356.7c0,0-0.6,17.6-6.2,18.1H138c0,0-0.7-8,11.1-9.2c4.1-0.4,11.7-8.9,11.7-8.9H172.1z"/>
	</g>
	<g>
		<g>
			<path fill="#FBB0C9" d="M83.2,9.9c-1.2-0.3-2.6,0.4-2.8,1.5c-0.1,1.3,1.1,2.1,2.3,2.7c1.4,0.8,2.9,1.5,4.3,2.3
				c0.9,0.5,2.2,0.9,2.9,0.2c0.4-0.4,0.5-1.1,0.3-1.7c-0.2-0.6-0.6-1-1.1-1.5c-1.6-1.4-2.6-2.4-4.6-3.1L83.2,9.9z"/>
		</g>
		<g>
			<path fill="#FBB0C9" d="M89.9,3.9C88,2.8,85.5,2.1,84,3.6c-1.2,1.1-1.1,3.1-0.4,4.6c0.9,2,2.2,3.6,2.9,5.7
				c0.6,1.7,0.3,4.3,1.3,5.8c1.6,2.3,4,2.1,6.2,0.9C101.4,16.7,95.3,7.1,89.9,3.9z"/>
		</g>
	</g>
	<g>
		<path fill="#FFFFFF" d="M171.9,46.5l-34.8-9.8c0,0-15.4-8.3-24.5-16.5s-15-12.1-15-12.1l-13.6,9.6c0,0,17.7,32.3,41.9,42.6
			l53,12.1l3.6-13.2L171.9,46.5"/>
	</g>
	<g>
		<g>
			<path fill="#100E37" d="M101.7,89.7c-0.2,0-0.4,0-0.6-0.1c-0.7-0.2-1.2-0.7-1.4-1.4l-7.9-22.3c-0.3-0.8-0.1-1.6,0.4-2.2l0,0
				l13.9-15c0.5-0.6,1.3-0.8,2.1-0.7c0.8,0.2,1.4,0.7,1.6,1.4c1.1,3.3,3.1,8.7,4.8,13.4c3.6,9.9,3.7,10.3,3.7,10.6
				c0,1-11.9,13.2-15.2,15.7C102.7,89.5,102.2,89.7,101.7,89.7z M93.2,64.6c-0.2,0.2-0.3,0.5-0.2,0.8l7.9,22.3
				c0.1,0.2,0.3,0.4,0.5,0.5c0.2,0.1,0.5,0,0.7-0.1c4.2-3.3,13.3-13.2,14.6-14.8c-0.4-1.1-2-5.6-3.6-10c-1.7-4.8-3.7-10.2-4.8-13.5
				c-0.1-0.4-0.5-0.5-0.6-0.5c-0.1,0-0.5-0.1-0.8,0.2L93.2,64.6z"/>
		</g>
	</g>
	<g>
		<path fill="#FBB0C9" d="M101.1,82.4c0.4-1,1.6-1.7,2.5-1.2c1,0.5,1,1.9,0.9,3c-0.2,1.4-0.3,2.9-0.5,4.3c-0.1,0.9-0.4,2.1-1.3,2.2
			c-0.5,0.1-1.1-0.2-1.4-0.7c-0.3-0.4-0.4-1-0.5-1.5c-0.3-1.9-0.5-3.1,0.1-5L101.1,82.4z"/>
	</g>
	<g>
		<path fill="#FBB0C9" d="M92.5,83.6c0.1-1.8,0.9-3.8,2.6-4.1c1.4-0.3,2.7,0.7,3.5,1.9c1,1.5,1.5,3.2,2.6,4.6
			c0.9,1.2,2.9,2.2,3.5,3.6c0.9,2.1-0.4,3.7-2.4,4.6C96,97.3,92.2,88.7,92.5,83.6z"/>
	</g>
	<g>
		<path fill="#F3244C" d="M344.9,209.7c0,0,16.9-11.5,21.1-6.6l19.1,26.1c0,0-8.1,7.1-16.1-4.1c-8.1-11.1-16.3-4.8-16.3-4.8
			L344.9,209.7z"/>
	</g>
	<g>
		<path fill="#100E37" d="M211.3,229.5c0.1,1.4,0.2,2.8,0.3,4.3c0.3,6.8,0,13.6,1.6,20.2c3.1,12.6,13,21.4,24.9,25.5
			c23.1,7.8,46.7-0.4,67.4-11.3c19.1-10.1,36-23.8,52.8-37.4c-3.4-9.4-6.8-18.7-10.2-28.1c-28.1,10.6-56.2,21.3-84.3,31.9
			c-7.7-23.5-15.5-47-23.2-70.5c-13.9,5.2-27.9,10.3-41.8,15.5C204.2,195.7,209.8,212.3,211.3,229.5z"/>
	</g>
	<g>
		<path fill="#2C2B60" d="M162.3,174.5l78-13.6c0,0,1.7,18.4-9,52.3c-3.2,10.3-18.5,37.8-18.5,37.8l-27.2,107.3h-37.2L162.3,174.5z"
			/>
	</g>
	<g>
		<path fill="#FFFFFF" d="M159.4,84.8l-23.8,26.4c0,0-2.5-3.5-11.6-11.8s-16.2-13.1-16.2-13.1L95.3,96.9c0,0,16.4,29.8,40.5,40.2
			c15.7,6.7,47.7-36,42.4-52.5"/>
	</g>
	<g>
		<path fill="#FFFFFF" d="M254.2,162.3c0,0-99.5,25.5-99.5,25.5l-5.7-84.2c0,0,8.5-21.9,20.1-55.7c2.9-8.5,7.7-13.3,15.6-6.9
			c10.5,8.6,17.6,19.7,24.6,31.2L254.2,162.3z"/>
	</g>
	<g>
		<path fill="#FBB0C9" d="M178.9,40.3c-2,2.6-4.3,5-7,6.2c-7.9,3.6-13.1-4.5-13.1-11c0-4.2,2.1-8.3,5.6-11c0.3-0.5-0.3-1-0.9-1.1
			c-0.6-0.1-1.3-0.1-1.6-0.6c-0.4-0.6,0.2-1.3,0.9-1.5c0.7-0.2,1.4,0,2.1,0.1c3.1,0.5,6.5-1.4,7.6-4.2c0.8-2,3.9-2.4,6-2.3
			c2.2,0.1,4.3,1.1,5.8,2.7c4.1,4.6,1.9,10.9-0.8,15.6C182.2,35.4,180.7,38,178.9,40.3z"/>
	</g>
	<g>
		
			<rect x="102.8" y="55.8" transform="matrix(0.9447 0.3278 -0.3278 0.9447 26.2113 -30.4813)" fill="#FFFFFF" width="1.4" height="13.4"/>
	</g>
	<g>
		
			<rect x="105" y="64.1" transform="matrix(0.9448 0.3278 -0.3278 0.9448 29.0532 -30.7367)" fill="#FFFFFF" width="1.4" height="13.4"/>
	</g>
	<g>
		<ellipse fill="#1D1D1B" cx="110.1" cy="78" rx="0.8" ry="1.4"/>
	</g>
	<g>
		<path fill="#4A4B4A" d="M139,138.4c-1.2,0-2.4-0.2-3.4-0.7c-24.1-10.3-40.7-40.2-40.9-40.5l-0.3-0.5l12.9-10.9l0.9,1.1l-12,10.2
			c2.3,3.9,17.9,30,39.9,39.4c6.1,2.6,16.2-3.8,29.2-18.4c10-11.2,18.1-23.5,18.2-23.6l1.2,0.8C183.4,97.1,155.8,138.4,139,138.4z"
			/>
	</g>
	<g>
		<g>
			<path fill="#FFFFFF" d="M205.7,33.5l-0.7-1.2c2.4-1.4,4.3-3.7,5.2-6.3c0.9-2.6,0.8-5.6-0.3-8.1l1.3-0.5c1.2,2.9,1.4,6.2,0.4,9.1
				C210.5,29.4,208.4,31.9,205.7,33.5z"/>
		</g>
		<g>
			<path fill="#FFFFFF" d="M215.3,24.8l-1.3-0.5c1.6-4,1.5-8.7-0.1-12.7l1.3-0.5C216.9,15.4,217,20.4,215.3,24.8z"/>
		</g>
	</g>
	<g>
		<g>
			<g>
				
					<rect x="359.7" y="163.5" transform="matrix(0.9677 0.2521 -0.2521 0.9677 56.8735 -85.0384)" fill="#100E37" width="1.4" height="31.9"/>
			</g>
		</g>
		<g>
			<g>
				
					<rect x="373" y="169.4" transform="matrix(0.8183 0.5748 -0.5748 0.8183 172.9631 -181.5731)" fill="#100E37" width="1.4" height="26.8"/>
			</g>
		</g>
	</g>
	<g>
		<path fill="#FBB0C9" d="M168.7,57.2c1.2,0.6,2.6,0.4,3.9,0c5.2-1.8,12.4-16.2,2.9-17.3C169.3,39.1,161.4,53.8,168.7,57.2z"/>
	</g>
	<g>
		<path fill="#856555" d="M169.8,19c2,2.8,4,5.6,6.1,8.3c0.5,0.7,1,1.4,1.8,1.8c0.5,0.2,1,0.3,1.4,0.7c0.6,0.6,0.5,1.7,0.1,2.5
			c-0.7,1.6-1.8,3-2.4,4.7c-0.5,1.7-0.2,3.9,1.4,4.5c0,0,14.4-11.6,10-17.7c-4.4-6.1-7.6-9.1-13.2-9.3
			C169.5,14.2,168.8,17.6,169.8,19z"/>
	</g>
	<g>
		<path fill="#F02748" d="M181.6,24.6L164.1,0.9l1.6-0.9l9.4,9.9c0,0,11.1-8.7,21.3,4.2c11.3,14.3-7.2,18.2-9.6,20L181.6,24.6z"/>
	</g>
	<g>
		<path fill="#4A4B4A" d="M162.4,37.2c-0.3,0-0.5-0.1-0.8-0.2c-1.1-0.6-1.2-2.1-1.2-2.7l0-0.1l0.2-0.8c0.1-0.5,0.3-1,0.7-1.4
			c0.4-0.4,1-0.5,1.5-0.5c1,0.1,1.9,0.9,2.1,2c0.2,0.9-0.1,2-0.7,2.7C163.7,36.9,163.1,37.2,162.4,37.2z M161.9,34.4
			c0.1,1,0.3,1.3,0.4,1.4c0.2,0.1,0.5-0.1,0.7-0.4c0.3-0.4,0.5-1,0.4-1.5c-0.1-0.4-0.4-0.8-0.7-0.8c-0.1,0-0.3,0-0.4,0.1
			c-0.1,0.1-0.2,0.3-0.2,0.4l0,0.1L161.9,34.4z"/>
	</g>
</g>
<g>
	<g>
		<polygon fill="#674D3F" points="508.3,239.1 534.2,311.8 528.4,311.8 494.1,239.1 		"/>
	</g>
	<g>
		<polygon fill="#674D3F" points="474,239.1 448.2,311.8 453.9,311.8 488.2,239.1 		"/>
	</g>
	<g>
		<rect x="437" y="235" fill="#674D3F" width="111.8" height="8.4"/>
	</g>
	<g>
		<g>
			<path fill="#6DAD9C" d="M448.2,107.2c-1.2,0.5-2.1,1.5-2.3,3.1c-0.2,1.9,0.8,3.7,2,5.1c1.2,1.4,2.7,2.5,4,3.9
				c3.1,3.4,4.5,8.9,5.3,13.3c1.5,8,7.4,17.3,16.5,17.3c11.5-0.1,11.7-10.9,6.3-18.6c-3.7-5.2-9.4-8-13.7-12.5
				c-3.7-4-6.1-9.7-11.7-11.5C452.8,106.7,450.1,106.4,448.2,107.2z"/>
		</g>
		<g>
			<g>
				<path fill="#1A7D80" d="M476,165.4c0-32-21.7-51.8-21.9-52l1.1-1.2c0.2,0.2,22.4,20.4,22.4,53.1L476,165.4z"/>
			</g>
		</g>
		<g>
			<path fill="#5F9989" d="M486.2,151.7c-4.4-2-7.7-6.5-7.2-11.5c0.4-3.5,2.7-6.5,5.3-8.9c2.6-2.4,5.6-4.4,7.7-7.3
				c1.7-2.3,2.8-5.1,4.2-7.7c1.3-2.6,3-5.1,5.6-6.6c2.5-1.4,6.1-1.5,8.1,0.6c2.2,2.2,1.9,5.9,0.8,8.8c-1.2,2.9-3.1,5.5-3.8,8.6
				c-0.8,3.2-0.2,6.6-0.6,9.9c-0.7,6.5-6.3,13.3-12.9,14.8C490.9,153,488.5,152.7,486.2,151.7z"/>
		</g>
		<g>
			<g>
				<path fill="#1A7D80" d="M478.3,171.9c-0.5-10.1,3.7-22.4,12.5-36.7c6.5-10.5,13.2-18.2,13.3-18.3l1.2,1
					c-0.3,0.3-26.5,30.5-25.4,53.9L478.3,171.9z"/>
			</g>
		</g>
	</g>
	<g>
		<path fill="#3639B4" d="M477.3,165.4h11.5l-3.3,12.4c1.5,1.7,18.7,2.8,18.7,15.4c0,8.5-7.6,13.7-13,15.1c-2.1,0.5-2.8,3.2-1.2,4.6
			l0,0c1.2,1.1,1.2,3.1-0.1,4.1l-2.8,2.2l3.6,16.1h-13.4h3.1H467l3.6-16.1l-2.8-2.2c-1.3-1-1.4-3-0.1-4.1l0,0
			c1.6-1.5,0.9-4.1-1.2-4.6c-5.4-1.3-13-6.6-13-15.1c0-12.6,17.2-13.7,18.7-15.4l-3.3-12.4h11.5H477.3z"/>
	</g>
	<g>
		<g>
			<path fill="#F02748" d="M515.5,218.4c-1.4,0-2.8-0.4-3.9-1.1c-2-1.3-3.4-3.5-3.5-5.9c-0.1-1.8,0.5-3.5,1.1-5.2
				c0.2-0.7,0.5-1.4,0.7-2.1c0.6-2.4,0.4-4.6-0.7-6c-0.6-0.8-1.7-1.4-2.7-1.5c-0.8-0.1-1.6,0.1-2.1,0.6c-0.4,0.4-1.1,0.4-1.5-0.1
				c-0.4-0.4-0.4-1.1,0.1-1.5c1-0.9,2.3-1.3,3.7-1.1c1.7,0.2,3.2,1,4.2,2.3c1.5,2,1.9,4.8,1.1,7.8c-0.2,0.8-0.5,1.5-0.7,2.2
				c-0.5,1.5-1,2.9-1,4.4c0.1,1.7,1.1,3.3,2.5,4.2c1.4,0.9,3.4,1,4.9,0.4c0.5-0.2,1.2,0,1.4,0.5c0.2,0.5,0,1.2-0.5,1.4
				C517.5,218.2,516.5,218.4,515.5,218.4z"/>
		</g>
		<g>
			<path fill="#F02748" d="M532.3,211.8c-0.3,0-0.6-0.1-0.8-0.3c-0.5-0.5-0.5-1.2,0-1.7c0.1-0.1,5.4-5.5,5.3-11c0-2.2-1-4.1-2.8-5.8
				c-1.5-1.3-2.9-1.9-4.3-1.6c-3,0.6-5.1,4.7-5.1,4.8c-0.3,0.6-1,0.8-1.6,0.5c-0.6-0.3-0.8-1-0.5-1.6c0.1-0.2,2.6-5.3,6.7-6.1
				c2.1-0.4,4.2,0.3,6.3,2.2c2.3,2.1,3.5,4.6,3.5,7.5c0.1,6.5-5.7,12.5-6,12.7C532.9,211.7,532.6,211.8,532.3,211.8z"/>
		</g>
		<g>
			<path fill="#F0465C" d="M536.1,234.5h-24.9c-0.8,0-1.5-0.8-1.3-1.6l8.3-37.1c0.1-0.6,0.7-1,1.3-1h8.2c0.6,0,1.1,0.4,1.3,1
				l8.3,37.1C537.5,233.7,536.9,234.5,536.1,234.5z"/>
		</g>
	</g>
</g>
</svg>
