<svg xmlns="http://www.w3.org/2000/svg" viewBox="0 0 91.828 69.07">
  <defs>
    <style>
      .cls-1 {
        fill: #fff;
      }

      .cls-2 {
        fill: #3639b4;
      }
    </style>
  </defs>
  <g id="_Graphic_Credit_Card" data-name=" Graphic_Credit Card" transform="translate(-1078.302 -4312.285)">
    <g id="Group_5245" data-name="Group 5245" transform="translate(1106.915 4337.304)">
      <path id="Path_4471" data-name="Path 4471" class="cls-1" d="M101.494,80.989H49.059A4.033,4.033,0,0,1,45,76.93V43.659A4.033,4.033,0,0,1,49.059,39.6h52.435a4.033,4.033,0,0,1,4.059,4.059V76.93A4.033,4.033,0,0,1,101.494,80.989Z" transform="translate(-43.669 -38.269)"/>
      <path id="Path_4472" data-name="Path 4472" class="cls-2" d="M100.825,81.651H48.39A5.368,5.368,0,0,1,43,76.261V42.99a5.367,5.367,0,0,1,5.39-5.39h52.435a5.368,5.368,0,0,1,5.39,5.39V76.261A5.368,5.368,0,0,1,100.825,81.651ZM48.39,40.262a2.7,2.7,0,0,0-2.728,2.728V76.261a2.7,2.7,0,0,0,2.728,2.728h52.435a2.7,2.7,0,0,0,2.728-2.728V42.99a2.7,2.7,0,0,0-2.728-2.728Z" transform="translate(-43 -37.6)"/>
    </g>
    <g id="Group_5246" data-name="Group 5246" transform="translate(1094.006 4327.722)">
      <path id="Path_4473" data-name="Path 4473" class="cls-1" d="M83.691,67.121H29.859A4.289,4.289,0,0,1,25.6,62.863v-33.4A4.289,4.289,0,0,1,29.859,25.2H83.691a4.289,4.289,0,0,1,4.259,4.259v33.4A4.246,4.246,0,0,1,83.691,67.121Z" transform="translate(-24.269 -23.869)"/>
      <path id="Path_4474" data-name="Path 4474" class="cls-2" d="M83.022,67.783H29.19a5.623,5.623,0,0,1-5.59-5.59V28.79a5.623,5.623,0,0,1,5.59-5.59H83.022a5.623,5.623,0,0,1,5.59,5.59v33.4A5.58,5.58,0,0,1,83.022,67.783ZM29.19,25.862a2.954,2.954,0,0,0-2.928,2.928v33.4a2.954,2.954,0,0,0,2.928,2.928H83.022a2.954,2.954,0,0,0,2.928-2.928V28.79a2.954,2.954,0,0,0-2.928-2.928Z" transform="translate(-23.6 -23.2)"/>
    </g>
    <g id="Group_5250" data-name="Group 5250" transform="translate(1131.003 4333.711)">
      <g id="Group_5247" data-name="Group 5247">
        <path id="Path_4475" data-name="Path 4475" class="cls-1" d="M87.42,39.854a6.724,6.724,0,0,1,2.994-5.59,6.922,6.922,0,0,0-3.66-1.065,6.654,6.654,0,1,0,0,13.308,6.922,6.922,0,0,0,3.66-1.065A6.724,6.724,0,0,1,87.42,39.854Z" transform="translate(-79.501 -32.535)"/>
        <path id="Path_4476" data-name="Path 4476" class="cls-2" d="M86.52,46.839a7.32,7.32,0,1,1,0-14.639,7.2,7.2,0,0,1,3.993,1.2.679.679,0,0,1,.333.532.593.593,0,0,1-.333.532,6.1,6.1,0,0,0-2.728,4.991,5.856,5.856,0,0,0,2.728,4.991.679.679,0,0,1,.333.532.593.593,0,0,1-.333.532A6.41,6.41,0,0,1,86.52,46.839Zm0-13.308a5.989,5.989,0,1,0,0,11.978,6.3,6.3,0,0,0,2.462-.532,7.277,7.277,0,0,1,0-10.913A6.562,6.562,0,0,0,86.52,33.531Z" transform="translate(-79.2 -32.2)"/>
      </g>
      <g id="Group_5248" data-name="Group 5248" transform="translate(10.247 0.133)">
        <path id="Path_4477" data-name="Path 4477" class="cls-1" d="M99.26,33.2a6.922,6.922,0,0,0-3.66,1.065,6.714,6.714,0,0,1,0,11.179,6.922,6.922,0,0,0,3.66,1.065,6.654,6.654,0,0,0,0-13.308Z" transform="translate(-94.935 -32.668)"/>
        <path id="Path_4478" data-name="Path 4478" class="cls-2" d="M98.925,46.906a7.2,7.2,0,0,1-3.993-1.2.679.679,0,0,1-.333-.532.593.593,0,0,1,.333-.532,6.1,6.1,0,0,0,2.728-4.991,5.856,5.856,0,0,0-2.728-4.991.679.679,0,0,1-.333-.532.593.593,0,0,1,.333-.532,7.2,7.2,0,0,1,3.993-1.2,7.3,7.3,0,0,1,7.32,7.32A7.187,7.187,0,0,1,98.925,46.906Zm-2.4-1.8a6.051,6.051,0,0,0,2.462.532,5.989,5.989,0,1,0,0-11.978,6.3,6.3,0,0,0-2.462.532,7.36,7.36,0,0,1,2.462,5.456A7.471,7.471,0,0,1,96.53,45.11Z" transform="translate(-94.6 -32.4)"/>
      </g>
      <g id="Group_5249" data-name="Group 5249" transform="translate(7.32 1.098)">
        <path id="Path_4479" data-name="Path 4479" class="cls-1" d="M97.189,40.39a6.724,6.724,0,0,0-2.994-5.59,6.714,6.714,0,0,0,0,11.179A6.724,6.724,0,0,0,97.189,40.39Z" transform="translate(-90.535 -34.168)"/>
        <path id="Path_4480" data-name="Path 4480" class="cls-2" d="M93.86,46.327a.508.508,0,0,1-.333-.133,7.3,7.3,0,0,1,0-12.244.721.721,0,0,1,.732,0,7.3,7.3,0,0,1,0,12.244A2.617,2.617,0,0,1,93.86,46.327Zm0-10.979a5.956,5.956,0,0,0,0,9.449,5.956,5.956,0,0,0,0-9.449Z" transform="translate(-90.2 -33.85)"/>
      </g>
    </g>
    <g id="Group_5251" data-name="Group 5251" transform="translate(1095.004 4361.326)">
      <path id="Path_4481" data-name="Path 4481" class="cls-2" d="M88.182,75.031H25.765a.665.665,0,1,1,0-1.331h62.35a.629.629,0,0,1,.665.665A.614.614,0,0,1,88.182,75.031Z" transform="translate(-25.1 -73.7)"/>
    </g>
    <g id="Group_5252" data-name="Group 5252" transform="translate(1078.302 4312.285)">
      <ellipse id="Ellipse_421" data-name="Ellipse 421" class="cls-1" cx="19.963" cy="19.963" rx="19.963" ry="19.963" transform="translate(1.331 1.331)"/>
      <path id="Path_4482" data-name="Path 4482" class="cls-2" d="M21.293,42.587A21.293,21.293,0,1,1,42.587,21.293,21.356,21.356,0,0,1,21.293,42.587Zm0-39.925A18.632,18.632,0,1,0,39.925,21.293,18.687,18.687,0,0,0,21.293,2.662Z" transform="translate(0 0)"/>
    </g>
    <g id="Group_5253" data-name="Group 5253" transform="translate(1093.54 4320.669)">
      <path id="Path_4483" data-name="Path 4483" class="cls-2" d="M30.419,37.753V34.958a6.259,6.259,0,0,0,3.66-1.4A5.084,5.084,0,0,0,35.743,29.5a4.807,4.807,0,0,0-.932-2.928,4.482,4.482,0,0,0-1.464-1.264,5.782,5.782,0,0,0,1.131-1.065,4.038,4.038,0,0,0,.8-2.462,4.739,4.739,0,0,0-1.6-3.859,5.988,5.988,0,0,0-3.261-1.2V14.264a1.664,1.664,0,0,0-3.327,0v2.4h-3.66a.525.525,0,0,0-.532.532v17.3a.525.525,0,0,0,.532.532h3.66v2.728a1.664,1.664,0,0,0,3.327,0ZM29.554,32.1H26.294v-5.19h3.327c2,0,2.861.8,2.861,2.6a2.662,2.662,0,0,1-.732,1.93A3.211,3.211,0,0,1,29.554,32.1Zm-.333-8.052H26.294V19.52h2.861a3.8,3.8,0,0,1,2.2.532,2.045,2.045,0,0,1,.665,1.664,2.066,2.066,0,0,1-.732,1.664A2.856,2.856,0,0,1,29.222,24.045Z" transform="translate(-22.9 -12.6)"/>
    </g>
  </g>
</svg>
