<?xml version="1.0" encoding="utf-8"?>
<!-- Generator: Adobe Illustrator 18.1.0, SVG Export Plug-In . SVG Version: 6.00 Build 0)  -->
<svg version="1.1" id="Layer_1" xmlns="http://www.w3.org/2000/svg" xmlns:xlink="http://www.w3.org/1999/xlink" x="0px" y="0px"
	 viewBox="0 389.8 595.3 452.1" enable-background="new 0 389.8 595.3 452.1" xml:space="preserve">
<g id="Group_5449" transform="translate(-857.549 -170.202)">
	<path fill="#3639B4" d="M1376.4,1006.9H885.8c-15.6,0-28-12.4-28-28v-52c0-15.6,12.4-28,28-28h114.5v30.6h261.5v-30.6h114.5
		c15.6,0,28,12.4,28,28v52C1405,993.9,1392,1006.9,1376.4,1006.9z M886.5,915.9c-5.9,0-10.4,4.6-10.4,10.4v52
		c0,5.9,4.6,10.4,10.4,10.4H1377c5.9,0,10.4-4.6,10.4-10.4v-52c0-5.9-4.6-10.4-10.4-10.4h-96.9v30.6H983.4v-30.6H886.5z"/>
	<path fill="#3639B4" d="M1280.1,945.8H983.4v-30.6h-91.7V691.4c0-20.8,16.9-37.1,37.1-37.1h195.8v17.6H928.8
		c-11.1,0-19.5,9.1-19.5,19.5v206.2h91.7v30.6h261.5v-30.6h91.7V769.5h17.6v145.7h-91.7L1280.1,945.8L1280.1,945.8z"/>
	<rect x="903.4" y="932.8" fill="#3639B4" width="24.1" height="8.5"/>
	<rect x="943.8" y="932.8" fill="#3639B4" width="24.1" height="8.5"/>
	<rect x="1300.3" y="932.8" fill="#3639B4" width="24.1" height="8.5"/>
	<rect x="1340.6" y="932.8" fill="#3639B4" width="24.1" height="8.5"/>
	<path fill="#3639B4" d="M1275.5,941.9H988v-30.6h-59.9V709c0-9.8,7.8-17.6,17.6-17.6H1124v8.5H945.7c-5.2,0-9.1,3.9-9.1,9.1v193.9
		h59.9v30.6h270.6v-30.6h59.9V769.5h8.5v141.8h-59.9L1275.5,941.9L1275.5,941.9z"/>
	<path id="Path_4617" fill="none" stroke="#3639B4" stroke-width="1.989" stroke-linecap="round" stroke-linejoin="round" d="
		M1168.9,813.1"/>
	<rect x="1169.5" y="622.4" fill="#3639B4" width="229.7" height="8.5"/>
	<rect x="1169.5" y="664.1" fill="#3639B4" width="229.7" height="8.5"/>
	<rect x="1169.5" y="704.4" fill="#3639B4" width="118.4" height="8.5"/>
	<path fill="#3639B4" d="M1172.1,836.5c-6.5,0-11.7-5.9-11.7-14.3V776h-8.5c-20.2,0-36.4-16.3-36.4-36.4V596.4
		c0-20.2,16.3-36.4,36.4-36.4h264.1c20.2,0,36.4,16.3,36.4,36.4v143.1c0,20.2-16.3,36.4-36.4,36.4h-179.6
		c-10.4,10.4-47.5,48.8-54,55.3C1181.9,832.6,1178,836.5,1172.1,836.5z M1152.6,577.6c-10.4,0-18.9,8.5-18.9,18.9v143.1
		c0,10.4,8.5,18.9,18.9,18.9h16.9c4.6,0,8.5,3.9,8.5,9.1v43.6c16.3-16.3,48.8-50.1,48.8-50.1c2-2,3.9-2.6,6.5-2.6h182.8
		c10.4,0,18.9-8.5,18.9-18.9V596.4c0-10.4-8.5-18.9-18.9-18.9H1152.6z"/>
</g>
</svg>
