<svg xmlns="http://www.w3.org/2000/svg" width="62" height="63" viewBox="0 0 62 63">
    <g fill="none" fill-rule="evenodd">
        <path fill="#FAFAFA" d="M-335-2467h1440v3780H-335z"/>
        <path fill="#FFF" d="M-335-128h1440v420H-335z"/>
        <g>
            <rect width="6" height="62" x="28" y="1" fill="#3639B4" rx="3"/>
            <path fill="#EBEBF7" d="M2 6h58v45a4 4 0 0 1-4 4H6a4 4 0 0 1-4-4V6z"/>
            <path fill="#3639B4" d="M19 11c5.523 0 10 4.358 10 9.735 0 1.94-.583 3.747-1.587 5.265L19 20.735z"/>
            <path fill="#F8531E" d="M16.776 13v9.5L25 27.638C23.26 30.262 20.227 32 16.776 32 11.376 32 7 27.747 7 22.5s4.377-9.5 9.776-9.5z"/>
            <rect width="62" height="6" fill="#3639B4" rx="1"/>
            <rect width="20" height="2" x="35" y="13" fill="#FFF" rx="1"/>
            <rect width="20" height="2" x="8" y="37" fill="#FFF" rx="1"/>
            <path fill="#F8531E" d="M36 40h5v9h-5z"/>
            <path fill="#3639B4" d="M43 33h5v16h-5z"/>
            <path fill="#F8531E" d="M50 36h5v13h-5z"/>
            <rect width="20" height="2" x="35" y="18" fill="#FFF" rx="1"/>
            <rect width="20" height="2" x="8" y="42" fill="#FFF" rx="1"/>
            <rect width="20" height="2" x="35" y="23" fill="#FFF" rx="1"/>
            <rect width="20" height="2" x="8" y="47" fill="#FFF" rx="1"/>
            <rect width="11" height="2" x="35" y="28" fill="#FFF" rx="1"/>
        </g>
    </g>
</svg>
