<svg id="Layer_1" data-name="Layer 1" xmlns="http://www.w3.org/2000/svg" viewBox="0 0 188.1 49.6"><defs><style>.cls-1{fill:#fff;}.cls-2{fill:#66c;}</style></defs><title>logo-nocnoc</title><g id="_Group_" data-name="&lt;Group&gt;"><g id="_Group_2" data-name="&lt;Group&gt;"><g id="_Group_3" data-name="&lt;Group&gt;"><g id="_Group_4" data-name="&lt;Group&gt;"><path id="_Path_" data-name="&lt;Path&gt;" class="cls-1" d="M11.5,48.1l.6,1.1,11.3-5.7a6.66,6.66,0,0,0,2.2-1.8,3.84,3.84,0,0,0,.9-2.5V20.4a1.09,1.09,0,0,0-.4-.9,1.8,1.8,0,0,0-.9-.4H11.5a1.09,1.09,0,0,0-.9.4,1.49,1.49,0,0,0-.4.9V48.1a1.38,1.38,0,0,0,.6,1.1,1.67,1.67,0,0,0,1.2.1l-.5-1.2h1.2V21.6H24V39.1a1.43,1.43,0,0,1-.4,1,3.27,3.27,0,0,1-1.4,1.1L10.9,46.9l.6,1.2h0Z"/><path id="_Path_2" data-name="&lt;Path&gt;" class="cls-1" d="M11.5,48.2h1.2V23.1a1.19,1.19,0,0,1,.5-.9,2.17,2.17,0,0,1,1.4-.5H33.3a1.9,1.9,0,0,1,1.9,1.9V48.3a1.09,1.09,0,0,0,.4.9,1.49,1.49,0,0,0,.9.4h6.9a4.44,4.44,0,0,0,4.4-4.4V12a4.29,4.29,0,0,0-3.2-4.2L17.6.2A5,5,0,0,0,16.4,0a4.28,4.28,0,0,0-2.2.6l-12,7A4.41,4.41,0,0,0,0,11.4V45a4.44,4.44,0,0,0,4.4,4.4h7.1a1.09,1.09,0,0,0,.9-.4,1.49,1.49,0,0,0,.4-.9H11.5V46.9H4.4A1.9,1.9,0,0,1,2.5,45V11.4a1.89,1.89,0,0,1,.9-1.6l12-7a1.61,1.61,0,0,1,.9-.3.9.9,0,0,1,.5.1l26.9,7.6A1.92,1.92,0,0,1,45.1,12V45a1.9,1.9,0,0,1-1.9,1.9H37.6V23.5a4.44,4.44,0,0,0-4.4-4.4H14.6a4.31,4.31,0,0,0-3,1.2,3.72,3.72,0,0,0-1.3,2.8V48.2h1.2v0Z"/></g></g></g><g id="_Group_5" data-name="&lt;Group&gt;"><path id="_Path_3" data-name="&lt;Path&gt;" class="cls-2" d="M75.1,48.6Z"/><path id="_Path_4" data-name="&lt;Path&gt;" class="cls-1" d="M73.2,21.8a2.73,2.73,0,0,0-1.9.8,2.79,2.79,0,0,0-.8,2v15L57.9,22.8h0a5.5,5.5,0,0,0-.9-.7h0a2.66,2.66,0,0,0-1.2-.3,2.73,2.73,0,0,0-2.7,2.7V46.7a2.73,2.73,0,0,0,2.7,2.7,3,3,0,0,0,2-.8,2.73,2.73,0,0,0,.8-1.9V31.8L71,48.4h0a2.54,2.54,0,0,0,1,.8,4.25,4.25,0,0,0,1.1.2,2.73,2.73,0,0,0,2.7-2.7V24.5a2.73,2.73,0,0,0-.8-1.9A1.84,1.84,0,0,0,73.2,21.8Z"/><path id="_Path_5" data-name="&lt;Path&gt;" class="cls-2" d="M53.9,48.6Z"/><polygon id="_Path_6" data-name="&lt;Path&gt;" class="cls-2" points="53.9 48.7 53.9 48.6 53.9 48.6 53.9 48.7"/><path id="_Compound_Path_" data-name="&lt;Compound Path&gt;" class="cls-1" d="M94.4,30.6a9.93,9.93,0,0,0-5.1-1.3,10,10,0,0,0-5.2,1.3,9.57,9.57,0,0,0-3.6,3.6,10,10,0,0,0-1.3,5.2,10.3,10.3,0,0,0,1.3,5.2,8.91,8.91,0,0,0,3.6,3.6,10,10,0,0,0,5.2,1.3,9.79,9.79,0,0,0,8.8-4.9,10,10,0,0,0,1.3-5.2,10,10,0,0,0-1.3-5.2A11.55,11.55,0,0,0,94.4,30.6ZM91.7,43.9a5.51,5.51,0,0,1-5,0A4.24,4.24,0,0,1,85,42.1a6.37,6.37,0,0,1,0-5.4,4.24,4.24,0,0,1,1.7-1.8,5.51,5.51,0,0,1,5,0,4.24,4.24,0,0,1,1.7,1.8,6.38,6.38,0,0,1,0,5.4,4.24,4.24,0,0,1-1.7,1.8l.5.9Z"/><path id="_Path_7" data-name="&lt;Path&gt;" class="cls-1" d="M118.7,35.3a2.66,2.66,0,0,0,.3-1.2,2.2,2.2,0,0,0-.6-1.5h0a9.61,9.61,0,0,0-3.2-2.5,8.68,8.68,0,0,0-4-.8,9.69,9.69,0,0,0-5.1,1.3,10.34,10.34,0,0,0-3.6,3.6,11.12,11.12,0,0,0-1.3,5.2,9.69,9.69,0,0,0,1.3,5.1,9.57,9.57,0,0,0,3.6,3.6l.5-.9-.5.9a10,10,0,0,0,5.2,1.3,9.21,9.21,0,0,0,6.6-2.5h0a2.36,2.36,0,0,0,.7-1.6,2,2,0,0,0-.3-1.1,5.5,5.5,0,0,0-.7-.9h0a2.46,2.46,0,0,0-1.5-.5,2.87,2.87,0,0,0-1.8.7h0a4.3,4.3,0,0,1-3,.9,4.87,4.87,0,0,1-2.5-.6,4.24,4.24,0,0,1-1.7-1.8,6,6,0,0,1-.6-2.7,5.44,5.44,0,0,1,1.3-3.8,4.44,4.44,0,0,1,3.4-1.4,4.84,4.84,0,0,1,1.8.3,3.6,3.6,0,0,1,1.4,1.1h0a5.5,5.5,0,0,0,.9.7,2,2,0,0,0,1.1.2,2,2,0,0,0,1.3-.4h0A1.53,1.53,0,0,0,118.7,35.3Z"/><path id="_Path_8" data-name="&lt;Path&gt;" class="cls-1" d="M142.3,21.8a2.73,2.73,0,0,0-1.9.8,2.79,2.79,0,0,0-.8,2v15L127.1,22.9h0a5.5,5.5,0,0,0-.9-.7h0a2.66,2.66,0,0,0-1.2-.3,2.73,2.73,0,0,0-2.7,2.7V46.8a2.73,2.73,0,0,0,2.7,2.7,3,3,0,0,0,2-.8,2.73,2.73,0,0,0,.8-1.9v-15l12.5,16.7h0a2.54,2.54,0,0,0,1,.8,4.25,4.25,0,0,0,1.1.2,2.73,2.73,0,0,0,2.7-2.7V24.5a2.73,2.73,0,0,0-.8-1.9A2.37,2.37,0,0,0,142.3,21.8Z"/><path id="_Path_9" data-name="&lt;Path&gt;" class="cls-2" d="M144.2,48.6Z"/><path id="_Path_10" data-name="&lt;Path&gt;" class="cls-2" d="M123.1,48.6Z"/><path id="_Compound_Path_2" data-name="&lt;Compound Path&gt;" class="cls-1" d="M163.5,30.6a9.93,9.93,0,0,0-5.1-1.3,10,10,0,0,0-5.2,1.3,9.57,9.57,0,0,0-3.6,3.6,10,10,0,0,0-1.3,5.2,10.3,10.3,0,0,0,1.3,5.2,8.91,8.91,0,0,0,3.6,3.6,10,10,0,0,0,5.2,1.3,9.79,9.79,0,0,0,8.8-4.9,10,10,0,0,0,1.3-5.2,10,10,0,0,0-1.3-5.2A9.85,9.85,0,0,0,163.5,30.6Zm-2.6,13.3a5.51,5.51,0,0,1-5,0,4.24,4.24,0,0,1-1.7-1.8,6.38,6.38,0,0,1,0-5.4,4.24,4.24,0,0,1,1.7-1.8,5.51,5.51,0,0,1,5,0,4.24,4.24,0,0,1,1.7,1.8,6.37,6.37,0,0,1,0,5.4,4.24,4.24,0,0,1-1.7,1.8l.5.9Z"/><path id="_Path_11" data-name="&lt;Path&gt;" class="cls-1" d="M186.9,43.5h0a3,3,0,0,0-1.5-.5,2.87,2.87,0,0,0-1.8.7h0a4.3,4.3,0,0,1-3,.9,4.87,4.87,0,0,1-2.5-.6,4.24,4.24,0,0,1-1.7-1.8,6,6,0,0,1-.6-2.7,5.44,5.44,0,0,1,1.3-3.8,4.44,4.44,0,0,1,3.4-1.4,4.84,4.84,0,0,1,1.8.3,3.6,3.6,0,0,1,1.4,1.1h0a5.5,5.5,0,0,0,.9.7,2,2,0,0,0,1.1.2,2,2,0,0,0,1.3-.4h0a2.36,2.36,0,0,0,.8-.9,2.66,2.66,0,0,0,.3-1.2,2.2,2.2,0,0,0-.6-1.5h0a9.61,9.61,0,0,0-3.2-2.5,8.68,8.68,0,0,0-4-.8,9.69,9.69,0,0,0-5.1,1.3,10.34,10.34,0,0,0-3.6,3.6,11.12,11.12,0,0,0-1.3,5.2,9.69,9.69,0,0,0,1.3,5.1,9.57,9.57,0,0,0,3.6,3.6l.5-.9-.5.9a10,10,0,0,0,5.2,1.3,9.21,9.21,0,0,0,6.6-2.5h0a2.36,2.36,0,0,0,.7-1.6,2,2,0,0,0-.3-1.1C187.4,44,187.2,43.8,186.9,43.5Z"/></g></g></svg>