<?xml version="1.0" encoding="utf-8"?>
<!-- Generator: Adobe Illustrator 23.0.3, SVG Export Plug-In . SVG Version: 6.00 Build 0)  -->
<svg version="1.1" id="Capa_1" xmlns="http://www.w3.org/2000/svg" xmlns:xlink="http://www.w3.org/1999/xlink" x="0px" y="0px"
	 viewBox="0 0 1684.5 227.4" style="enable-background:new 0 0 1684.5 227.4;" xml:space="preserve">
<style type="text/css">
	.st0{fill:#0F549D;}
	.st1{fill:#B41F36;}
	.st2{fill:#329947;}
	.st3{fill:#00579F;}
	.st4{fill:#FAA61A;}
	.st5{fill:#231F20;}
	.st6{fill:#F79410;}
	.st7{fill:#FF5F00;}
	.st8{fill:#EB001B;}
	.st9{fill:#F79E1B;}
	.st10{fill:#E21836;}
	.st11{fill:#00447C;}
	.st12{fill:#007B84;}
	.st13{fill:#FEFEFE;}
</style>
<path class="st0" d="M1025.1,0h-53.7c-26.1,0-43.6,17.5-43.6,43.6v78c0,0,0,0.1,0,0.1c2.1,9.8,12.3,17.1,23.8,17.1
	c12.7,0,22.3-8.9,22.3-20.8V79.1h32.8v38.4c0,21.9-28.2,32.3-47.3,32.3c-11.3,0-22.3-3.5-30.3-9.5c-0.2-0.1-0.4-0.1-0.6-0.1
	c0,0,0,0,0,0c-0.2-0.1-0.3-0.1-0.5,0c-0.2,0.1-0.3,0.3-0.3,0.5v86c0,0.3,0.2,0.6,0.6,0.6h55.2c19.5,0,42.1-18.4,42.1-42.1V0.6
	C1025.7,0.2,1025.4,0,1025.1,0z"/>
<path class="st1" d="M1133,0h-53.1c-26.5,0-43.6,16.9-43.6,43.1v44c0,0.2,0.1,0.4,0.3,0.5c0.2,0.1,0.4,0.1,0.6-0.1
	c4.6-3.9,12.1-8.5,21.4-8.5h57.1v10.4c-13.9-3-26.7-4.4-32.9-4.4c-14.5,0-26.4,11.8-26.4,26.4l0,0.2l0,0.3
	c0,14.5,11.8,26.4,26.4,26.4c7.5,0,20.4-1.2,32.9-3.9v9.4h-57.1c-8.2,0-16-3.1-21.4-8.4c-0.2-0.2-0.4-0.2-0.6-0.1
	c-0.2,0.1-0.3,0.3-0.3,0.5v91.1c0,0.3,0.2,0.6,0.6,0.6h54.7c19.5,0,42.1-18.4,42.1-42.1V0.6C1133.5,0.3,1133.3,0,1133,0z"/>
<g>
	<path class="st2" d="M1162.3,137.2c0,0.3,0.3,0.6,0.6,0.6h23.8c6.4,0,12.2-5.8,12.2-12.2c0-6.4-5.8-12.2-12.2-12.2h-23.8
		c-0.3,0-0.6,0.2-0.6,0.6V137.2z"/>
	<path class="st2" d="M1246.4,0h-52.6c-14,0-25.4,4.7-33,13.1v0c0,0-11.1,10.8-11.1,28.6c0,0.7,0,1.3,0,1.9v15.9v19
		c0,0.3,0.2,0.6,0.6,0.6h63.8c8.8,0,16.1,7.4,16.1,16.1s-7.4,16.1-16.1,16.1c-0.3,0-0.6,0.2-0.6,0.6s0.2,0.6,0.6,0.6
		c9.9,0,17.7,6.9,17.7,15.6c0,8.9-7.6,15.6-17.7,15.6h-63.8c-0.3,0-0.6,0.2-0.6,0.6v82.5c0,0.3,0.2,0.6,0.6,0.6h54.7
		c19.5,0,42.1-18.4,42.1-42.1V0.6C1246.9,0.2,1246.7,0,1246.4,0z"/>
	<path class="st2" d="M1162.8,108.9h23.8c6.3,0,11.7-5.4,11.7-11.7c0-6.4-5.8-12.2-12.2-12.2h-23.3c-0.3,0-0.6,0.2-0.6,0.6v22.8
		C1162.3,108.7,1162.5,108.9,1162.8,108.9z"/>
</g>
<g id="g4158" transform="matrix(4.4299631,0,0,4.4299631,-81.165783,-105.04783)">
	<polygon id="polygon9" class="st3" points="61.3,65 53.2,65 58.2,33.9 66.3,33.9 	"/>
	<path id="path11" class="st3" d="M90.4,34.7c-1.6-0.6-4.1-1.3-7.2-1.3c-7.9,0-13.5,4.2-13.6,10.3c-0.1,4.5,4,6.9,7,8.4
		c3.1,1.5,4.2,2.5,4.2,3.9c0,2.1-2.5,3-4.8,3c-3.2,0-4.9-0.5-7.5-1.7l-1.1-0.5l-1.1,7c1.9,0.9,5.4,1.6,9,1.7c8.4,0,13.9-4.2,14-10.6
		c0-3.5-2.1-6.2-6.7-8.5c-2.8-1.4-4.5-2.4-4.5-3.8c0-1.3,1.5-2.7,4.6-2.7c2.6-0.1,4.5,0.6,6,1.2l0.7,0.3L90.4,34.7
		C90.4,34.7,90.4,34.7,90.4,34.7z"/>
	<path id="path13" class="st3" d="M101.1,54c0.7-1.8,3.2-8.7,3.2-8.7c0,0.1,0.7-1.8,1.1-3l0.6,2.7c0,0,1.5,7.4,1.9,9
		C106.5,54,102.6,54,101.1,54L101.1,54z M111,33.9h-6.2c-1.9,0-3.4,0.6-4.2,2.6L88.6,65h8.4c0,0,1.4-3.8,1.7-4.7c0.9,0,9.1,0,10.3,0
		c0.2,1.1,1,4.7,1,4.7h7.4L111,33.9L111,33.9L111,33.9z"/>
	<path id="path15" class="st3" d="M46.5,33.9l-7.9,21.2l-0.9-4.3c-1.5-5-6-10.3-11.1-13l7.2,27.2h8.5l12.6-31L46.5,33.9L46.5,33.9
		L46.5,33.9z"/>
	<path id="path17" class="st4" d="M31.3,33.9H18.4l-0.1,0.6c10.1,2.6,16.8,8.8,19.5,16.3L35,36.5C34.5,34.5,33.1,34,31.3,33.9
		L31.3,33.9z"/>
</g>
<g transform="translate(1565.7 -1106.8)">
	<g transform="matrix(3.1437 0 0 3.1437 -4835.7 -1027.6)">
		<g transform="matrix(1.25 0 0 -1.25 1102.5 727.74)">
			<path class="st5" d="M159-17.5v-0.1h0.1c0,0,0.1,0,0.1,0c0,0,0,0,0,0.1s0,0,0,0.1c0,0,0,0-0.1,0H159z M159.1-17.4
				c0.1,0,0.1,0,0.2,0s0.1-0.1,0.1-0.1c0,0,0-0.1,0-0.1c0,0-0.1,0-0.1-0.1l0.2-0.2h-0.1l-0.2,0.2H159V-18h-0.1v0.6H159.1z
				 M159.1-18.2c0.1,0,0.1,0,0.2,0c0.1,0,0.1,0.1,0.1,0.1c0,0,0.1,0.1,0.1,0.1c0,0.1,0,0.1,0,0.2c0,0.1,0,0.1,0,0.2
				c0,0.1-0.1,0.1-0.1,0.1c0,0-0.1,0.1-0.1,0.1c-0.1,0-0.1,0-0.2,0c-0.1,0-0.1,0-0.2,0c-0.1,0-0.1-0.1-0.1-0.1s-0.1-0.1-0.1-0.1
				c0-0.1,0-0.1,0-0.2c0-0.1,0-0.1,0-0.2c0-0.1,0.1-0.1,0.1-0.1c0,0,0.1-0.1,0.1-0.1C159-18.2,159-18.2,159.1-18.2 M159.1-17.1
				c0.1,0,0.2,0,0.2,0c0.1,0,0.1-0.1,0.2-0.1c0.1-0.1,0.1-0.1,0.1-0.2c0-0.1,0-0.1,0-0.2c0-0.1,0-0.2,0-0.2c0-0.1-0.1-0.1-0.1-0.2
				c-0.1-0.1-0.1-0.1-0.2-0.1c-0.1,0-0.2,0-0.2,0c-0.1,0-0.2,0-0.2,0c-0.1,0-0.1,0.1-0.2,0.1c-0.1,0.1-0.1,0.1-0.1,0.2
				c0,0.1,0,0.1,0,0.2c0,0.1,0,0.2,0,0.2c0,0.1,0.1,0.1,0.1,0.2c0.1,0.1,0.1,0.1,0.2,0.1C158.9-17.1,159-17.1,159.1-17.1 M103.2-15
				c0,1.1,0.7,1.9,1.8,1.9c1.1,0,1.8-0.8,1.8-1.9s-0.7-1.9-1.8-1.9C103.9-16.9,103.2-16,103.2-15 M108-15v3h-1.3v-0.7
				c-0.4,0.5-1,0.9-1.9,0.9c-1.7,0-3-1.3-3-3.1c0-1.8,1.3-3.1,3-3.1c0.9,0,1.5,0.3,1.9,0.9V-18h1.3V-15z M152.1-15
				c0,1.1,0.7,1.9,1.8,1.9c1.1,0,1.8-0.8,1.8-1.9s-0.7-1.9-1.8-1.9C152.8-16.9,152.1-16,152.1-15 M156.9-15v5.4h-1.3v-3.1
				c-0.4,0.5-1,0.9-1.9,0.9c-1.7,0-3-1.3-3-3.1c0-1.8,1.3-3.1,3-3.1c0.9,0,1.5,0.3,1.9,0.9V-18h1.3V-15z M124.2-13
				c0.8,0,1.4-0.5,1.5-1.5h-3.1C122.8-13.6,123.3-13,124.2-13 M124.2-11.8c-1.8,0-3-1.3-3-3.1c0-1.9,1.3-3.1,3.1-3.1
				c0.9,0,1.7,0.2,2.5,0.8l-0.6,1c-0.5-0.4-1.1-0.6-1.7-0.6c-0.8,0-1.6,0.4-1.8,1.5h4.4c0,0.2,0,0.3,0,0.5
				C127.1-13.1,125.9-11.8,124.2-11.8 M140-15c0,1.1,0.7,1.9,1.8,1.9c1.1,0,1.8-0.8,1.8-1.9s-0.7-1.9-1.8-1.9
				C140.7-16.9,140-16,140-15 M144.8-15v3h-1.3v-0.7c-0.4,0.5-1,0.9-1.9,0.9c-1.7,0-3-1.3-3-3.1c0-1.8,1.3-3.1,3-3.1
				c0.9,0,1.5,0.3,1.9,0.9V-18h1.3V-15z M132.6-15c0-1.8,1.3-3.1,3.2-3.1c0.9,0,1.5,0.2,2.2,0.7l-0.6,1.1c-0.5-0.4-1-0.5-1.6-0.5
				c-1,0-1.8,0.8-1.8,1.9s0.8,1.9,1.8,1.9c0.6,0,1.1-0.2,1.6-0.5l0.6,1.1c-0.7,0.5-1.3,0.7-2.2,0.7C133.9-11.8,132.6-13.2,132.6-15
				 M149.4-11.8c-0.8,0-1.2-0.4-1.6-0.9v0.7h-1.3v-6h1.3v3.4c0,1,0.4,1.5,1.3,1.5c0.3,0,0.5,0,0.8-0.2l0.4,1.2
				C150.1-11.9,149.7-11.8,149.4-11.8 M114.5-12.5c-0.6,0.4-1.5,0.6-2.4,0.6c-1.5,0-2.5-0.7-2.5-1.9c0-1,0.7-1.6,2.1-1.8l0.6-0.1
				c0.7-0.1,1.1-0.3,1.1-0.6c0-0.5-0.5-0.7-1.4-0.7c-0.9,0-1.6,0.3-2,0.6l-0.6-1c0.7-0.5,1.6-0.8,2.6-0.8c1.7,0,2.7,0.8,2.7,2
				c0,1.1-0.8,1.6-2.1,1.8l-0.6,0.1c-0.6,0.1-1,0.2-1,0.6c0,0.4,0.4,0.7,1.1,0.7c0.8,0,1.5-0.3,1.9-0.5L114.5-12.5z M131.3-11.8
				c-0.8,0-1.2-0.4-1.6-0.9v0.7h-1.3v-6h1.3v3.4c0,1,0.4,1.5,1.3,1.5c0.3,0,0.5,0,0.8-0.2l0.4,1.2C131.9-11.9,131.6-11.8,131.3-11.8
				 M120.2-12h-2.1v1.8h-1.3V-12h-1.2v-1.2h1.2v-2.7c0-1.4,0.5-2.2,2.1-2.2c0.6,0,1.2,0.2,1.6,0.5l-0.4,1.1
				c-0.4-0.2-0.8-0.3-1.2-0.3c-0.7,0-0.9,0.4-0.9,1v2.7h2.1L120.2-12z M100.7-18v3.8c0,1.4-0.9,2.4-2.4,2.4c-0.8,0-1.6-0.2-2.1-1.1
				c-0.4,0.7-1.1,1.1-2,1.1c-0.6,0-1.3-0.2-1.8-0.9v0.7h-1.3v-6h1.3v3.3c0,1,0.6,1.6,1.5,1.6c0.9,0,1.3-0.6,1.3-1.6V-18h1.3v3.3
				c0,1,0.6,1.6,1.5,1.6c0.9,0,1.3-0.6,1.3-1.6V-18L100.7-18z"/>
		</g>
		<g transform="matrix(1.25 0 0 -1.25 1103.2 710.77)">
			<path class="st6" d="M159.2-11.6v0.9H159l-0.3-0.6l-0.3,0.6h-0.2v-0.9h0.2v0.7l0.2-0.6h0.2l0.2,0.6v-0.7H159.2z M157.8-11.6v0.7
				h0.3v0.1h-0.7v-0.1h0.3v-0.7H157.8z"/>
		</g>
		<path class="st7" d="M1269.8,730h-24.7v-44.4h24.7V730z"/>
		<g transform="matrix(1.25 0 0 -1.25 1064.5 698.59)">
			<path class="st8" d="M145.8-7.4c0,7.2,3.4,13.6,8.6,17.7c-3.8,3-8.7,4.8-13.9,4.8c-12.5,0-22.6-10.1-22.6-22.6S128-30,140.5-30
				c5.3,0,10.1,1.8,13.9,4.8C149.1-21,145.8-14.6,145.8-7.4"/>
		</g>
		<g transform="matrix(1.25 0 0 -1.25 1103.8 698.59)">
			<path class="st9" d="M159.4-7.4c0-12.5-10.1-22.6-22.6-22.6c-5.3,0-10.1,1.8-13.9,4.8c5.2,4.1,8.6,10.5,8.6,17.7
				s-3.4,13.6-8.6,17.7c3.8,3,8.7,4.8,13.9,4.8C149.3,15.2,159.4,5.1,159.4-7.4"/>
		</g>
	</g>
</g>
<g>
	<path class="st10" d="M1412.8,8h84.3c11.8,0,19.1,9.6,16.3,21.4L1474.2,198c-2.8,11.8-14.6,21.4-26.3,21.4h-84.3
		c-11.8,0-19.1-9.6-16.3-21.4l39.3-168.6C1389.2,17.6,1401,8,1412.8,8"/>
	<path class="st11" d="M1490.1,8h97c11.8,0,6.5,9.6,3.7,21.4L1551.5,198c-2.8,11.8-1.9,21.4-13.7,21.4h-97
		c-11.8,0-19.1-9.6-16.3-21.4l39.3-168.6C1466.5,17.6,1478.3,8,1490.1,8"/>
	<path class="st12" d="M1583.2,8h84.3c11.8,0,19.1,9.6,16.3,21.4L1644.6,198c-2.8,11.8-14.6,21.4-26.4,21.4H1534
		c-11.8,0-19.1-9.6-16.3-21.4l39.3-168.6C1559.6,17.6,1571.4,8,1583.2,8"/>
	<path class="st13" d="M1434.8,62c-8.7,0.1-11.2,0-12.1-0.2c-0.3,1.5-6.2,28.5-6.2,28.5c-1.3,5.5-2.2,9.4-5.3,11.9
		c-1.8,1.5-3.8,2.2-6.2,2.2c-3.8,0-6.1-1.9-6.5-5.5l-0.1-1.2c0,0,1.2-7.3,1.2-7.4c0,0,6.1-24.6,7.2-27.9c0.1-0.2,0.1-0.3,0.1-0.4
		c-12,0.1-14.1,0-14.2-0.2c-0.1,0.3-0.4,1.8-0.4,1.8l-6.3,27.7l-0.5,2.4l-1,7.7c0,2.3,0.4,4.1,1.3,5.7c2.9,5,11,5.7,15.6,5.7
		c5.9,0,11.5-1.3,15.3-3.6c6.5-3.9,8.2-9.9,9.8-15.3l0.7-2.8c0,0,6.3-25.6,7.4-28.9C1434.7,62.2,1434.7,62.1,1434.8,62z
		 M1456.3,82.6c-1.5,0-4.3,0.4-6.8,1.6c-0.9,0.5-1.8,1-2.7,1.5l0.8-3l-0.4-0.5c-5.3,1.1-6.5,1.2-11.4,1.9l-0.4,0.3
		c-0.6,4.7-1.1,8.3-3.2,17.6c-0.8,3.4-1.6,6.9-2.5,10.3l0.2,0.4c5-0.3,6.6-0.3,10.9-0.2l0.4-0.4c0.6-2.8,0.6-3.5,1.9-9.3
		c0.6-2.7,1.8-8.7,2.4-10.9c1.1-0.5,2.2-1,3.2-1c2.4,0,2.2,2.1,2.1,3c-0.1,1.4-1,6.1-1.9,10.1l-0.6,2.6c-0.4,1.9-0.9,3.8-1.3,5.7
		l0.2,0.4c5-0.3,6.5-0.3,10.7-0.2l0.5-0.4c0.8-4.4,1-5.6,2.3-12.1l0.7-3c1.3-5.8,2-8.8,1-11.2C1461.2,83.3,1458.6,82.6,1456.3,82.6z
		 M1480.4,88.7c-2.6,0.5-4.3,0.8-6,1.1c-1.7,0.3-3.3,0.5-5.8,0.9l-0.2,0.2l-0.2,0.1c-0.3,1.9-0.5,3.5-0.8,5.5
		c-0.3,2-0.8,4.3-1.5,7.5c-0.6,2.5-0.9,3.4-1.2,4.2c-0.3,0.9-0.7,1.7-1.3,4.2l0.2,0.2l0.1,0.2c2.4-0.1,3.9-0.2,5.5-0.2
		c1.6-0.1,3.3,0,5.8,0l0.2-0.2l0.2-0.2c0.4-2.2,0.4-2.8,0.7-3.9c0.2-1.2,0.6-2.8,1.6-7c0.4-2,0.9-4,1.4-6.1c0.5-2,1-4,1.5-6.1
		l-0.1-0.2L1480.4,88.7z M1480.4,80.5c-2.4-1.4-6.6-1-9.4,1c-2.8,1.9-3.1,4.6-0.8,6.1c2.4,1.4,6.6,1,9.4-1
		C1482.4,84.6,1482.8,81.9,1480.4,80.5z M1494.9,113.2c4.8,0,9.8-1.3,13.5-5.3c2.9-3.2,4.2-8,4.6-10c1.5-6.5,0.3-9.6-1.1-11.4
		c-2.2-2.8-6.1-3.7-10.2-3.7c-2.4,0-8.2,0.2-12.8,4.4c-3.3,3-4.8,7.1-5.7,11c-0.9,4-2,11.2,4.6,13.9
		C1490,113,1493,113.2,1494.9,113.2z M1494.5,98.6c1.1-4.9,2.4-9.1,5.8-9.1c2.6,0,2.8,3.1,1.7,8c-0.2,1.1-1.2,5.2-2.5,6.9
		c-0.9,1.3-2,2.1-3.2,2.1c-0.4,0-2.5,0-2.5-3.1C1493.8,101.8,1494.1,100.3,1494.5,98.6z M1525.2,112.6l0.4-0.4
		c0.5-2.8,0.6-3.5,1.8-9.3c0.6-2.7,1.8-8.7,2.4-10.9c1.1-0.5,2.2-1,3.2-1c2.4,0,2.1,2.1,2,3c-0.1,1.4-1,6.1-1.9,10.1l-0.6,2.6
		c-0.4,1.9-0.9,3.8-1.3,5.7l0.2,0.4c5-0.3,6.4-0.3,10.7-0.2l0.5-0.4c0.7-4.4,0.9-5.6,2.3-12.1l0.7-3c1.3-5.8,2-8.8,1-11.2
		c-1.1-2.7-3.7-3.3-6-3.3c-1.5,0-4.3,0.4-6.8,1.6c-0.9,0.5-1.8,1-2.7,1.5l0.8-3l-0.4-0.5c-5.3,1.1-6.5,1.2-11.4,1.9l-0.4,0.3
		c-0.6,4.7-1.1,8.3-3.2,17.6c-0.8,3.4-1.6,6.9-2.5,10.3l0.2,0.4C1519.3,112.5,1520.8,112.5,1525.2,112.6z M1561.7,112.8
		c0.3-1.5,2.2-10.6,2.2-10.6c0,0,1.6-6.6,1.7-6.9c0,0,0.5-0.7,1-1h0.7c6.9,0,14.7,0,20.8-4.5c4.2-3.1,7-7.6,8.3-13.2
		c0.3-1.4,0.6-3,0.6-4.6c0-2.1-0.4-4.2-1.7-5.9c-3.1-4.4-9.3-4.4-16.5-4.5c0,0-3.5,0-3.5,0c-9.2,0.1-12.8,0.1-14.4-0.1
		c-0.1,0.7-0.4,1.9-0.4,1.9s-3.3,15.2-3.3,15.2c0,0-7.9,32.4-8.2,33.9C1557,112.6,1560.3,112.6,1561.7,112.8z M1567.8,85.7
		c0,0,3.5-15.2,3.5-15.1l0.1-0.8l0-0.6l1.4,0.1c0,0,7.2,0.6,7.4,0.6c2.8,1.1,4,3.9,3.2,7.6c-0.7,3.4-2.9,6.2-5.8,7.6
		c-2.3,1.2-5.2,1.3-8.1,1.3h-1.9L1567.8,85.7z M1589.5,98.8c-0.9,3.9-2,11.1,4.6,13.7c2.1,0.9,4,1.2,5.9,1.1c2-0.1,3.9-1.1,5.6-2.6
		c-0.2,0.6-0.3,1.2-0.5,1.8l0.3,0.4c4.7-0.2,6.2-0.2,11.3-0.2l0.5-0.4c0.7-4.4,1.5-8.7,3.4-17.1c0.9-4,1.9-8,2.9-12l-0.2-0.4
		c-5.3,1-6.7,1.2-11.8,1.9l-0.4,0.3c-0.1,0.4-0.1,0.8-0.2,1.2c-0.8-1.3-1.9-2.4-3.7-3.1c-2.3-0.9-7.6,0.3-12.1,4.4
		C1591.9,90.9,1590.4,94.9,1589.5,98.8z M1600.6,99.1c1.1-4.8,2.4-9,5.8-9c2.1,0,3.3,2,3,5.3c-0.2,0.8-0.4,1.7-0.6,2.7
		c-0.3,1.4-0.7,2.9-1.1,4.3c-0.4,1-0.8,1.9-1.2,2.5c-0.9,1.2-2.9,2-4.1,2c-0.3,0-2.4,0-2.5-3.1
		C1599.9,102.4,1600.2,100.8,1600.6,99.1z M1658.7,83.1l-0.4-0.5c-5.2,1.1-6.2,1.2-11,1.9l-0.4,0.4c0,0.1,0,0.1-0.1,0.2l0-0.1
		c-3.6,8.3-3.5,6.5-6.4,13c0-0.3,0-0.5,0-0.8l-0.7-14.1l-0.5-0.5c-5.5,1.1-5.6,1.2-10.7,1.9l-0.4,0.4c-0.1,0.2-0.1,0.4-0.1,0.6
		l0,0.1c0.6,3.2,0.5,2.5,1.1,7.6c0.3,2.5,0.7,5,1,7.5c0.5,4.1,0.8,6.2,1.4,12.5c-3.4,5.6-4.2,7.8-7.5,12.7l0,0l-2.3,3.7
		c-0.3,0.4-0.5,0.7-0.8,0.8c-0.4,0.2-0.9,0.2-1.5,0.2h-1.3l-1.9,6.4l6.6,0.1c3.8,0,6.3-1.8,7.6-4.2l4.1-7.1h-0.1l0.4-0.5
		C1637.6,119.2,1658.7,83.1,1658.7,83.1z M1589.5,166.5h-2.8l10.3-34h3.4l1.1-3.5l0.1,3.9c-0.1,2.4,1.8,4.5,6.7,4.2h5.8l2-6.6h-2.2
		c-1.2,0-1.8-0.3-1.8-1l-0.1-4h-10.7v0c-3.4,0.1-13.7,0.3-15.8,0.9c-2.5,0.6-5.2,2.6-5.2,2.6l1-3.5h-10l-2.1,7L1559,167h-2l-2,6.5
		h19.9l-0.7,2.2h9.8l0.6-2.2h2.7L1589.5,166.5z M1581.4,139.4c-1.6,0.4-4.6,1.8-4.6,1.8l2.6-8.7h7.9l-1.9,6.3
		C1585.5,138.8,1583,138.9,1581.4,139.4z M1581.5,151.8c0,0-2.5,0.3-4.1,0.7c-1.6,0.5-4.6,2-4.6,2l2.7-9h8L1581.5,151.8z
		 M1577.1,166.6h-7.9l2.3-7.6h7.9L1577.1,166.6z M1596.2,145.5h11.5l-1.6,5.3h-11.6l-1.7,5.8h10.2l-7.7,10.8c-0.5,0.8-1,1.1-1.6,1.3
		c-0.5,0.3-1.2,0.6-2.1,0.6h-2.8l-1.9,6.4h7.4c3.8,0,6.1-1.7,7.8-4l5.3-7.2l1.1,7.3c0.2,1.4,1.2,2.2,1.9,2.5c0.7,0.4,1.5,1,2.6,1.1
		c1.2,0,2,0.1,2.5,0.1h3.6l2.2-7.1h-1.4c-0.8,0-2.2-0.1-2.5-0.4c-0.2-0.3-0.2-0.8-0.4-1.5l-1.1-7.3h-4.7l2.1-2.5h11.6l1.8-5.8h-10.7
		l1.7-5.3h10.7l2-6.6h-31.9L1596.2,145.5z M1499.4,168.1l2.7-8.9h11l2-6.6h-11l1.7-5.5h10.8l2-6.4h-26.9l-2,6.4h6.1l-1.6,5.5h-6.1
		l-2,6.7h6.1l-3.6,11.8c-0.5,1.6,0.2,2.2,0.7,2.9c0.5,0.7,0.9,1.2,2,1.4c1.1,0.2,1.8,0.4,2.8,0.4h12.4l2.2-7.3l-5.5,0.8
		C1502.1,169.2,1499.1,169,1499.4,168.1z M1500.7,125.5l-2.8,5c-0.6,1.1-1.1,1.8-1.6,2.1c-0.4,0.3-1.3,0.4-2.5,0.4h-1.5l-1.9,6.4
		h4.8c2.3,0,4.1-0.9,5-1.3c0.9-0.5,1.2-0.2,1.9-0.9l1.6-1.4h15.1l2-6.7h-11l1.9-3.7H1500.7z M1523,168.2c-0.3-0.4-0.1-1,0.3-2.4
		l4.1-13.6h14.7c2.1,0,3.7-0.1,4.7-0.1c1.1-0.1,2.2-0.5,3.5-1.2c1.3-0.7,2-1.5,2.6-2.4c0.6-0.9,1.7-2.8,2.5-5.7l5.2-17.3l-15.2,0.1
		c0,0-4.7,0.7-6.7,1.5c-2.1,0.9-5.1,3.2-5.1,3.2l1.4-4.7h-9.4l-13.2,43.6c-0.5,1.7-0.8,2.9-0.9,3.7c0,0.8,1,1.6,1.7,2.2
		c0.8,0.6,2,0.5,3.1,0.6c1.2,0.1,2.8,0.1,5.1,0.1h7.2l2.2-7.5l-6.5,0.6C1523.7,168.9,1523.2,168.5,1523,168.2z M1530.1,143h15.4
		l-1,3.1c-0.1,0.1-0.5-0.2-2,0h-13.3L1530.1,143z M1533.1,132.7h15.5l-1.1,3.7c0,0-7.3-0.1-8.5,0.1c-5.2,0.9-8.2,3.6-8.2,3.6
		L1533.1,132.7z M1544.8,156.3c-0.1,0.5-0.3,0.7-0.6,0.9c-0.3,0.2-0.8,0.3-1.6,0.3h-2.2l0.1-3.7h-9.1l-0.4,18.3
		c0,1.3,0.1,2.1,1.1,2.7c1,0.8,3.9,0.9,7.9,0.9h5.7l2.1-6.8l-5,0.3l-1.7,0.1c-0.2-0.1-0.4-0.2-0.7-0.4c-0.2-0.2-0.6-0.1-0.5-1.4
		l0-4.7l5.2-0.2c2.8,0,4-0.9,5.1-1.8c1-0.8,1.3-1.8,1.7-3.1l0.9-4.1h-7.2L1544.8,156.3z"/>
</g>
</svg>
