<svg xmlns="http://www.w3.org/2000/svg" viewBox="0 0 95.621 61.618">
  <defs>
    <style>
      .cls-1 {
        fill: #fff;
      }

      .cls-2 {
        fill: #3639b4;
      }
    </style>
  </defs>
  <g id="_Graphic_Shipping" data-name=" Graphic_Shipping" transform="translate(-146 -4319.84)">
    <g id="Group_5198" data-name="Group 5198" transform="translate(223.612 4338.871)">
      <path id="Path_4425" data-name="Path 4425" class="cls-1" d="M119.886,29.5c1.6,0,4.458,1.73,5.39,3.061l5.523,7.985a13.874,13.874,0,0,1,2.129,4.858H119.021a1.425,1.425,0,0,1-1.264-1.93Z" transform="translate(-116.982 -28.901)"/>
      <path id="Path_4426" data-name="Path 4426" class="cls-2" d="M132.582,45.834H118.675a2.081,2.081,0,0,1-1.664-.865,2.183,2.183,0,0,1-.266-1.93l2.2-13.907a.648.648,0,0,1,.665-.532h.067c1.863,0,4.858,1.863,5.922,3.394l5.523,7.985a15.881,15.881,0,0,1,2.262,5.057.679.679,0,0,1-.133.6C133.115,45.834,132.782,45.834,132.582,45.834Zm-12.51-15.9L118.01,43.306v.133a.915.915,0,0,0,.067.732.679.679,0,0,0,.532.333h13.042a14.234,14.234,0,0,0-1.8-3.793l-5.523-7.985A8.422,8.422,0,0,0,120.072,29.931Zm-2.728,13.242Z" transform="translate(-116.636 -28.6)"/>
    </g>
    <g id="Group_5199" data-name="Group 5199" transform="translate(166.894 4353.577)">
      <path id="Path_4427" data-name="Path 4427" class="cls-2" d="M42.047,69.931H37.522c-2.063,0-6.122-1.73-6.122-4.392V52.031a1.331,1.331,0,1,1,2.662,0V65.539c0,.532,2.063,1.73,3.46,1.73h4.525a1.331,1.331,0,1,1,0,2.662Z" transform="translate(-31.4 -50.7)"/>
    </g>
    <g id="Group_5200" data-name="Group 5200" transform="translate(212.875 4338.472)">
      <path id="Path_4428" data-name="Path 4428" class="cls-2" d="M124.921,62.336h-9.516a1.331,1.331,0,1,1,0-2.662h9.516a1.7,1.7,0,0,0,1.6-1.73v-9.05a13.748,13.748,0,0,0-2.4-7.719L118.6,33.19a7.727,7.727,0,0,0-4.259-2.529l-12.51.133h0a1.331,1.331,0,0,1,0-2.662L114.341,28h.067c2.129,0,5.323,2,6.455,3.66l5.523,7.985a16.858,16.858,0,0,1,2.861,9.249v9.05A4.374,4.374,0,0,1,124.921,62.336Z" transform="translate(-100.5 -28)"/>
    </g>
    <g id="Group_5201" data-name="Group 5201" transform="translate(190.117 4370.146)">
      <path id="Path_4429" data-name="Path 4429" class="cls-2" d="M90.588,78.262H67.631a1.331,1.331,0,1,1,0-2.662H90.654a1.335,1.335,0,0,1,1.331,1.331A1.351,1.351,0,0,1,90.588,78.262Z" transform="translate(-66.3 -75.6)"/>
    </g>
    <g id="Group_5202" data-name="Group 5202" transform="translate(155.525 4319.84)">
      <path id="Path_4430" data-name="Path 4430" class="cls-1" d="M25.735,2H78.37c2.262,0,3.859,1.464,3.593,3.194L77.105,37.8c-.266,1.73-2.329,3.194-4.525,3.194h-52.7c-2.2,0-3.859-1.4-3.593-3.194L21.143,5.194C21.41,3.4,23.472,2,25.735,2Z" transform="translate(-14.965 -0.669)"/>
      <path id="Path_4431" data-name="Path 4431" class="cls-2" d="M71.864,41.655H19.229a5.062,5.062,0,0,1-3.993-1.664A3.585,3.585,0,0,1,14.371,37L19.229,4.392C19.562,1.863,22.157,0,25.085,0H77.719a5.062,5.062,0,0,1,3.993,1.664,3.585,3.585,0,0,1,.865,2.994L77.719,37.263C77.387,39.726,74.792,41.655,71.864,41.655ZM25.085,2.662c-1.73,0-3.061,1.065-3.194,2.063L17.033,37.33a1.048,1.048,0,0,0,.266.865,2.611,2.611,0,0,0,2,.732H71.93c1.664,0,3.061-1.065,3.194-2.063L79.982,4.259a1.048,1.048,0,0,0-.266-.865,2.611,2.611,0,0,0-2-.732H25.085Z" transform="translate(-14.314)"/>
    </g>
    <g id="Group_5203" data-name="Group 5203" transform="translate(202.477 4326.427)">
      <path id="Path_4432" data-name="Path 4432" class="cls-1" d="M87.626,11H98.139c.4,0,.732.266.665.6l-.932,6.188a.882.882,0,0,1-.865.6H86.561c-.4,0-.732-.266-.665-.6l.932-6.188c0-.333.4-.6.8-.6Z" transform="translate(-85.213 -10.268)"/>
      <path id="Path_4433" data-name="Path 4433" class="cls-2" d="M96.736,18.684H86.222a1.57,1.57,0,0,1-1.065-.466,1.192,1.192,0,0,1-.266-.932l.932-6.188a1.521,1.521,0,0,1,1.53-1.2H97.867a1.57,1.57,0,0,1,1.065.466,1.192,1.192,0,0,1,.266.932l-.932,6.188A1.577,1.577,0,0,1,96.736,18.684ZM86.222,17.353H96.736a.292.292,0,0,0,.2-.067L97.8,11.3H87.287a.291.291,0,0,0-.2.067ZM97.867,11.3Z" transform="translate(-84.874 -9.9)"/>
    </g>
    <g id="Group_5204" data-name="Group 5204" transform="translate(217.932 4370.079)">
      <path id="Path_4434" data-name="Path 4434" class="cls-1" d="M111.762,76.6a2.662,2.662,0,1,1-2.662,2.662,2.714,2.714,0,0,1,2.662-2.662Z" transform="translate(-108.435 -75.868)"/>
      <path id="Path_4435" data-name="Path 4435" class="cls-2" d="M111.427,82.154a3.337,3.337,0,0,1-3.327-3.327,3.327,3.327,0,1,1,3.327,3.327Zm0-5.257a2,2,0,0,0-2,2,2,2,0,1,0,2-2Z" transform="translate(-108.1 -75.5)"/>
    </g>
    <g id="Group_5205" data-name="Group 5205" transform="translate(181.4 4370.079)">
      <path id="Path_4436" data-name="Path 4436" class="cls-1" d="M56.862,76.6A2.662,2.662,0,1,1,54.2,79.262,2.669,2.669,0,0,1,56.862,76.6Z" transform="translate(-53.535 -75.868)"/>
      <path id="Path_4437" data-name="Path 4437" class="cls-2" d="M56.527,82.154A3.337,3.337,0,0,1,53.2,78.827a3.327,3.327,0,0,1,6.654,0A3.337,3.337,0,0,1,56.527,82.154Zm0-5.257a2,2,0,0,0-2,2,2,2,0,0,0,3.993,0A2,2,0,0,0,56.527,76.9Z" transform="translate(-53.2 -75.5)"/>
    </g>
    <g id="Group_5206" data-name="Group 5206" transform="translate(176.676 4365.355)">
      <path id="Path_4438" data-name="Path 4438" class="cls-2" d="M54.152,84.5A8.052,8.052,0,1,1,62.2,76.452,8.037,8.037,0,0,1,54.152,84.5Zm0-13.441a5.39,5.39,0,1,0,5.39,5.39A5.368,5.368,0,0,0,54.152,71.062Z" transform="translate(-46.1 -68.4)"/>
    </g>
    <g id="Group_5207" data-name="Group 5207" transform="translate(213.208 4365.355)">
      <path id="Path_4439" data-name="Path 4439" class="cls-2" d="M109.052,84.5a8.052,8.052,0,1,1,8.052-8.052A8.037,8.037,0,0,1,109.052,84.5Zm0-13.441a5.39,5.39,0,1,0,5.39,5.39A5.368,5.368,0,0,0,109.052,71.062Z" transform="translate(-101 -68.4)"/>
    </g>
    <g id="Group_5208" data-name="Group 5208" transform="translate(146 4346.922)">
      <line id="Line_483" data-name="Line 483" class="cls-1" x1="21.094" transform="translate(0.665 0.665)"/>
      <path id="Path_4440" data-name="Path 4440" class="cls-2" d="M21.759,42.031H.665a.665.665,0,1,1,0-1.331H21.759a.665.665,0,1,1,0,1.331Z" transform="translate(0 -40.7)"/>
    </g>
    <g id="Group_5209" data-name="Group 5209" transform="translate(149.993 4352.246)">
      <line id="Line_484" data-name="Line 484" class="cls-1" x1="21.094" transform="translate(0.665 0.665)"/>
      <path id="Path_4441" data-name="Path 4441" class="cls-2" d="M27.759,50.031H6.665a.665.665,0,1,1,0-1.331H27.759a.665.665,0,1,1,0,1.331Z" transform="translate(-6 -48.7)"/>
    </g>
  </g>
</svg>
