<?xml version="1.0" standalone="no"?>
<!DOCTYPE svg PUBLIC "-//W3C//DTD SVG 1.1//EN" "http://www.w3.org/Graphics/SVG/1.1/DTD/svg11.dtd" >
<svg xmlns="http://www.w3.org/2000/svg">
<metadata>Generated by IcoMoon</metadata>
<defs>
<font id="icomoon" horiz-adv-x="1024">
<font-face units-per-em="1024" ascent="960" descent="-64" />
<missing-glyph horiz-adv-x="1024" />
<glyph unicode="&#x20;" horiz-adv-x="512" d="" />
<glyph unicode="&#xe900;" glyph-name="cart" horiz-adv-x="965" d="M20.439 919.122c-11.037-22.483-20.439-41.696-20.439-42.513s29.024-16.76 64.588-35.155c35.155-18.395 65.814-35.155 68.267-37.199 2.044-2.044 29.024-150.432 59.273-329.887l55.594-325.8 696.565-2.044v85.844h-620.532l-6.541 35.564c-3.679 20.030-6.541 39.243-6.541 43.331 0 6.541 17.169 6.949 305.769 6.949h305.769l21.257 281.242c11.855 154.52 21.665 284.104 21.257 288.192 0 6.541-21.257 6.949-388.752 6.949h-388.752l-60.091 26.98c-32.703 15.125-65.814 29.841-72.763 32.703l-13.49 5.723-20.439-40.878zM853.538 615.805c-8.176-106.283-15.125-193.763-15.125-194.172-0.409-0.818-122.226-1.226-271.023-1.226h-271.023l-26.162 181.091c-14.307 99.334-26.98 186.814-28.206 194.172l-2.044 13.081h628.707l-15.125-192.945zM386.299 114.229c-49.054-22.892-68.675-78.077-44.557-126.723 30.659-60.909 109.145-69.493 154.111-16.351 40.469 47.419 22.074 120.591-36.79 145.527-18.804 7.767-53.55 6.541-72.763-2.453zM728.45 117.499c-21.665-6.541-48.236-35.973-56.003-62.544-26.98-91.976 86.662-159.016 154.52-91.158 46.192 46.192 31.885 123.044-27.797 150.432-17.578 8.176-48.645 9.402-70.719 3.27z" />
<glyph unicode="&#xe901;" glyph-name="cart-add" d="M21.433 926.264c-8.335-18.654-15.479-35.324-15.479-37.309 0-1.588 33.736-19.448 75.411-39.293 59.932-28.974 75.808-38.102 77.395-45.247 0.794-5.16 27.783-153.6 59.535-330.617 31.752-176.62 58.741-326.251 59.932-332.205l2.381-11.113h693.78v87.318h-625.91l-6.747 46.437c-3.969 25.798-7.938 50.803-9.129 55.566l-1.984 9.129h321.885c177.017 0 321.885 1.191 321.885 3.175 0 1.588 9.922 119.864 21.829 262.747s21.829 265.922 21.829 273.067v12.701h-803.324l-84.143 39.69c-46.040 21.829-86.127 39.69-88.509 39.69-2.778 0-11.907-15.082-20.639-33.736zM929.141 772.664c-3.175-26.989-30.164-341.333-30.164-350.065 0-5.953-23.417-6.35-289.736-6.35-229.805 0-289.736 1.191-289.736 5.16 0 2.381-13.495 86.524-29.767 186.543s-29.767 182.574-29.767 183.764c0 0.794 151.219 1.588 335.777 1.588h335.38l-1.984-20.639zM573.519 705.984v-59.535h-115.101v-87.318h115.101v-115.101h87.318v115.101h115.101v87.318h-115.101v119.070h-87.318v-59.535zM363.957 86.425c-45.247-22.623-58.344-84.143-25.798-122.642 31.752-37.705 96.843-37.309 125.42 0.794 40.881 53.978 3.969 130.183-63.107 130.183-11.907 0-26.195-3.175-36.515-8.335zM837.457 87.219c-30.958-14.288-45.643-37.705-45.643-72.633 0-53.978 44.453-87.715 101.209-76.998 43.262 8.335 70.251 68.267 50.009 111.529-18.257 39.69-65.488 56.757-105.575 38.102z" />
<glyph unicode="&#xe902;" glyph-name="profile" horiz-adv-x="801" d="M800.563-37.95v143.593c0 177.691-116.484 328.697-276.808 380.797 77.091 43.417 129.403 126.014 129.403 220.684 0 139.357-113.519 252.876-252.876 252.876s-252.876-113.519-252.876-252.876c0-94.67 52.312-177.267 129.403-220.684-160.536-52.1-276.808-203.106-276.808-380.797v-143.593c0-14.402 11.648-26.050 26.050-26.050h748.886c13.978 0.212 25.626 11.648 25.626 26.050zM199.082 707.124c0 110.766 90.222 200.988 200.988 200.988s200.988-90.222 200.988-200.988-90.222-200.988-200.988-200.988-200.988 90.222-200.988 200.988zM748.674-11.9h-697.21v117.755c0 192.093 156.3 348.605 348.605 348.605s348.605-156.3 348.605-348.605v-117.755z" />
<glyph unicode="&#xe903;" glyph-name="cart-done" d="M52.825 915.302c-10.971-22.349-20.317-41.448-20.317-42.26s28.851-16.66 64.203-34.946c34.946-18.286 65.422-34.946 67.86-36.978 2.032-2.032 28.851-149.537 58.921-327.924l55.263-323.86 692.419-2.032v85.333h-616.838l-6.502 35.352c-3.657 19.911-6.502 39.010-6.502 43.073 0 6.502 17.067 6.908 303.949 6.908h303.949l21.13 279.568c11.784 153.6 21.537 282.413 21.13 286.476 0 6.502-21.13 6.908-386.438 6.908h-386.438l-59.733 26.819c-32.508 15.035-65.422 29.663-72.33 32.508l-13.41 5.689-20.317-40.635zM880.965 613.79c-8.127-105.651-15.035-192.61-15.035-193.016-0.406-0.813-121.498-1.219-269.41-1.219h-269.41l-26.006 180.013c-14.222 98.743-26.819 185.702-28.038 193.016l-2.032 13.003h624.965l-15.035-191.797zM618.87 674.743l-78.425-78.425-65.016 65.016-56.889-56.889 121.905-121.905 106.463 106.87 106.87 106.463-56.889 56.889-78.019-78.019zM416.508 115.2c-48.762-22.756-68.267-77.613-44.292-125.968 30.476-60.546 108.495-69.079 153.194-16.254 40.229 47.137 21.943 119.873-36.571 144.66-18.692 7.721-53.232 6.502-72.33-2.438zM756.622 118.451c-21.537-6.502-47.949-35.759-55.67-62.171-26.819-91.429 86.146-158.070 153.6-90.616 45.917 45.917 31.695 122.311-27.632 149.537-17.473 8.127-48.356 9.346-70.298 3.251z" />
<glyph unicode="&#xe904;" glyph-name="cart-filled" d="M63.775 917.782l-17.067-34.133 72.758-36.828 73.656-37.726 58.386-321.572 59.284-322.47 334.147-2.695 334.147-1.796v80.842h-599.13l-5.389 34.133c-3.593 17.965-8.084 46.709-11.677 62.877l-5.389 28.744h292.828c160.786 0 292.828 2.695 292.828 7.186 0 3.593 8.084 101.502 17.965 217.375s17.965 218.274 17.965 227.256c0 14.372-22.456 15.27-354.807 15.27-334.147 0-354.807 0.898-354.807 16.168 0 10.779-25.151 28.744-85.333 58.386-46.709 23.354-89.825 42.218-94.316 42.218s-16.168-15.27-26.049-33.235zM462.596 126.428c-78.147-18.863-100.604-115.874-39.523-167.074 49.404-42.218 117.67-26.947 148.211 32.337 35.032 67.368-34.133 152.702-108.688 134.737zM785.067 121.039c-38.625-17.067-57.488-47.607-57.488-90.723 0.898-87.13 96.112-125.754 158.091-63.775 52.098 52.098 37.726 126.653-28.744 154.498-35.93 15.27-36.828 15.27-71.86 0z" />
<glyph unicode="&#xe905;" glyph-name="contractmanagment" d="M93.298 947.712c-15.474-4.096-28.672-15.019-35.954-30.948-6.372-13.198-7.282-63.716-7.282-468.764 0-497.436-1.365-473.316 26.396-492.43 11.378-7.737 32.768-8.192 342.244-9.557 225.28-0.91 335.417 0 346.795 3.641 9.102 2.731 21.845 10.923 28.217 18.66l11.833 14.108v269.881l-63.716-98.304v-145.18l-625.778 2.276v873.813h473.316l2.276-74.183c1.82-59.164 3.641-75.093 9.102-78.279 3.641-2.276 36.864-4.551 73.728-4.551h67.356l0.91-73.728 1.365-74.183 30.492 48.242 30.948 48.242v99.669l-175.673 174.763-263.964-0.455c-144.725-0.455-267.605-1.82-272.612-2.731zM193.877 779.776c-4.096-3.641-7.282-10.923-7.282-15.474 0-21.39 7.737-22.756 114.233-22.756 60.53 0 103.765 1.82 109.227 4.551 10.012 5.461 11.833 26.852 3.186 35.499-4.096 4.096-34.588 5.461-108.772 5.461-88.292 0-104.676-0.91-110.592-7.282zM826.482 630.044c-19.115-29.127-34.588-54.613-34.588-56.434 0-6.372 105.586-73.273 110.592-70.087 5.461 3.186 71.452 104.676 71.452 109.682s-98.759 69.177-106.951 69.177c-3.186 0-21.39-23.666-40.505-52.338zM193.422 659.627c-6.827-7.282-7.737-11.833-4.096-21.845l4.096-12.288 177.948-1.365c175.218-0.91 177.948-0.91 186.596 8.647 7.737 8.647 7.737 10.468 1.365 21.39l-6.827 12.288-175.218 1.365c-171.577 0.91-175.673 0.91-183.865-8.192zM196.608 543.118c-5.461-3.641-10.012-11.833-10.012-17.749 0-22.3 11.833-25.031 116.053-25.031s116.053 2.731 116.053 25.031c0 22.3-11.833 25.031-116.053 25.031-79.189 0-97.394-1.365-106.041-7.282zM661.732 378.368l-109.682-167.481-3.186-61.895c-1.82-40.050-1.365-63.26 1.82-65.081 2.276-1.365 29.582 10.012 60.075 25.941l55.979 28.672 107.861 165.66c59.62 91.477 108.316 168.391 108.316 171.577 0 6.827-23.666 24.576-33.223 24.576-3.641 0-38.684-49.152-80.1-111.957l-73.273-111.502-13.653 8.192c-7.737 4.551-13.198 10.012-11.833 12.743 0.91 2.731 33.678 53.703 72.818 113.323s70.997 110.137 70.997 111.957c0 5.006-29.127 22.756-36.864 22.756-3.641 0-55.524-75.548-116.053-167.481zM192.057 422.059c-8.192-8.192-6.827-24.121 2.731-32.313 7.282-6.827 21.845-7.737 109.227-7.737 85.106 0 101.49 0.91 107.406 7.282 8.647 8.192 9.557 25.031 1.82 32.768s-213.447 7.737-221.184 0zM264.875 270.052c-21.39-15.019-35.499-59.164-28.672-89.202 3.186-12.743 2.731-17.294-1.365-17.294-16.839 0-33.678-40.050-20.48-47.787 8.192-5.461 31.403 7.282 34.133 18.66 1.365 5.916 4.551 9.557 6.827 8.192 4.096-2.276-10.012-32.313-27.762-59.62-5.916-8.647-7.737-15.474-5.006-17.294 4.551-2.276 33.223 37.319 40.050 54.613 1.365 4.096 5.461 5.916 10.468 4.551 4.551-1.365 16.839 3.641 30.037 12.743 19.115 13.198 25.941 15.474 49.607 15.474 28.217 0 70.542 14.108 70.542 23.666 0 7.282-7.737 5.916-21.39-2.731-9.102-5.916-22.3-8.192-47.787-8.647-32.313-0.455-35.954-1.365-51.428-14.564-19.57-17.749-31.858-19.57-27.762-4.096 9.557 32.768 20.025 76.459 22.756 94.663 2.276 16.384 1.365 22.756-4.096 28.672-9.557 9.102-15.929 9.102-28.672 0z" />
<glyph unicode="&#xe906;" glyph-name="deliver" d="M0 494.545v-357.665h171.483l9.309-18.618c11.759-23.028 44.096-52.915 68.593-63.204 22.048-9.799 70.063-10.779 95.541-1.96 24.008 8.329 59.284 40.666 72.023 65.164l9.309 18.618h235.177l9.309-18.618c11.759-23.028 44.096-52.915 68.593-63.204 22.048-9.799 70.063-10.779 95.541-1.96 24.008 8.329 59.284 40.176 72.023 65.164l9.309 18.128 105.34 2.94 1.47 135.227 0.98 135.227-196.961 253.795-212.149 4.9-1.47 92.111-0.98 91.621h-612.44v-357.665zM529.148 494.545v-274.373h-102.89l-9.309 18.618c-11.759 23.028-43.116 51.935-67.613 62.714-27.437 11.759-72.513 10.289-103.38-2.94-27.437-11.759-62.714-46.545-67.613-67.123-2.94-10.779-4.9-11.269-48.995-11.269h-46.056v548.746h445.856v-274.373zM829.489 528.842c24.008-30.867 48.015-62.224 52.915-69.573l9.799-13.719h-279.763v142.086l86.722-0.98 86.722-1.47 43.606-56.344zM940.708 301.014v-80.842h-12.249c-8.819 0-14.209 4.41-21.558 18.618-11.759 23.028-43.116 51.935-67.613 62.714-27.437 11.759-72.513 10.289-103.38-2.94-27.437-11.759-62.714-46.545-67.613-67.123-2.94-10.289-5.879-11.269-29.397-11.269h-26.457v161.684h328.268v-80.842zM325.328 232.421c41.156-19.598 44.586-81.332 5.389-105.34-56.344-34.787-120.038 37.726-77.412 88.191 20.578 24.988 44.096 30.377 72.023 17.148zM815.28 232.421c41.156-19.598 44.586-81.332 5.389-105.34-56.344-34.787-120.038 37.726-77.412 88.191 20.578 24.988 44.096 30.377 72.023 17.148zM338.067 580.287l-80.842-80.842-66.144 66.144-58.794-58.794 127.388-127.388 220.478 220.478-61.244 61.244-80.842-80.842z" />
<glyph unicode="&#xe907;" glyph-name="delivery" d="M1.91 850.34c-1.146-2.675-1.528-164.681-1.146-360.31l1.146-355.343 79.093-1.146 78.71-0.764 8.024-16.43c13.373-27.51 33.242-47.379 60.752-60.752 22.543-11.081 29.039-12.609 56.167-12.609s33.624 1.528 56.167 12.609c27.893 13.755 47.379 33.242 59.988 60.37l8.024 16.812h246.448l7.26-17.958c9.934-23.69 35.534-48.907 62.663-61.516 30.949-14.519 73.743-14.519 104.31-0.382 29.039 13.755 50.818 34.006 63.045 59.224l9.934 20.633h121.504v272.048l-111.188 129.528-110.806 129.528h-175.379v191.045h-311.403c-245.684 0-312.167-1.146-313.313-4.585zM542.567 493.851v-277.015h-137.552l-7.26 14.519c-9.17 17.958-42.030 49.29-59.988 56.549-62.663 26.364-136.788 1.528-165.827-55.785l-7.642-15.284h-80.239v554.030h458.507v-277.015zM851.678 478.185l88.263-102.018v-159.331h-21.015c-20.633 0-21.015 0.382-28.657 15.284-23.307 45.851-81.767 74.507-132.585 65.337-38.591-7.26-77.182-35.152-94.376-68.776-5.349-10.316-8.406-11.845-21.397-11.845h-15.284v362.985h136.788l88.263-101.636zM312.931 224.478c29.803-14.901 41.266-50.818 26.364-80.239-11.845-23.307-29.421-34.388-54.639-34.388s-42.794 11.081-54.257 34.388c-11.081 21.397-11.081 32.096 0 53.493 15.284 30.949 51.582 42.794 82.531 26.746zM814.997 219.51c25.218-19.104 32.478-59.224 14.901-82.913-27.893-37.827-82.531-35.916-105.457 3.439-9.552 16.812-9.552 44.704 0 61.516 4.203 6.496 14.137 16.43 22.543 21.397 20.633 12.609 48.907 11.463 68.012-3.439z" />
<glyph unicode="&#xe908;" d="M1022.534 561.455v-225.664h-1022.534v225.664h1022.534z" />
<glyph unicode="&#xe909;" d="M329.687 467.165c-4.468-6.051-11.945-16.57-16.495-22.714-2.31-3.124-6.481-8.797 7.348-8.797 14.633 0 72.815 0 72.815 0s11.735 15.965 21.574 29.318c13.382 18.164 1.158 55.959-46.685 55.959-42.822 0-188.416 0-188.416 0l-32.669-44.387c0 0 169.361 0 178.054 0 8.989 0 8.867-3.421 4.474-9.379zM276.195 424.704c-13.83 0-9.658 5.684-7.348 8.809 4.55 6.144 12.148 16.553 16.617 22.604 4.399 5.958 4.515 9.379-4.486 9.379-8.687 0-81.431 0-81.431 0l-65.612-89.169c0 0 117.184 0 160.006 0 52.847 0 82.269 35.945 91.34 48.372 0 0.006-94.458 0.006-109.085 0.006zM380.282 376.326h93.865l35.584 48.384-93.853-0.012c-0.029 0.006-35.596-48.372-35.596-48.372zM622.464 520.931l-36.003-48.902h-41.891l35.985 48.902h-93.836l-62.778-85.277h229.585l62.761 85.277h-93.824zM516.038 376.326h93.83l35.601 48.372h-93.83c-0.035 0.006-35.601-48.372-35.601-48.372zM0 405.62v-10.275h130.723l7.552 10.275h-138.275zM152.326 424.704h-152.326v-10.263h144.756l7.569 10.263zM0 376.326h116.719l7.517 10.217h-124.236v-10.217zM884.783 395.351h137.751v10.275h-130.188l-7.564-10.275zM870.79 376.326h151.744v10.217h-144.233l-7.511-10.217zM906.374 424.704l-7.546-10.275h123.706v10.275h-116.16zM783.471 435.654l62.772 85.277h-99.38c-0.035 0-62.819-85.277-62.819-85.277h99.427zM675.997 424.704c0 0-6.86-9.373-10.193-13.888-11.782-15.919-1.361-34.49 37.097-34.49 44.428 0 150.697 0 150.697 0l35.601 48.372h-213.201z" />
<glyph unicode="&#xe90a;" glyph-name="doneorder" d="M371.896 906.444c-8.569-2.999-21.851-10.283-28.706-15.424-14.567-10.711-34.705-47.13-34.705-62.126 0-23.136 0-23.136-75.408-23.136h-70.266v-34.276h-158.527v-715.515h535.565l21.851-16.71c95.973-72.408 228.365-77.978 327.766-12.854 123.823 80.549 165.811 241.647 97.259 373.61-20.566 39.846-73.694 93.831-113.54 116.11l-29.135 16.281v239.076h-179.95v34.276l-71.551 0.857-71.98 1.285-2.571 20.137c-7.712 52.7-48.415 85.262-106.256 84.405-13.282 0-31.277-2.999-39.846-5.998zM443.019 830.608c5.141-7.284 6.855-20.566 6.855-53.556v-44.131h141.389v-68.552h-355.615v68.552l71.98 0.857 71.551 1.285 2.142 48.415c2.571 54.842 3.428 56.556 35.133 56.556 15.853 0 21.423-2.142 26.564-9.426zM162.812 636.519v-44.987h501.289v89.975h89.975v-127.25l-33.419-2.999c-46.273-3.856-78.407-12.854-118.253-32.562l-33.419-17.138h-226.223v-89.975h145.674l-8.997-17.995c-5.57-10.283-12.854-29.135-17.138-41.988l-7.284-23.565-112.254-2.571v-89.546h53.128c56.556 0 58.269-0.428 58.269-22.708 0-5.141 4.713-22.279 10.283-38.132l10.283-29.135h-380.465v535.565h68.552v-44.987zM804.633 232.917l-125.536-125.536-141.389 141.389 32.134 32.134c17.567 17.567 33.848 32.134 36.418 32.134 2.142 0 20.137-15.853 39.418-35.133l35.562-35.562 90.832 91.26 91.26 90.832 66.41-66.41-125.108-125.108zM175.665 456.569v-44.987h89.975v89.975h-89.975v-44.987zM175.665 280.904v-44.987h89.975v89.975h-89.975v-44.987z" />
<glyph unicode="&#xe90b;" glyph-name="downarrow" d="M0 705.652c0-23.948 24.774-51.2 256-282.426l256-256 256 256c231.226 231.226 256 258.477 256 282.426 0 25.6-1.652 27.252-27.252 27.252-23.948 0-49.548-23.123-257.652-231.226l-231.226-231.226-231.226 231.226c-189.11 189.11-236.181 231.226-254.348 231.226-19.819 0-22.297-3.303-22.297-27.252z" />
<glyph unicode="&#xe90c;" glyph-name="email" d="M0 452.531v-376.071h1024v752.142h-1024v-376.071zM865.416 747.044c-10.874-18.124-349.791-290.888-357.041-288.17-14.499 5.437-353.416 283.639-353.416 290.888-0.906 3.625 160.396 6.343 357.947 6.343 234.704 0 356.135-2.719 352.51-9.062zM305.388 523.214c110.556-91.526 202.988-165.834 206.612-165.834 2.719 0 96.057 74.308 206.612 165.834s206.612 168.552 212.956 173.083c8.156 5.437 10.874-51.653 10.874-270.046v-277.296h-860.885v277.296c0 219.299 2.719 275.483 11.781 269.14 5.437-3.625 101.494-81.558 212.050-172.177z" />
<glyph unicode="&#xe90d;" glyph-name="expand-arrow" d="M96 675.264c-5.76-1.856-11.2-6.72-13.568-12.096-1.728-3.84-1.856-10.112-0.256-14.848 1.152-3.392 8.192-10.56 207.36-209.792 174.848-174.912 206.656-206.528 209.664-208s4.288-1.728 8.96-1.728c4.672 0 5.952 0.256 8.96 1.856 2.944 1.472 38.4 36.672 208.768 206.976 187.328 187.328 205.44 205.568 207.040 209.088 1.472 3.2 1.792 4.672 1.792 8.96s-0.256 5.696-1.792 8.768c-1.92 3.968-5.312 7.36-9.536 9.6-2.304 1.216-3.712 1.472-8.832 1.472s-6.528-0.256-8.96-1.472c-2.048-1.088-60.352-58.944-200.32-198.912l-197.44-197.376-197.12 197.184c-152.192 152.192-197.824 197.504-200.32 198.784-2.432 1.28-4.352 1.728-8 1.856-2.624 0.128-5.504 0-6.4-0.32z" />
<glyph unicode="&#xe90e;" glyph-name="help" d="M449.4 957c-115-14-223.8-68-304.4-151.4-39.8-40.8-66-77.8-91.2-127.8-36.6-72.8-53.8-146.2-53.8-229.8 0-66.6 10-122.4 32.8-182.6 61.8-162.4 202.4-282.6 373.8-319.2 63.2-13.6 147.6-13.6 210.8 0 138 29.4 255.4 111.8 330.4 231.6 30 47.6 53.8 107 66 164.8 13.6 63.2 13.6 147.6 0 210.8-17.6 82.8-53.6 157-107.8 222.6-82.6 100-203.8 165.8-333.6 181-30.8 3.6-92.8 3.6-123 0zM570 874.8c93.2-12 177.4-54.2 246-122.8 83.4-83.2 126.2-186.4 126.2-304s-42.8-220.8-126.2-304c-83.2-83.4-186.4-126.2-304-126.2s-220.8 42.8-304 126.2c-83.4 83.2-126.2 186.4-126.2 304s42.8 220.8 126.2 304c96.8 97 225.2 140.4 362 122.8zM476 701c-35.4-7.2-67.4-26.4-90.4-54.2-19.4-23.4-33.6-61-33.6-89.2v-13.6h65.8l1.2 11.6c2.2 19.8 5.2 31 12.6 45 15.2 29.2 34.8 43.4 66 47.6 32 4.2 61.6-3.4 78.4-20.2 21.8-21.8 27.8-64.8 13-94.2-6.4-12.4-20.4-29.2-50-59.8-32-33-44.4-48.2-51.8-64-6.2-13-6.2-13.2-6.8-51.4l-0.8-38.6h64.4v11.6c0 50.6 12.4 75 60.2 118.2 37.8 34 55.6 57.6 64.2 84.8 5.6 18 4.2 56.4-2.8 76.6-6.6 18.2-9.4 23.4-20.6 38.2-17.8 23.8-51.2 43.6-85.2 50.6-22.2 4.6-63.6 5.2-83.8 1zM480 224v-32h64v64h-64v-32z" />
<glyph unicode="&#xe90f;" glyph-name="help-center" d="M463.005 956.57c-187.162-22.048-337.577-128.367-414.989-293.971-10.779-22.538-24.988-62.714-31.847-88.681-11.759-42.136-13.229-56.834-12.739-125.918 0-69.083 1.47-84.272 12.739-126.898 46.545-175.403 180.302-312.589 353.256-362.565 274.863-79.862 558.056 81.822 636.448 363.544 8.819 32.337 10.289 50.955 10.289 125.918s-1.47 93.581-10.289 125.918c-33.317 118.568-104.36 222.438-198.921 290.052-95.541 68.103-235.177 105.83-343.946 92.601zM580.593 849.761c152.375-26.457 274.373-135.227 321.899-286.622 9.799-32.337 11.269-46.056 11.269-117.589-0.49-75.453-0.98-83.292-13.719-120.038-37.236-106.32-106.81-189.611-198.921-237.137-158.744-81.822-341.497-56.834-469.374 65.164-57.324 53.895-96.521 119.058-117.099 194.021-12.249 44.586-12.249 156.295 0 200.88 38.216 139.636 142.576 248.406 276.333 289.072 67.123 20.578 121.998 24.008 189.611 12.249zM442.427 685.137c-29.887-11.269-71.043-46.545-79.862-68.103-3.43-8.329-5.389-15.678-4.41-16.658 18.618-14.209 68.103-47.035 71.533-47.035 2.45 0 9.309 6.859 15.678 15.189 24.498 32.827 61.734 42.626 92.601 24.008 48.015-29.397 26.947-78.882-53.405-123.958-50.955-28.417-73.003-59.774-73.003-104.85v-16.168h93.091l6.859 16.658c7.349 18.128 26.457 33.807 66.633 54.875 63.694 33.317 92.601 82.802 86.722 147.476-5.389 56.834-37.726 99.46-90.641 119.058-35.277 13.229-96.521 13.229-131.797-0.49zM411.56 254.469v-53.895h97.99v107.789h-97.99v-53.895z" />
<glyph unicode="&#xe910;" glyph-name="nocnoc-logo" d="M84.398 582.229c-2.609-0.652-21.002-10.566-40.83-22.176-30.133-17.741-36.525-22.045-39.395-26.35l-3.522-5.348v-198.539l3.522-5.348c6.131-9.392 11.218-10.827 37.308-10.827h22.437l33.785 16.958c18.654 9.262 35.873 18.654 38.351 20.871 8.74 7.696 8.74 7.175 8.74 63.266v50.483l20.35-0.522c19.567-0.391 20.48-0.522 22.828-3.522 2.348-2.87 2.478-6.001 2.478-72.397 0-60.657 0.261-69.658 2.087-72.267 1.957-2.739 2.609-2.87 25.567-2.87 27.524 0 32.351 1.304 38.612 10.827l3.522 5.348 0.391 94.573c0.261 65.092 0 96.269-1.044 99.53-1.696 5.74-6.783 12.131-11.74 14.74-3.652 1.957-147.143 42.656-154.578 43.96-2.087 0.391-6.131 0.13-8.87-0.391zM166.188 547.008c40.96-11.61 75.528-21.915 76.833-23.089 2.087-1.826 2.218-8.088 2.218-96.269v-94.312l-3.392-2.609c-3.131-2.478-5.218-2.739-19.567-2.739h-16.175v65.223c0 55.961-0.261 66.006-1.957 70.18-2.739 6.392-6.783 10.566-13.045 13.436-4.826 2.218-9.523 2.478-60.396 2.478-59.222 0-60.657-0.13-67.832-6.914-6.914-6.392-6.783-4.957-6.783-77.224v-67.18h-16.828c-15.001 0-17.088 0.261-20.219 2.739l-3.392 2.609v95.617c0 91.964 0.13 95.747 2.478 97.834 4.305 3.913 68.484 41.090 71.093 41.221 1.435 0 36.003-9.392 76.963-21.002zM130.446 416.041v-49.048l-3.131-3.131c-2.478-2.478-53.874-29.35-56.222-29.35-0.913 0-0.783 122.097 0.13 124.576 1.826 4.696 7.957 5.74 34.177 5.87h25.046v-48.917zM297.938 463.654c-1.565-0.522-4.044-2.739-5.609-4.696-2.739-3.392-2.739-4.044-2.739-70.18 0-61.179 0.261-66.919 2.348-69.397 6.653-8.349 20.35-7.696 25.306 1.174 1.174 2.087 1.826 14.479 2.348 44.482l0.652 41.482 33.133-43.83c18.262-24.263 34.699-45.134 36.394-46.569 5.087-3.913 13.566-3.392 18.784 1.304l4.305 3.783 0.391 66.006c0.391 72.919 0.522 71.615-7.827 75.919-5.609 2.87-13.436 1.696-17.871-2.609l-3.392-3.392-0.652-43.308-0.652-43.178-33.916 45.134c-24.002 32.090-35.090 45.786-38.090 47.221-4.435 2.218-8.74 2.348-12.914 0.652zM673.622 463.654c-1.565-0.522-4.044-2.739-5.609-4.696-2.739-3.392-2.739-4.044-2.739-69.919v-66.527l4.435-4.435c6.392-6.392 14.74-6.392 21.132 0l4.435 4.435v85.442l33.785-45.004c18.654-24.785 35.22-46.047 36.786-47.221 1.696-1.174 5.609-2.087 8.74-2.087 4.826 0 6.522 0.783 10.175 4.435l4.435 4.435v133.055l-3.392 4.044c-5.479 6.653-15.132 7.044-22.306 0.913l-3.652-3.131-1.304-86.355-34.307 45.526c-19.828 26.22-35.612 46.047-37.568 46.961-3.783 1.696-9.131 1.696-13.045 0.13zM465.953 420.737c-17.349-6.392-28.829-19.176-33.655-37.308-3.783-13.827-1.304-33.003 5.609-44.743 10.566-18.262 34.177-28.829 56.483-25.437 24.785 3.913 42.004 21.132 45.786 45.786 3.783 25.306-8.218 49.178-29.872 59.353-7.957 3.783-10.175 4.174-23.089 4.435-11.61 0.391-15.654 0-21.263-2.087zM497.521 392.561c9.914-4.696 15.654-19.176 12.523-31.698-3.913-15.654-19.306-23.741-33.655-17.871-10.175 4.305-15.914 13.305-15.914 25.437 0 20.871 18.523 32.872 37.047 24.132zM586.093 420.737c-24.654-8.87-39.003-34.438-34.438-61.57 3.913-23.741 19.176-40.177 42.004-45.004 31.829-6.783 65.614 15.001 48.395 31.177-5.87 5.479-10.044 5.479-20.35 0.261-10.566-5.218-18.002-5.87-26.22-2.087-20.089 9.001-20.089 40.83 0 49.83 2.87 1.304 7.305 2.478 9.783 2.478 5.479 0 14.088-3.783 17.48-7.566 8.479-9.653 25.567-3.652 25.567 9.001 0 7.827-13.697 20.219-26.611 24.002-9.131 2.739-27.133 2.478-35.612-0.522zM842.55 420.867c-19.697-6.522-32.351-22.306-35.481-44.221-5.609-38.351 25.306-69.267 63.266-63.266 31.177 4.826 51.004 32.872 45.656 64.571-3.261 18.784-12.523 31.698-28.568 39.656-9.392 4.696-10.827 4.957-23.741 5.218-10.566 0.261-15.523-0.13-21.132-1.957zM874.379 392.169c7.305-4.174 11.61-11.871 12.262-22.045 0.522-7.435 0.13-9.783-2.478-14.61-1.696-3.261-5.218-7.566-7.957-9.783-9.262-7.435-24.524-5.87-33.133 3.392-9.653 10.305-9.001 30.263 1.435 40.047 7.175 6.783 21.132 8.218 29.872 3zM962.56 420.737c-24.393-7.827-38.351-32.22-34.829-61.049 4.174-34.829 40.83-56.222 74.485-43.438 16.958 6.522 24.002 16.436 18.262 26.089-4.696 8.088-12.653 8.87-24.393 2.739-9.001-4.826-16.958-5.218-25.046-1.565-19.306 8.74-19.306 41.090 0 49.83 9.523 4.305 18.784 2.609 27.655-5.218 13.305-11.74 31.177 0.261 23.35 15.523-2.87 5.479-13.697 13.697-22.176 16.828-9.392 3.522-26.741 3.652-37.308 0.261z" />
<glyph unicode="&#xe911;" glyph-name="pending" d="M32.601 949.551c-8.359-2.926-13.793-6.478-19.331-12.434-5.956-6.374-10.867-16.3-12.225-24.764-1.567-9.195-1.358-923.376 0.104-930.586 1.776-8.464 6.792-17.868 12.748-23.719 6.478-6.478 9.822-8.464 18.599-11.703l6.687-2.508h159.347c157.257 0 159.451 0 163.422 2.090 2.299 1.149 5.538 3.866 7.314 6.060 6.687 8.359 4.284 22.674-4.911 28.735l-4.284 2.821-158.198 0.522c-155.063 0.522-158.198 0.522-159.66 2.508-1.254 1.776-1.463 66.351-1.463 461.636 0 458.188 0 459.546 2.090 461.636s3.448 2.090 347.951 2.090h345.966l2.508-2.612 2.612-2.508v-78.367c0-45.976 0.418-79.412 0.94-80.875s2.508-4.284 4.284-6.374c8.986-10.136 26.854-7.419 32.496 5.016 1.881 4.075 1.985 8.359 1.985 84.219 0 68.545-0.209 80.875-1.567 86.204-3.657 13.897-12.434 24.451-25.496 30.72l-7.941 3.762-354.22 0.209c-347.22 0.209-354.325 0.209-359.758-1.776zM132.284 750.498c-8.986-3.135-13.584-9.613-13.584-18.808 0-9.509 5.642-16.823 15.047-19.331 2.612-0.731 90.175-0.94 258.194-0.836l254.328 0.313 5.016 2.926c15.151 8.986 11.807 31.451-5.433 36.258-2.508 0.627-90.279 1.045-256.627 1.045-214.413-0.104-253.492-0.313-256.94-1.567zM647.837 632.842c-117.238-10.136-222.145-80.875-276.48-186.41-38.139-74.083-47.856-161.541-27.063-243.148 31.869-125.074 132.807-222.981 258.612-250.984 27.69-6.060 39.706-7.314 74.71-7.314 34.795-0.104 44.722 0.836 71.576 6.269 51.931 10.658 103.34 35.004 145.763 68.963 15.673 12.539 40.856 37.93 53.394 53.708 41.169 52.036 65.202 109.819 73.143 176.065 2.090 17.45 2.299 56.111 0.522 73.143-8.673 81.084-42.423 152.555-98.847 209.084-58.828 59.037-132.911 93.623-215.249 100.728-14.42 1.149-45.558 1.149-60.082-0.104zM717.218 591.673c59.141-7.837 113.58-31.974 158.407-70.008 12.33-10.449 33.541-32.496 42.736-44.408 25.496-32.705 44.931-71.68 54.962-109.923 7.105-27.481 9.927-49.319 9.927-78.054 0-29.571-3.239-54.021-10.867-81.711-28.735-104.699-112.953-187.037-219.011-214.1-51.096-13.061-107.311-12.33-157.989 2.090-27.481 7.837-61.544 23.51-84.428 38.87-67.291 44.931-113.789 112.64-130.508 190.171-9.718 44.826-8.777 95.086 2.403 139.389 21.734 85.891 81.189 159.138 161.019 198.426 34.795 17.136 71.262 27.376 109.192 30.72 14.942 1.358 49.006 0.522 64.157-1.463zM544.705 460.33c0.627-20.271 2.090-31.138 6.478-46.289 12.225-42.214 45.976-87.353 91.22-122.044 3.553-2.821 6.478-5.329 6.374-5.747 0-0.418-4.284-3.971-9.509-8.046-12.33-9.509-36.467-32.81-47.020-45.453-11.703-14.002-21.838-29.675-29.571-45.453-12.643-25.704-17.136-44.408-17.972-74.397l-0.627-19.122h283.794l-0.627 20.062c-0.731 22.674-2.508 33.541-8.568 51.722-9.927 29.675-29.884 60.186-57.469 87.562-10.658 10.553-25.6 23.51-33.646 29.257-2.508 1.776-4.493 3.344-4.493 3.657s5.016 4.598 11.18 9.404c14.106 11.18 38.348 35.109 48.588 48.065 21.629 27.272 35.318 55.066 41.587 84.323 1.672 7.523 2.403 15.778 2.821 30.929l0.627 20.584h-283.794l0.627-19.017zM785.241 435.252c-1.567-7.419-7.941-25.078-12.121-33.437-14.838-29.466-44.199-61.649-79.203-86.413l-7.628-5.538-5.851 4.075c-18.077 12.33-42.318 34.168-56.633 50.991-17.763 20.898-30.72 45.14-36.049 67.709l-1.358 5.956h199.576l-0.731-3.344zM695.484 256.157c27.272-19.435 52.976-45.453 68.65-69.381 9.404-14.315 18.599-36.049 21.002-49.319l0.731-3.971h-198.635v2.508c0 8.464 11.285 35.944 20.898 50.782 9.718 14.942 24.66 32.183 40.229 46.289 12.434 11.18 35.422 28.944 37.616 28.944 0.731 0 5.016-2.612 9.509-5.851zM132.284 551.967c-8.986-3.135-13.584-9.613-13.584-18.808 0-9.404 5.642-16.718 14.942-19.331 5.433-1.463 221.832-1.463 227.37 0.104 19.958 5.433 19.958 33.019 0 38.452-2.926 0.836-37.825 1.149-114.416 1.149-91.951-0.104-110.968-0.313-114.312-1.567zM128.627 351.765c-6.896-4.18-11.389-13.375-9.927-20.062 1.881-8.777 6.687-14.106 14.524-16.3 5.851-1.567 140.434-1.567 146.286 0 5.747 1.567 9.613 4.598 11.912 9.091 2.821 5.747 3.553 9.927 2.194 14.838-1.254 4.493-7.21 12.016-10.344 13.061-1.045 0.313-35.631 0.731-76.904 0.836-67.396 0.209-75.337 0-77.74-1.463zM134.792 155.533c-5.016-1.045-7.523-2.508-11.285-6.792-5.851-6.687-6.583-14.211-2.194-22.779 2.299-4.493 6.165-7.523 11.912-9.091 5.851-1.567 140.434-1.567 146.286 0 5.747 1.567 9.613 4.598 11.912 9.091 4.389 8.568 3.657 16.091-2.194 22.779-6.792 7.628-1.776 7.21-80.248 7.419-38.766 0-72.202-0.209-74.188-0.627z" />
<glyph unicode="&#xe912;" glyph-name="search" d="M1011.461 8.725l-246.178 246.178c61.022 74.397 97.802 169.691 97.802 273.554 0 238.237-193.306 431.543-431.543 431.543-238.446 0-431.543-193.306-431.543-431.543s193.097-431.543 431.543-431.543c103.863 0 198.949 36.571 273.345 97.593l246.178-245.969c16.718-16.718 43.677-16.718 60.395 0 16.718 16.509 16.718 43.677 0 60.186zM431.543 182.805c-190.798 0-345.861 155.063-345.861 345.652s155.063 345.861 345.861 345.861c190.589 0 345.861-155.272 345.861-345.861s-155.272-345.652-345.861-345.652z" />
<glyph unicode="&#xe913;" glyph-name="wishlist-active" d="M216.73 884.443c-127.254-19.883-230.649-157.080-212.753-284.334 12.924-94.447 35.79-125.266 274.392-364.862l228.66-229.654 238.602 238.602c263.456 262.462 273.398 278.369 272.404 388.722-1.988 236.614-291.293 341.996-461.297 168.016l-43.744-43.744-47.72 44.738c-76.551 71.581-155.091 97.429-248.544 82.517z" />
<glyph unicode="&#xe914;" glyph-name="cart1" horiz-adv-x="941" d="M17.218 926.471l-17.218-34.435 73.402-37.154 74.308-38.060 58.903-324.418 59.809-325.324 337.104-2.719 337.104-1.812v81.558h-604.432l-5.437 34.435c-3.625 18.124-8.156 47.122-11.781 63.434l-5.437 28.998h295.419c162.209 0 295.419 2.719 295.419 7.25 0 3.625 8.156 102.4 18.124 219.299s18.124 220.205 18.124 229.267c0 14.499-22.655 15.405-357.947 15.405-337.104 0-357.947 0.906-357.947 16.312 0 10.874-25.373 28.998-86.088 58.903-47.122 23.561-90.619 42.591-95.15 42.591s-16.312-15.405-26.28-33.529zM419.568 128.113c-78.839-19.030-101.494-116.899-39.873-168.552 49.841-42.591 118.712-27.186 149.522 32.623 35.342 67.965-34.435 154.053-109.65 135.929zM761.928 128.113c-78.839-19.030-101.494-116.899-39.873-168.552 49.841-42.591 118.712-27.186 149.522 32.623 35.342 67.965-34.435 154.053-109.65 135.929z" />
<glyph unicode="&#xe915;" glyph-name="ruler" horiz-adv-x="1372" d="M467.963 461.948c113.674 0 206.389 69.814 206.389 155.34s-92.437 155.366-206.389 155.366-206.414-69.914-206.414-155.366 92.715-155.34 206.414-155.34zM467.963 717.468c82.752 0 151.33-45.828 151.33-100.18s-69.259-100.155-151.33-100.155-151.33 45.803-151.33 100.155 69.259 100.458 151.33 100.458zM1342.928 330.316h-407.204v287.25c0 188.734-210.046 342.435-469.123 342.435s-469.123-153.701-469.123-342.435v-339.408c0-173.828 177.989-317.314 407.28-339.105h4.691c19.042-1.665 38.362-3.052 58.010-3.052h875.47c15.239 0 27.593 12.354 27.593 27.593v0 339.131c0 15.239-12.354 27.593-27.593 27.593v0zM467.963 904.512c227.626 0 413.888-128.858 413.888-287.25s-185.152-287.25-413.888-287.25-413.913 128.883-413.913 287.275 186.54 287.224 413.913 287.224zM881.851 456.399v-126.108h-160.057c63.896 29.406 117.149 72.225 157.951 125.138l0.719 0.97zM1315.336-8.79h-55.185v139.627c0 15.239-12.354 27.593-27.593 27.593s-27.593-12.354-27.593-27.593v-139.905h-110.345v75.867c0 15.239-12.354 27.593-27.593 27.593s-27.593-12.354-27.593-27.593v-75.867h-110.395v75.867c-0.464 14.89-12.646 26.783-27.605 26.783s-27.141-11.894-27.604-26.741l-0.001-0.043v-75.867h-110.37v139.905c0 15.239-12.354 27.593-27.593 27.593s-27.593-12.354-27.593-27.593v0-139.905h-105.679v75.867c0 15.239-12.354 27.593-27.593 27.593s-27.593-12.354-27.593-27.593v-75.867h-110.37v75.867c-0.464 14.89-12.646 26.783-27.605 26.783s-27.141-11.894-27.604-26.741l-0.001-0.043v-69.259c-186.237 27.593-326.343 142.931-326.343 280.894v177.989c78.893-107.898 234.259-181.293 413.888-181.293h845.96z" />
<glyph unicode="&#xe916;" glyph-name="button-moredetail" d="M512 960c-281.6 0-512-230.4-512-512s230.4-512 512-512 512 230.4 512 512-230.4 512-512 512zM701.44 396.8l-225.28-225.28c-25.6-25.6-66.56-25.6-87.040 0-25.6 25.6-25.6 66.56 0 87.040l179.2 179.2-179.2 179.2c-25.6 25.6-25.6 66.56 0 87.040 25.6 25.6 66.56 25.6 87.040 0l225.28-225.28c25.6-20.48 25.6-56.32 0-81.92z" />
<glyph unicode="&#xe917;" glyph-name="call" d="M512 960c-282.77 0-512-229.23-512-512s229.23-512 512-512c282.77 0 512 229.23 512 512v0c0 0.113 0 0.246 0 0.379 0 282.56-229.060 511.621-511.621 511.621-0.133 0-0.267 0-0.4 0h0.021zM790.756 247.372c-22.123-45.532-65.499-77.702-116.87-83.749l-0.701-0.067c-1.308 0.36-2.811 0.567-4.361 0.567s-3.053-0.207-4.481-0.594l0.12 0.028c-41.339 0-163.081 37.926-280.652 155.496-109.985 109.985-161.944 242.347-156.255 291.271 5.815 52.081 37.92 95.525 82.557 117.185l0.88 0.385c6.070 2.164 13.142 3.771 20.468 4.519l0.391 0.032c27.307 0 40.96-22.756 59.544-59.544l4.551-12.136c22.756-44.373 43.994-85.333 25.79-103.538-7.051-7.089-15.024-13.25-23.726-18.292l-0.546-0.292-13.653-9.102 7.585-15.17c21.127-40.812 47.608-75.646 79.067-105.25l0.198-0.184c30.106-30.972 64.71-57.354 102.804-78.141l17.421-8.71 9.102 14.033c6.094 9.123 12.205 17.041 18.799 24.521l-0.215-0.249c4.067 3.848 9.571 6.215 15.627 6.215 0.908 0 1.804-0.053 2.684-0.157l-0.107 0.010c32.222-6.136 60.872-17.762 86.325-33.965l-0.991 0.59 12.136-6.447c42.856-22.756 68.646-37.926 56.51-79.265z" />
<glyph unicode="&#xe918;" glyph-name="instagram" horiz-adv-x="1017" d="M768.85 960h-517.103c-140.152-3.605-252.432-117.911-252.768-258.519v-506.93c-0.002-0.416-0.004-0.907-0.004-1.399 0-140.489 112.643-254.669 252.54-257.149l0.232-0.003h513.701c139.086 0.183 251.766 112.976 251.766 252.088 0 1.077-0.007 2.152-0.020 3.225l0.002-0.163v510.299c0.006 0.645 0.009 1.408 0.009 2.171 0 138.799-110.241 251.849-247.94 256.37l-0.415 0.011zM509.278 126.512c-159.704 0-289.169 129.466-289.169 289.169s129.466 289.169 289.169 289.169c159.704 0 289.169-129.466 289.169-289.169v0c0-0.101 0-0.221 0-0.34 0-159.516-129.313-288.829-288.829-288.829-0.12 0-0.24 0-0.359 0h0.019zM846.076 715.056c-28.183 0-51.030 22.847-51.030 51.030s22.847 51.030 51.030 51.030c28.183 0 51.030-22.847 51.030-51.030v0c0-0.003 0-0.007 0-0.010 0-27.824-22.269-50.447-49.956-51.019l-0.053-0.001zM731.429 415.681c0-122.126-99.003-221.13-221.13-221.13s-221.13 99.003-221.13 221.13c0 122.126 99.003 221.13 221.13 221.13s221.13-99.003 221.13-221.13z" />
<glyph unicode="&#xe919;" glyph-name="wishlist2" horiz-adv-x="1165" d="M1070.669 864.934c-60.991 60.991-141.735 94.326-227.912 94.326s-167.169-33.582-228.159-94.572l-31.853-31.853-32.347 32.347c-60.991 60.991-142.229 94.819-228.406 94.819-85.93 0-166.922-33.582-227.665-94.326-60.991-60.991-94.572-141.982-94.326-228.159 0-86.177 33.829-166.922 94.819-227.912l463.726-463.726c6.42-6.42 15.062-9.877 23.458-9.877s17.038 3.21 23.458 9.63l464.714 462.985c60.991 60.991 94.572 141.982 94.572 228.159 0.247 86.177-33.088 167.169-94.079 228.159zM1023.259 455.778l-441.256-439.527-440.268 440.268c-48.397 48.397-75.065 112.598-75.065 180.996s26.421 132.599 74.818 180.749c48.15 48.15 112.351 74.818 180.503 74.818 68.398 0 132.846-26.668 181.243-75.065l55.805-55.805c13.087-13.087 34.076-13.087 47.163 0l55.311 55.311c48.397 48.397 112.845 75.065 180.996 75.065s132.352-26.668 180.749-74.818c48.397-48.397 74.818-112.598 74.818-180.996 0.247-68.398-26.421-132.599-74.818-180.996z" />
<glyph unicode="&#xe91a;" glyph-name="facebook" d="M512.342 960c-282.958 0-512.342-229.383-512.342-512.342s229.383-512.342 512.342-512.342c282.958 0 512.342 229.383 512.342 512.342v0c0 282.958-229.383 512.342-512.342 512.342v0zM683.122 686.751h-84.366c-1.468 0.16-3.171 0.251-4.895 0.251-24.089 0-44.017-17.812-47.334-40.983l-0.030-0.256c-0.163-1.435-0.256-3.097-0.256-4.782s0.093-3.347 0.274-4.983l-0.018 0.202v-86.073h120.571l-15.029-102.468h-105.542v-341.561h-136.624v341.561h-68.312v102.468h68.312v73.094c0 97.686 28.008 165.999 128.427 165.999h144.822z" />
<glyph unicode="&#xe91b;" glyph-name="line" horiz-adv-x="1050" d="M1049.105 558.597v0 24.592c-18.194 79.804-55.464 149.084-106.811 205.284l0.313-0.347c-54.982 58.783-123.882 103.864-201.481 130.045l-3.455 1.012c-63.095 25.010-136.153 39.961-212.574 40.983l-0.424 0.004c-101.537-0.408-197.321-24.635-282.18-67.377l3.637 1.66c-146.726-71.354-246.063-219.295-246.063-390.437 0-3.856 0.050-7.7 0.151-11.532l-0.012 0.567c9.713-84.531 42.088-160.065 90.823-222.146l-0.72 0.951c50.2-65.652 116.803-116.374 193.762-146.406l3.045-1.046c40.84-15.495 90.267-29.653 141.104-39.917l6.348-1.070h8.197c16.395 0 16.395-8.197 16.395-8.197v-16.395c-5.542-17.644-8.735-37.932-8.735-58.967 0-5.2 0.195-10.354 0.578-15.456l-0.041 0.679q12.296-49.151 49.151-49.151c31.197 3.928 59.089 15.626 82.427 33.080l-0.453-0.324c49.151 32.756 98.301 65.546 139.254 90.104 90.653 58.854 168.769 126.591 236.503 203.675l1.087 1.262c56.82 72.794 91.105 165.588 91.105 266.39 0 10.020-0.339 19.962-1.006 29.813l0.072-1.333zM270.858 370.158h-106.499c-17.569 1.241-31.515 15.187-32.749 32.644l-0.006 0.112v237.59c1.241 17.569 15.187 31.515 32.644 32.749l0.112 0.006c17.569-1.241 31.515-15.187 32.749-32.644l0.006-0.112v-204.937h81.975c17.569-1.241 31.515-15.187 32.749-32.644l0.006-0.112c-8.232-16.258-16.429-32.653-40.987-32.653zM393.82 402.914c0-18.1-14.673-32.773-32.773-32.773s-32.773 14.673-32.773 32.773v0 237.59c0 18.1 14.673 32.773 32.773 32.773s32.773-14.673 32.773-32.773v0zM672.363 402.914c0-16.395-8.197-24.592-24.592-32.756h-8.197c-8.197 0-16.395 8.197-24.592 16.395l-114.696 155.649v-139.254c0-18.1-14.673-32.773-32.773-32.773s-32.773 14.673-32.773 32.773v0 229.358c0 16.395 8.197 24.592 24.592 32.756s24.592 0 32.756-8.197l114.696-155.649v139.289c0 18.1 14.673 32.773 32.773 32.773s32.773-14.673 32.773-32.773v0zM901.755 378.322h-155.752c-17.569 1.241-31.515 15.187-32.749 32.644l-0.006 0.112v237.624c1.241 17.569 15.187 31.515 32.644 32.749l0.112 0.006h147.452c18.1 0 32.773-14.673 32.773-32.773s-14.673-32.773-32.773-32.773v0h-114.696v-57.348h98.301c18.1 0 32.773-14.673 32.773-32.773s-14.673-32.773-32.773-32.773v0h-98.301v-57.314h122.962c17.569-1.241 31.515-15.187 32.749-32.644l0.006-0.112c-0.068-16.395-16.429-24.592-32.824-24.592z" />
<glyph unicode="&#xe91c;" glyph-name="cart-new" horiz-adv-x="1156" d="M508.444-64c-71.111 0-131.556 60.444-131.556 131.556s60.444 131.556 131.556 131.556c0 0 0 0 0 0 71.111 0 131.556-60.444 131.556-131.556s-60.444-131.556-131.556-131.556zM508.444 128c-32 0-60.444-28.444-60.444-60.444s28.444-60.444 60.444-60.444 60.444 28.444 60.444 60.444-28.444 60.444-60.444 60.444zM878.222-64c-71.111 0-131.556 60.444-131.556 131.556s60.444 131.556 131.556 131.556v0c71.111 0 131.556-60.444 131.556-131.556s-60.444-131.556-131.556-131.556zM878.222 128c-32 0-60.444-28.444-60.444-60.444s28.444-60.444 60.444-60.444c32 0 60.444 28.444 60.444 60.444s-28.444 60.444-60.444 60.444zM1020.444 298.667h-608c-14.222 0-28.444 10.667-35.556 24.889l-174.222 565.333h-167.111c-21.333 0-35.556 14.222-35.556 35.556s14.222 35.556 35.556 35.556h195.556c14.222 0 28.444-10.667 35.556-24.889l170.667-565.333h579.556c21.333 0 35.556-14.222 35.556-35.556s-14.222-35.556-32-35.556zM1080.889 455.111h-704c-21.333 0-35.556 14.222-35.556 35.556s14.222 35.556 35.556 35.556h704c21.333 0 35.556-14.222 35.556-35.556s-14.222-35.556-35.556-35.556zM1120 608h-785.778c-21.333 0-35.556 14.222-35.556 35.556s14.222 35.556 35.556 35.556h789.333c21.333 0 35.556-14.222 35.556-35.556s-17.778-35.556-39.111-35.556z" />
<glyph unicode="&#xe91d;" glyph-name="profile-new" d="M263.877 73.846l-70.892 11.815c19.692 110.277 90.585 200.862 192.985 248.123l31.508-66.954c-78.769-35.446-137.846-106.338-153.6-192.985zM771.938 77.785c-7.877 51.2-31.508 102.4-70.892 137.846-23.631 23.631-51.2 39.385-78.769 51.2l31.508 63.015c35.446-15.754 70.892-39.385 98.462-66.954 51.2-47.262 82.708-110.277 94.523-181.169l-74.831-3.938zM519.877-56.123c-283.569 0-512 228.431-512 512s228.431 512 512 512c283.569 0 512-228.431 512-512 0-279.631-232.369-512-512-512zM519.877 889.108c-240.246 0-433.231-192.985-433.231-433.231s192.985-433.231 433.231-433.231 433.231 192.985 433.231 433.231-196.923 433.231-433.231 433.231zM519.877 203.815c-137.846 0-248.123 126.031-248.123 279.631-3.938 153.6 110.277 279.631 248.123 279.631s248.123-126.031 248.123-279.631c0-153.6-110.277-279.631-248.123-279.631zM519.877 684.308c-94.523 0-169.354-90.585-169.354-200.862s74.831-200.862 169.354-200.862 169.354 90.585 169.354 200.862-74.831 200.862-169.354 200.862z" />
<glyph unicode="&#xe91e;" glyph-name="wishlist-new" horiz-adv-x="1136" d="M567.895-64h-8.943l-4.472 4.472c-93.904 44.716-554.48 290.655-554.48 670.742 0 120.734 67.074 348.786 326.428 348.786 89.432 4.472 178.865-35.773 232.524-107.319l4.472-8.943 4.472 8.943c58.131 71.546 147.563 111.79 236.996 107.319 259.354 0 326.428-228.052 326.428-348.786 0-402.445-496.349-648.384-550.009-670.742 0-4.472-8.943-4.472-13.415-4.472zM567.895-41.642v0 0 0zM339.843 915.284c-4.472 0-8.943 0-13.415 0-223.581 0-281.712-196.751-281.712-304.070 0-348.786 420.332-581.31 518.707-630.498 31.301 13.415 527.651 250.41 527.651 630.498 0 102.847-58.131 304.070-281.712 304.070-76.017 4.472-152.035-31.301-201.223-89.432l-40.245-53.659-44.716 53.659c-44.716 58.131-111.79 89.432-183.336 89.432z" />
<glyph unicode="&#xe91f;" glyph-name="bestdeal" horiz-adv-x="1023" d="M1023.159 506.82c-2.916 26.074-26.074 43.456-46.372 60.839-8.691 8.691-26.074 20.298-26.074 26.074-0.066 1.349-0.103 2.931-0.103 4.521 0 11.888 2.093 23.288 5.929 33.85l-0.219-0.69c5.104 12.912 8.064 27.869 8.064 43.517 0 12.477-1.882 24.515-5.376 35.845l0.228-0.86c-11.607 20.298-40.541 28.99-66.67 37.681-11.607 2.916-31.849 8.691-34.765 14.467-4.657 11.065-7.764 23.887-8.671 37.312l-0.020 0.368c-5.607 28.99-8.691 57.979-28.99 72.446-10.653 6.988-23.634 11.271-37.594 11.605l-0.087 0.002c-11.607 0-26.074-2.916-37.681-2.916-11.255-1.763-24.303-2.82-37.58-2.915l-0.101-0.001c-8.849 8.274-16.455 17.719-22.612 28.123l-0.321 0.587c-14.467 23.158-31.849 49.232-57.979 52.148-23.158 5.607-49.232-11.607-72.446-26.074-9.962-6.435-21.417-12.282-33.463-16.94l-1.302-0.443c-13.348 5.101-24.802 10.947-35.522 17.838l0.757-0.455c-19.806 15.578-44.893 25.264-72.21 26.070l-0.18 0.004c-24.71-10.967-44.617-29.013-57.606-51.55l-0.317-0.597c-5.676-11.538-13.486-21.213-22.995-28.863l-0.163-0.127h-8.747c-8.691 0-20.298 2.916-31.849 2.916-6.516-0.699-14.076-1.097-21.728-1.097s-15.212 0.398-22.659 1.176l0.931-0.079c-1.41 0.108-3.053 0.169-4.711 0.169-12.142 0-23.516-3.29-33.279-9.028l0.309 0.168c-17.897-17.746-28.977-42.343-28.977-69.528 0-1.026 0.016-2.048 0.047-3.067l-0.004 0.149c-5.607-11.607-8.691-31.849-11.607-37.681-5.607-2.916-23.158-8.691-37.681-14.467-27.507-2.386-51.282-16.578-66.489-37.42l-0.182-0.261c-3.936-10.601-6.213-22.848-6.213-35.627 0-15.526 3.362-30.267 9.398-43.535l-0.269 0.66c3.618-9.873 5.71-21.272 5.71-33.16 0-1.59-0.037-3.171-0.111-4.743l0.008 0.222c-7.282-10.164-15.91-18.792-25.742-25.848l-0.332-0.226c-22.337-13.498-38.864-34.694-46.028-59.836l-0.176-0.722c0.735-27.587 12.837-52.209 31.772-69.46l0.078-0.070c8.928-8.672 15.872-19.336 20.121-31.278l0.177-0.572c-3.063-13.169-8.054-24.783-14.734-35.211l0.267 0.446c-11.679-17.373-18.641-38.764-18.641-61.781 0-5.901 0.458-11.696 1.339-17.35l-0.081 0.628c8.691-23.158 34.765-37.681 57.979-52.148 12.328-4.988 22.895-11.847 31.898-20.344l-0.049 0.046c2.055-7.93 3.235-17.034 3.235-26.414 0-2.939-0.116-5.851-0.343-8.732l0.024 0.381c0-28.99-2.916-57.979 14.467-75.362 18.512-16.218 42.921-26.111 69.639-26.111 0.987 0 1.971 0.013 2.951 0.040l-0.144-0.003c0.037 0 0.081 0 0.125 0 13.4 0 26.321-2.050 38.467-5.853l-0.911 0.246c5.607-2.916 11.607-23.158 17.383-34.765 11.607-26.074 20.298-52.148 43.456-63.755 7.758-1.666 16.67-2.62 25.806-2.62 19.092 0 37.21 4.167 53.496 11.64l-0.8-0.329c10.925 5.376 23.601 9.431 36.931 11.511l0.75 0.096c10.768-6.982 20.132-14.635 28.579-23.196l0.018-0.018c15.819-21.208 39.195-36.021 66.070-40.459l0.6-0.082c27.475 4.519 50.851 19.332 66.476 40.268l0.194 0.272c8.691 8.691 23.158 23.158 28.99 23.158 12.999-1.788 24.732-5.876 35.247-11.86l-0.482 0.253c15.331-7.25 33.305-11.482 52.268-11.482 9.293 0 18.349 1.017 27.062 2.945l-0.828-0.154c21.857 14.643 37.577 36.989 43.331 63.077l0.126 0.678c5.607 11.607 11.607 31.849 17.383 34.765 11.235 3.557 24.156 5.607 37.556 5.607 0.044 0 0.088 0 0.131 0h-0.007c28.99 2.916 57.979 2.916 75.362 23.158 17.383 17.383 14.467 49.232 14.467 75.362-0.144 2.394-0.227 5.193-0.227 8.011 0 10.51 1.145 20.752 3.316 30.609l-0.174-0.939c8.955 8.451 19.521 15.311 31.174 20.055l0.675 0.243c26.074 14.467 52.148 26.074 57.979 52.148 8.691 23.158-5.607 49.232-17.383 75.362-5.853 9.991-10.791 21.538-14.215 33.718l-0.251 1.047c0 5.607 14.467 23.158 20.298 31.849 20.387 17.899 33.466 43.695 34.424 72.562l0.004 0.165zM950.713 469.139c-14.457-16.022-25.446-35.468-31.599-56.957l-0.25-1.023c0.454-23.862 7.978-45.88 20.555-64.149l-0.257 0.395c5.945-10.829 10.904-23.376 14.23-36.572l0.237-1.109c-9.838-9.422-21.34-17.207-34.005-22.855l-0.76-0.303c-21.575-8.148-39.368-22.199-51.912-40.183l-0.236-0.357c-5.891-15.747-9.3-33.944-9.3-52.937 0-4.835 0.221-9.618 0.653-14.34l-0.045 0.607v-40.541c-11.522-3.568-24.768-5.623-38.494-5.623-0.72 0-1.438 0.006-2.155 0.017l0.108-0.001c-1.231 0.042-2.677 0.066-4.129 0.066-21.785 0-42.314-5.376-60.333-14.873l0.708 0.34c-16.73-15.125-28.966-34.931-34.65-57.349l-0.172-0.799c-6.185-14.126-11.997-25.539-18.354-36.599l0.972 1.834c-14.080 2.176-26.756 6.231-38.468 11.954l0.787-0.347c-14.552 7.85-31.85 12.462-50.224 12.462-4.77 0-9.467-0.311-14.072-0.913l0.542 0.058c-22.392-6.956-41.167-20.11-54.886-37.448l-0.178-0.233c-9.035-10.243-19.543-18.912-31.251-25.751l-0.599-0.323c-11.925 8.018-22.34 16.598-31.856 26.080l0.006-0.006c-13.897 17.57-32.671 30.725-54.275 37.469l-0.788 0.212h-11.607c-19.24-0.781-37.090-6.048-52.748-14.774l0.601 0.307c-10.925-5.376-23.601-9.431-36.931-11.511l-0.75-0.096c-8.852 10.268-15.033 23.075-17.324 37.188l-0.059 0.437c-6.63 22.897-18.69 42.466-34.727 57.942l-0.038 0.037c-16.23 9.25-35.662 14.703-56.368 14.703-2.599 0-5.178-0.086-7.734-0.255l0.347 0.018c-0.609-0.010-1.327-0.016-2.047-0.016-13.726 0-26.972 2.055-39.447 5.874l0.953-0.251c-1.992 9.643-3.132 20.726-3.132 32.075 0 2.978 0.078 5.937 0.234 8.876l-0.017-0.411c0.887 5.503 1.393 11.847 1.393 18.309 0 17.492-3.712 34.118-10.39 49.132l0.306-0.77c-13.414 17.692-30.998 31.55-51.324 40.228l-0.824 0.313c-13.484 6.667-24.868 13.417-35.698 20.909l0.933-0.611c3.563 14.305 8.522 26.852 14.887 38.522l-0.42-0.841c11.062 18.309 18.358 40.060 20.263 63.337l0.035 0.53c-6.403 22.511-17.392 41.957-31.963 58.107l0.114-0.128c-8.087 9.39-15.738 19.753-22.589 30.669l-0.625 1.068c9.032 10.482 18.508 19.958 28.64 28.695l0.35 0.295c18.966 11.963 33.873 28.816 43.163 48.808l0.294 0.704c1.163 6.691 1.828 14.395 1.828 22.256 0 15.906-2.723 31.176-7.729 45.37l0.293-0.955c-3.626 10.601-5.719 22.815-5.719 35.518 0 1.767 0.040 3.524 0.121 5.27l-0.009-0.248c2.916 5.607 23.158 11.607 34.765 17.383 23.499 4.567 44.093 14.768 61.029 29.147l-0.191-0.158c12.797 17.848 21.178 39.659 23.127 63.294l0.031 0.46c0 8.691 2.916 31.849 8.691 34.765h8.691c8.691 0 20.298-2.916 31.849-2.916 9.472-1.928 20.36-3.031 31.506-3.031 2.172 0 4.334 0.042 6.485 0.125l-0.31-0.009c10.468 0.194 20.404 2.235 29.573 5.808l-0.584-0.2c18.969 12.881 34.52 29.345 45.986 48.534l0.386 0.698c8.691 11.607 20.298 28.99 23.158 31.849 14.463-4.974 26.909-10.847 38.575-17.883l-0.894 0.501c16.494-14.117 37.377-23.553 60.345-26.031l0.494-0.043c23.462 2.52 44.345 11.957 60.991 26.201l-0.152-0.127c11.607 5.607 28.99 17.383 34.765 20.298 9.771-9.359 18.379-19.802 25.667-31.172l0.407-0.678c10.991-20.485 26.737-37.148 45.822-48.916l0.55-0.315c9.999-2.783 21.48-4.383 33.335-4.383s23.337 1.6 34.24 4.595l-0.905-0.212c8.585 2.021 18.442 3.18 28.569 3.18 1.134 0 2.264-0.015 3.391-0.043l-0.167 0.003h8.691c6.054-11.783 10.185-25.533 11.572-40.083l0.035-0.458c1.629-24.135 10.070-46.022 23.393-64.088l-0.235 0.334c17.007-13.647 37.47-23.74 59.842-28.8l0.997-0.19c11.607-2.916 34.765-8.691 37.681-14.467 0.071-1.499 0.112-3.256 0.112-5.023 0-12.703-2.093-24.916-5.953-36.315l0.234 0.797c-4.755-13.169-7.504-28.367-7.504-44.206 0-7.936 0.69-15.71 2.013-23.267l-0.116 0.803c8.808-21.074 23.926-38.056 42.967-48.973l0.49-0.259c10.482-9.031 19.958-18.508 28.695-28.64l0.295-0.35c-11.716-10.093-22.34-20.574-32.221-31.727l-0.301-0.346zM631.996 419.851c-51.221 0-92.744-41.523-92.744-92.744s41.523-92.744 92.744-92.744c51.221 0 92.744 41.523 92.744 92.744v0c-1.396 50.65-42.094 91.349-92.613 92.741l-0.131 0.003zM631.996 289.482c-22.39 0-40.541 18.151-40.541 40.541s18.151 40.541 40.541 40.541c22.39 0 40.541-18.151 40.541-40.541v0c-0.49-22.19-18.351-40.050-40.494-40.54l-0.046-0.001zM329.203 297.389l331.945 331.945 36.874-36.874-331.945-331.945-36.874 36.874zM487.104 564.743c-0.347 51.062-41.631 92.366-92.652 92.744h-0.036c-0.679 0.018-1.478 0.028-2.28 0.028-51.221 0-92.744-41.523-92.744-92.744s41.523-92.744 92.744-92.744c0.802 0 1.601 0.010 2.398 0.030l-0.118-0.002c51.038 0.378 92.31 41.651 92.688 92.652v0.036zM353.819 564.743c0 22.39 18.151 40.541 40.541 40.541s40.541-18.151 40.541-40.541c0-22.39-18.151-40.541-40.541-40.541v0c-22.19 0.49-40.050 18.351-40.54 40.494l-0.001 0.046z" />
<glyph unicode="&#xe920;" glyph-name="installation" horiz-adv-x="1049" d="M528.74 263.252c-74.795 0-126.203 17.090-152.8 50.795-25.87 32.769-17.704 68.593-17.34 70.099 1.371 5.714 7.159 9.195 12.821 7.875 5.714-1.361 9.237-7.107 7.875-12.821-0.239-1.070-6.006-27.74 13.589-52.281 22.141-27.729 69.122-42.39 135.854-42.39 67.294 0 115.044 14.909 138.088 43.127 20.27 24.831 15.096 51.616 15.045 51.886-1.175 5.756 2.535 11.376 8.291 12.551 5.735 1.153 11.376-2.535 12.551-8.291 0.312-1.496 7.179-37.038-19.408-69.6-27.605-33.807-79.605-50.95-154.566-50.95zM1006.34-64h-963.782c-12.167 0-23.761 5.206-31.834 14.286-8.052 9.060-11.855 21.164-10.432 33.205 7.865 66.515 22.057 182.296 28.738 210.431 13.059 54.889 74.317 106.815 182.068 154.348 77.008 33.964 149.392 53.174 152.436 53.984 11.356 3.013 22.992-3.802 25.985-15.158 2.992-11.367-3.792-23.002-15.148-25.995-77.693-20.489-283.761-92.219-303.938-177.028-4.447-18.743-14.868-95.595-27.875-205.569l963.782 0.052c-7.532 108.384-14.93 187.158-19.294 205.517-20.187 84.852-223.575 156.571-300.239 177.039-11.356 3.034-18.099 14.691-15.075 26.046 3.034 11.345 14.65 18.109 26.046 15.075 30.722-8.197 301.008-83.647 330.66-208.312 6.867-28.862 15.699-145.507 20.353-212.467 0.82-11.699-3.294-23.335-11.304-31.917-8.021-8.602-19.366-13.537-31.148-13.537zM692.314 360.395c-6.514 0-12.945 2.982-17.122 8.613-18.93 25.558-34.681 54.099-19.761 121.808 2.535 11.47 13.829 18.722 25.361 16.198 11.47-2.525 18.722-13.881 16.198-25.361-11.99-54.39 0.416-71.127 12.405-87.314 6.992-9.444 5.008-22.763-4.436-29.767-3.803-2.815-8.249-4.177-12.644-4.177zM368.864 360.811c-3.054 0-6.14 0.665-9.049 2.078-10.567 5.132-15.138 17.517-10.005 28.083 5.995 12.322 11.325 23.283 11.325 58.067 0 11.751 9.527 21.278 21.278 21.278s21.278-9.527 21.278-21.278c0-44.582-8.468-61.985-15.272-75.969-3.72-7.657-11.523-12.259-19.554-12.259zM520.751 352.114c-0.031 0-1.454 0.011-1.485 0.011-23.117 0.104-79.657 3.127-105.454 28.967-28.956 29.018-87.699 87.865-99.542 257.943-0.82 11.72 8.021 21.88 19.75 22.701 11.563 0.811 21.891-8.031 22.701-19.75 10.743-154.213 60.010-203.574 86.483-230.098 8.779-8.79 37.299-17.039 76.249-17.205l1.299-21.289v21.278l1.393-21.267-0.094 21.278c38.95 0.166 67.47 8.415 75.502 16.468 27.637 27.668 78.037 78.14 87.719 238.223 0.696 11.729 10.868 20.82 22.525 19.948 11.729-0.706 20.665-10.794 19.948-22.525-10.65-176.177-70.681-236.281-99.522-265.154-26.317-26.39-82.868-29.412-105.984-29.517-0.033-0.001-1.456-0.012-1.487-0.012zM476.813 765.756c-5.88 0-10.639 4.759-10.639 10.639v138.337c0 5.88 4.759 10.639 10.639 10.639s10.639-4.759 10.639-10.639v-138.337c0-5.88-4.759-10.639-10.639-10.639zM596.387 885.693c-4.935 0-9.891 1.704-13.912 5.184-10.785 9.33-23.647 20.218-29.683 25.039-5.404 0.614-16.032 1.528-31.929 1.528-15.699 0-26.265-0.883-31.751-1.517-5.901-4.873-18.109-15.595-28.322-24.779-8.738-7.865-22.202-7.138-30.047 1.6-7.855 8.738-7.138 22.192 1.6 30.047 35.46 31.875 37.559 32.478 42.608 33.922 0.634 0.177 1.278 0.332 1.922 0.457 1.548 0.29 15.854 2.826 43.989 2.826 28.145 0 42.452-2.535 44-2.826 0.644-0.124 1.288-0.281 1.922-0.457 4.914-1.413 6.94-1.995 43.532-33.652 8.884-7.698 9.86-21.132 2.171-30.016-4.208-4.862-10.14-7.356-16.103-7.356zM637.966 860.322c-4.364 0-8.758 1.341-12.551 4.114-12.967 9.496-35.605 20.541-52.011 22.307-11.688 1.247-20.146 11.74-18.888 23.418 1.247 11.699 11.875 20.073 23.418 18.888 25.309-2.712 54.712-17.164 72.624-30.286 9.486-6.94 11.543-20.26 4.592-29.735-4.166-5.694-10.628-8.707-17.184-8.707zM623.213 811.21c0 0 0 0-0.011 0-5.871 0-10.628 4.768-10.628 10.65l0.031 62.41c0 5.871 4.768 10.628 10.639 10.628 0 0 0 0 0.011 0 5.871 0 10.628-4.768 10.628-10.65l-0.031-62.41c0-5.87-4.769-10.628-10.639-10.628zM520.947 582.816c-134.94 0-162.14 20.842-186.13 39.221-2.254 1.725-4.489 3.439-6.826 5.112-3.024 2.15-5.797 4.135-8.655 6.047l-4.582 0.322c-17.694 0-32.946 8.821-42.93 24.852-7.003 11.232-11.023 25.642-11.023 39.554 0 24.665 12.603 36.862 26.161 38.732 6.057 36.094 41.693 140.062 111.813 154.078 11.553 2.328 22.743-5.174 25.039-16.696 2.307-11.522-5.164-22.732-16.686-25.028-43.781-8.758-75.886-94.951-78.556-121.922l-1.341-13.548c-1.081-10.878-10.234-19.179-21.174-19.179h-2.483c0.53-4.676 2.058-10.369 5.080-14.556 2.691-3.73 4.821-3.73 6.098-3.73h3.647c8.748 0 17.267-2.597 24.613-7.522 3.2-2.141 6.307-4.353 9.464-6.597 2.95-2.099 5.568-4.103 8.219-6.13 18.629-14.275 39.741-30.452 160.083-30.452 120.53 0 141.631 16.177 160.26 30.452 2.638 2.026 5.257 4.031 8.010 5.984 3.699 2.629 6.628 4.707 9.621 6.722 7.419 4.945 15.928 7.543 24.665 7.543h3.636c1.278 0 3.418 0 6.109 3.73 3.024 4.187 4.541 9.88 5.080 14.556h-2.483c-10.94 0-20.094 8.302-21.174 19.179l-1.341 13.548c-1.018 10.296-11.844 101.225-75.969 122.597-11.158 3.719-17.184 15.761-13.465 26.909 3.709 11.149 15.771 17.205 26.909 13.465 82.057-27.345 100.696-126.837 104.239-153.413 13.517-1.922 26.057-14.119 26.057-38.722 0-13.912-4.020-28.322-11.023-39.554-9.985-16.031-25.237-24.852-42.94-24.852h-3.636c-3.615-2.119-6.255-3.99-8.935-5.901-3.002-2.13-5.226-3.844-7.47-5.568-24.001-18.391-51.19-39.232-185.986-39.232zM418.434 801.257c-5.871 0-10.639 4.759-10.639 10.628l-0.031 62.41c0 5.88 4.759 10.65 10.628 10.65 0.011 0 0.011 0 0.011 0 5.871 0 10.639-4.759 10.639-10.628l0.031-62.41c0-5.88-4.759-10.65-10.628-10.65-0.011 0-0.011 0-0.011 0zM403.774 860.322c-6.556 0-13.018 3.013-17.184 8.707-6.95 9.475-4.894 22.795 4.592 29.735 17.912 13.122 47.315 27.574 72.624 30.286 11.637 1.236 22.172-7.2 23.418-18.888 1.258-11.678-7.2-22.172-18.888-23.418-16.405-1.766-39.044-12.81-52.011-22.307-3.793-2.775-8.188-4.114-12.551-4.114zM564.927 765.756c-5.88 0-10.639 4.759-10.639 10.639v138.337c0 5.88 4.759 10.639 10.639 10.639s10.639-4.759 10.639-10.639v-138.337c0-5.88-4.758-10.639-10.639-10.639zM883.992-59.834h-708.665c-20.509 0-37.361 16.686-37.579 37.195 0 0.457 0.021 0.904 0.072 1.361l37.029 314.213c0.124 14.712 8.81 28 22.285 33.995l103.106 45.933c3.117 1.402 6.722 1.195 9.684-0.519 2.95-1.714 4.903-4.748 5.236-8.145l16.114-162.972c0.593-8.893 7.74-15.584 16.29-15.584h364.187c8.561 0 15.709 6.691 16.27 15.231l16.135 163.325c0.332 3.397 2.285 6.431 5.236 8.145 2.982 1.714 6.577 1.922 9.684 0.519l103.106-45.933c13.475-5.995 22.161-19.283 22.285-33.995l37.029-314.213c0.052-0.457 0.072-0.904 0.072-1.361-0.217-20.509-17.069-37.195-37.578-37.195zM159.046-23.013c0.405-8.623 7.585-15.542 16.281-15.542h708.665c8.696 0 15.875 6.92 16.281 15.542l-37.009 314.078c-0.052 0.457-0.072 0.904-0.072 1.361 0.072 6.504-3.73 12.426-9.673 15.075l-89.642 39.928-14.65-148.302c-1.267-19.346-17.746-34.764-37.476-34.764h-364.185c-19.719 0-36.197 15.418-37.496 35.117l-14.629 147.948-89.642-39.927c-5.943-2.649-9.745-8.572-9.673-15.075 0-0.457-0.021-0.904-0.072-1.361l-37.009-314.078z" />
<glyph unicode="&#xe921;" glyph-name="freesample" horiz-adv-x="1103" d="M1102.759 654.759l-154.232 305.24h-791.008l-157.519-305.24v-718.759h1102.759zM1027.287 677.705h-350.941l-26.485 226.481h262.574zM482.481 618.667h141.084v-160.806h-141.084zM485.768 677.768l26.232 226.418h78.759l26.232-226.481zM190.388 900.899h262.511l-26.232-223.131h-351.194zM59.101-4.899v623.565h367.565v-216.62h256v216.62h367.565v-623.565z" />
<glyph unicode="&#xe922;" glyph-name="free-delivery" horiz-adv-x="1642" d="M617.832 90.458c-40.045 0-68.648 28.603-74.369 68.648v257.43c0 0 0 0 0 5.721 0 17.162 11.441 28.603 28.603 28.603s28.603-11.441 28.603-28.603v0c0-5.721 5.721-17.162 17.162-17.162h583.508c11.441 0 17.162 5.721 17.162 17.162v148.737c0 0 0 0 0 0 0 17.162 11.441 28.603 28.603 28.603l160.179 5.721c45.765-5.721 80.089-22.883 102.972-57.207l85.81-120.134c28.603-40.045 45.765-91.531 45.765-143.017v-131.575c0-17.162-5.721-40.045-17.162-51.486s-34.324-22.883-51.486-22.883h-28.603c-11.441 0-22.883 5.721-28.603 22.883-11.441 40.045-34.324 68.648-74.369 91.531-34.324 17.162-74.369 22.883-114.413 11.441-51.486-17.162-91.531-51.486-102.972-102.972-5.721-11.441-17.162-22.883-28.603-22.883h-217.385c-11.441 0-22.883 5.721-28.603 22.883-17.162 62.927-80.089 108.693-143.017 108.693-68.648 0-125.855-45.765-143.017-108.693-5.721-11.441-17.162-22.883-28.603-22.883h-17.162c0 11.441 0 11.441 0 11.441zM600.67 347.888v-183.061c0-11.441 11.441-17.162 17.162-17.162 34.324 80.089 108.693 131.575 194.503 131.575s160.179-51.486 194.503-131.575h171.62c22.883 57.207 74.369 102.972 137.296 120.134 51.486 17.162 108.693 11.441 160.179-17.162 40.045-22.883 74.369-57.207 91.531-102.972h5.721c5.721 0 11.441 0 11.441 5.721s5.721 5.721 5.721 11.441v131.575c0 40.045-11.441 74.369-34.324 108.693l-85.81 114.413c-17.162 17.162-40.045 28.603-62.927 34.324l-131.575-5.721v-125.855c0-45.765-34.324-74.369-74.369-74.369h-583.508c-5.721 0-11.441 0-17.162 0zM1372.961-64c-68.648 0-120.134 51.486-120.134 120.134 0 28.603 11.441 62.927 34.324 85.81s51.486 34.324 80.089 34.324c0 0 5.721 0 5.721 0v0c68.648 0 120.134-51.486 120.134-120.134s-51.486-120.134-120.134-120.134zM1372.961 147.665l-5.721-28.603c-34.324 0-62.927-28.603-57.207-62.927 0-34.324 28.603-62.927 62.927-62.927s62.927 28.603 62.927 62.927c0 34.324-28.603 62.927-62.927 62.927 0 0 0 0 0 0v28.603zM818.056-64c-34.324 0-62.927 11.441-85.81 34.324s-34.324 51.486-34.324 85.81c0 28.603 11.441 57.207 28.603 80.089s51.486 34.324 80.089 40.045c5.721 0 5.721 0 11.441 0 62.927 0 120.134-51.486 120.134-120.134 0-62.927-57.207-114.413-120.134-120.134 0 0 0 0 0 0zM812.335 119.061c-17.162 0-28.603-5.721-40.045-17.162s-17.162-28.603-17.162-40.045c0-17.162 5.721-34.324 17.162-45.765s28.603-17.162 45.765-17.162c0 0 0 0 0 0 34.324 0 62.927 28.603 62.927 62.927s-28.603 62.927-62.927 62.927c0 0 0 0 0 0v0c0-5.721 0-5.721-5.721-5.721v0zM617.832 347.888c-17.162 0-34.324 5.721-51.486 17.162-11.441 17.162-22.883 34.324-22.883 57.207v463.374c0 17.162 5.721 40.045 17.162 51.486s34.324 22.883 51.486 22.883c0 0 5.721 0 5.721 0h583.508c0 0 0 0 0 0 40.045 0 68.648-28.603 74.369-68.648v-463.374c0-17.162-5.721-40.045-17.162-51.486s-34.324-22.883-51.486-22.883l-589.229-5.721c0 0 0 0 0 0zM617.832 931.397v-28.603c-5.721 0-5.721 0-11.441-5.721s-5.721-5.721-5.721-11.441v-463.374c0-5.721 0-11.441 5.721-11.441 5.721-5.721 5.721-5.721 11.441-5.721h583.508c5.721 0 11.441 0 11.441 5.721 5.721 5.721 5.721 5.721 5.721 11.441v463.374c0 11.441-11.441 17.162-17.162 17.162h-583.508c0 0 0 0 0 0v28.603zM451.933 119.061h-423.33c-17.162 0-28.603 11.441-28.603 28.603s11.441 28.603 28.603 28.603h423.33c17.162 0 28.603-11.441 28.603-28.603s-11.441-28.603-28.603-28.603zM451.933 284.961h-274.592c-17.162 0-28.603 11.441-28.603 28.603s11.441 28.603 28.603 28.603h274.592c17.162 0 28.603-11.441 28.603-28.603s-11.441-28.603-28.603-28.603zM451.933 456.581h-137.296c-17.162 0-28.603 11.441-28.603 28.603s11.441 28.603 28.603 28.603h137.296c17.162 0 28.603-11.441 28.603-28.603s-11.441-28.603-28.603-28.603z" />
<glyph unicode="&#xe923;" glyph-name="installation-new" horiz-adv-x="1050" d="M528.050 263.76c-73.831 0-126.796 17.655-152.476 51.361-16.050 19.26-22.47 44.94-17.655 70.621 1.605 4.815 8.025 8.025 12.84 6.42s8.025-6.42 8.025-12.84c-3.21-19.26 1.605-36.915 14.445-51.361 22.47-27.285 69.016-43.335 136.426-43.335s115.561 14.445 138.031 43.335c11.235 14.445 17.655 33.705 14.445 51.361-1.605 6.42 3.21 11.235 9.63 12.84s11.235-3.21 12.84-8.025c3.21-24.075-3.21-49.755-19.26-69.016-30.495-35.31-81.856-51.361-157.292-51.361zM1006.345-63.663h-963.009c-11.235 0-24.075 4.815-32.1 14.445s-11.235 20.865-11.235 33.705c8.025 65.806 22.47 181.367 28.89 210.257 12.84 54.571 73.831 105.931 181.367 154.082 49.755 20.865 101.116 38.52 152.476 54.571 11.235 1.605 22.47-4.815 25.68-16.050s-3.21-22.47-14.445-25.68c-77.041-20.865-284.088-93.091-303.348-176.552-4.815-19.26-14.445-96.301-27.285-205.442h963.009c-8.025 109.141-14.445 187.787-19.26 205.442-20.865 85.066-223.097 155.687-300.138 176.552-11.235 3.21-17.655 14.445-14.445 25.68s14.445 17.655 25.68 14.445v0c30.495-8.025 301.743-83.461 330.633-208.652 6.42-28.89 16.050-146.056 20.865-213.467 1.605-11.235-3.21-24.075-11.235-32.1-9.63-6.42-20.865-11.235-32.1-11.235zM692.885 360.511c-6.42 0-12.84 3.21-17.655 8.025-19.26 25.68-35.31 54.571-19.26 121.981 1.605 11.235 12.84 17.655 25.68 16.050s19.26-14.445 16.050-25.68c-12.84-54.571 0-72.226 12.84-88.276 6.42-9.63 4.815-22.47-3.21-28.89 0 0 0 0 0 0-6.42-1.605-9.63-3.21-14.445-3.21zM403.292 449.316c1.605-25.68-3.21-51.361-14.445-75.436-3.21-8.025-11.235-11.235-19.26-11.235-3.21 0-6.42 1.605-9.63 1.605-9.63 4.815-14.445 16.050-9.63 27.285 0 0 0 0 0 1.605 9.63 17.655 12.84 38.52 11.235 57.781 0 11.235 9.63 20.865 20.865 20.865 0 0 0 0 0 0 12.84-1.605 20.865-11.235 20.865-22.47zM921.712-20.953l-36.915 312.978c0 14.445-8.025 28.89-22.47 33.705l-102.721 44.94c-3.21 1.605-6.42 1.605-9.63 0s-4.815-4.815-4.815-8.025l-16.050-162.107c0-8.025-8.025-14.445-16.050-14.445h-364.339c-8.025 0-16.050 6.42-16.050 16.050 0 0 0 0 0 0l-17.655 162.107c0 3.21-1.605 6.42-4.815 8.025s-6.42 1.605-9.63 0l-104.326-44.94c-12.84-6.42-22.47-19.26-22.47-33.705l-35.31-314.583v-1.605c0-20.865 16.050-36.915 36.915-36.915h707.812c20.865 0 38.52 17.655 38.52 38.52v0zM884.797-38.609h-709.417c-8.025 0-16.050 6.42-16.050 16.050 0 0 0 0 0 0l36.915 312.978v1.605c0 6.42 3.21 12.84 9.63 14.445l89.881 40.125 14.445-147.661c1.605-19.26 17.655-35.31 36.915-35.31h364.339c19.26 0 35.31 16.050 36.915 35.31l16.050 147.661 89.881-40.125c6.42-1.605 9.63-8.025 9.63-14.445v-1.605l36.915-312.978c-1.605-9.63-8.025-16.050-16.050-16.050zM522.545 395.243c40.125 0 67.411 8.025 75.436 16.050 27.285 27.285 77.041 77.041 86.671 237.542 0 11.235 11.235 20.865 22.47 20.865 11.235-1.605 20.865-11.235 20.865-22.47-11.235-176.552-70.621-235.937-99.511-264.828-27.285-27.285-83.461-30.495-105.931-30.495h-1.605c-24.075 0-80.251 3.21-105.931 28.89-28.89 28.89-86.671 88.276-99.511 256.803 0 11.235 8.025 22.47 20.865 22.47s22.47-8.025 22.47-20.865v0c8.025-152.476 57.781-202.232 83.461-227.912 8.025-8.025 36.915-17.655 77.041-17.655l3.21 1.605zM755.144 736.903c-3.21 25.68-20.865 118.771-96.301 149.266-1.605 4.815-4.815 9.63-8.025 11.235-11.235 8.025-24.075 16.050-36.915 20.865-1.605 1.605-3.21 3.21-3.21 4.815-36.915 32.1-38.52 32.1-43.335 33.705-1.605 0-1.605 0-1.605 1.605-16.050 1.605-30.495 1.605-44.94 1.605-14.445 1.605-28.89 0-43.335-3.21-1.605 0-1.605 0-1.605-1.605-4.815-1.605-8.025-1.605-43.335-33.705-1.605-1.605-1.605-1.605-1.605-3.21-12.84-4.815-25.68-12.84-38.52-20.865-4.815-1.605-8.025-6.42-9.63-11.235-59.386-24.075-89.881-115.561-96.301-149.266-12.84-3.21-25.68-14.445-25.68-38.52 0-14.445 3.21-27.285 11.235-40.125 8.025-14.445 25.68-24.075 43.335-24.075h4.815c3.21-1.605 4.815-4.815 8.025-6.42 1.605-1.605 4.815-3.21 6.42-4.815 24.075-17.655 51.361-40.125 186.182-40.125s162.107 20.865 186.182 40.125c1.605 1.605 4.815 3.21 8.025 4.815s4.815 4.815 8.025 6.42h3.21c17.655 0 33.705 9.63 43.335 24.075 6.42 11.235 11.235 25.68 11.235 40.125 0 24.075-12.84 36.915-25.68 38.52zM732.674 680.727c-1.605-4.815-4.815-4.815-6.42-4.815h-3.21c-8.025 0-17.655-3.21-24.075-8.025l-9.63-6.42c-3.21-1.605-4.815-4.815-8.025-6.42-19.26-14.445-40.125-30.495-160.502-30.495s-141.241 16.050-160.502 30.495c-3.21 1.605-4.815 4.815-8.025 6.42l-11.235 6.42c-6.42 4.815-16.050 8.025-24.075 8.025h-4.815c-1.605 0-3.21 0-6.42 4.815s-4.815 9.63-4.815 14.445h1.605c11.235 0 19.26 8.025 20.865 19.26l1.605 14.445c1.605 27.285 35.31 112.351 78.646 121.981h1.605v-36.915c0-6.42 4.815-11.235 11.235-11.235 4.815 0 9.63 3.21 11.235 9.63 0 0 0 1.605 0 1.605v59.386c9.63 6.42 22.47 11.235 35.31 12.84v-109.141c0-6.42 4.815-11.235 9.63-11.235 6.42 0 11.235 4.815 11.235 9.63 0 0 0 0 0 1.605v138.031c1.605 0 1.605 1.605 1.605 1.605 8.025 0 17.655 1.605 33.705 1.605s27.285-1.605 32.1-1.605l1.605-1.605v-138.031c0-6.42 4.815-11.235 11.235-9.63 4.815 0 9.63 4.815 9.63 9.63v109.141c12.84-1.605 25.68-6.42 36.915-14.445v-51.361c0-6.42 4.815-11.235 9.63-11.235 6.42 0 11.235 4.815 11.235 9.63 0 0 0 0 0 1.605v30.495c1.605-1.605 1.605-1.605 3.21-1.605 64.201-20.865 75.436-112.351 75.436-121.981l1.605-14.445c1.605-11.235 11.235-19.26 20.865-19.26h1.605c3.21-3.21 1.605-9.63-1.605-12.84z" />
<glyph unicode="&#xe924;" glyph-name="free-sample" horiz-adv-x="1085" d="M712.736 316.93l-172.059 126.956-159.747-126.956v278.536h-307.181v-659.591h938.002v659.591h-299.015zM712.673 960h372.701v-253.974h-372.701v253.974zM0 960h380.93v-253.974h-380.93v253.974z" />
<glyph unicode="&#xe925;" glyph-name="phone" horiz-adv-x="1022" d="M788.138-61.255c-74.345 0-294.515 68.796-506.511 280.792-198.153 198.153-291.651 434.911-280.732 522.979 11.038 82.579 71.54 187.234 151.374 211.996 10.477 2.775 22.718 4.733 35.288 5.466l0.512 0.024c49.523 0 74.345-41.289 107.4-107.4l8.234-22.017c41.289-79.774 80.073-154.119 46.779-187.115-12.776-12.639-27.243-23.609-43.022-32.529l-1.012-0.526-24.762-16.528 13.783-27.506c38.211-73.512 86.044-136.255 142.83-189.575l0.37-0.344c54.284-56.192 116.875-103.886 185.895-141.21l4.024-1.99 27.506-13.783 16.528 24.762c10.329 16.581 21.229 30.973 33.288 44.295l-0.233-0.261c7.728 6.951 18.005 11.202 29.275 11.202 1.331 0 2.648-0.059 3.949-0.175l-0.168 0.012c58.245-10.83 110.054-31.961 155.861-61.581l-1.682 1.019 22.017-11.038c77.089-38.545 123.868-66.051 101.851-140.396-24.762-79.834-129.357-140.396-211.936-151.374-4.111 1.841-8.91 2.913-13.959 2.913-0.967 0-1.925-0.039-2.872-0.116l0.124 0.008z" />
<glyph unicode="&#xe926;" glyph-name="terms" horiz-adv-x="896" d="M449.829-64c-3.657 0-7.314 0-7.314 3.657l-201.143 109.714c-146.286 80.457-237.714 237.714-237.714 405.943v376.686c0 10.971 7.314 18.286 18.286 18.286 263.314 0 416.914 106.057 420.571 109.714 7.314 3.657 14.629 3.657 21.943 0 0 0 157.257-109.714 420.571-109.714 3.657 0 10.971-10.971 10.971-18.286v-373.029c0-168.229-91.429-325.486-237.714-405.943l-201.143-109.714c-3.657-7.314-7.314-7.314-7.314-7.314zM36.571 813.714v-354.743c0-157.257 84.114-299.886 219.429-373.029l190.171-106.057 190.171 106.057c135.314 76.8 219.429 219.429 219.429 373.029v354.743c-226.743 3.657-373.029 84.114-413.257 106.057-32.914-25.6-179.2-102.4-405.943-106.057zM673.865 238.373c-3.657 0-3.657 0 0 0h-446.171c-10.971 0-18.286 3.657-25.6 10.971s-7.314 14.629-7.314 25.6v413.257c0 10.971 3.657 18.286 10.971 25.6 3.657 3.657 10.971 7.314 21.943 7.314h446.171c10.971 0 18.286-3.657 25.6-10.971s7.314-14.629 7.314-25.6v-413.257c0 0 0-3.657 0-3.657 0-7.314-3.657-18.286-10.971-21.943s-14.629-7.314-21.943-7.314zM227.694 271.287v0 0zM227.694 684.544v-409.6h442.514v409.6h-442.514zM670.208 274.944v0 0c0 0 0 0 0 0zM224.037 684.544v0c0 0 0 0 0 0zM670.208 688.201c0 0 0 0 0 0v0zM512.951 589.458h-128c-10.971 0-18.286 7.314-18.286 18.286v95.086c0 10.971 7.314 18.286 18.286 18.286s18.286-7.314 18.286-18.286v-76.8h91.429v76.8c0 10.971 7.314 18.286 18.286 18.286s18.286-7.314 18.286-18.286v-95.086c0-10.971-7.314-18.286-18.286-18.286zM509.294 370.030h98.743v-36.571h-98.743v36.571z" />
<glyph unicode="&#xe927;" glyph-name="guarantee" d="M940.617 704c0 11.703-1.463 21.943-1.463 35.109 0 38.034-30.72 70.217-70.217 73.143-70.217 4.389-130.194 17.554-187.246 40.96-55.589 23.406-105.326 57.051-152.137 102.4-10.24 8.777-26.331 8.777-36.571 0l-1.463-1.463c-46.811-45.349-95.086-77.531-150.674-102.4-55.589-23.406-117.029-36.571-187.246-40.96-38.034-1.463-68.754-33.646-70.217-73.143 0-13.166 0-24.869-1.463-36.571-1.463-131.657-4.389-282.331 48.274-421.303 59.977-160.914 179.931-272.091 370.103-337.92 1.463 0 2.926-1.463 4.389-1.463 2.926 0 4.389 0 7.314 0s4.389 0 7.314 0c1.463 0 2.926 1.463 4.389 1.463 190.171 65.829 310.126 177.006 370.103 337.92 52.663 138.971 49.737 291.109 46.811 424.229zM852.846 294.4c-54.126-147.749-166.766-250.149-340.846-311.589-175.543 61.44-286.72 163.84-340.846 311.589-48.274 131.657-45.349 277.943-43.886 408.137 0 11.703 1.463 23.406 1.463 36.571 0 16.091 13.166 29.257 29.257 29.257 74.606 4.389 140.434 19.017 201.874 43.886 55.589 23.406 106.789 57.051 153.6 99.474 46.811-43.886 98.011-76.069 153.6-99.474 59.977-26.331 125.806-39.497 201.874-43.886 16.091-1.463 27.794-13.166 29.257-29.257 0-13.166 0-24.869 1.463-36.571 0-128.731 1.463-276.48-46.811-408.137zM512 683.52c-128.731 0-234.057-105.326-234.057-234.057s105.326-234.057 234.057-234.057c128.731 0 234.057 105.326 234.057 234.057 0 130.194-105.326 234.057-234.057 234.057zM512 260.754c-103.863 0-190.171 84.846-190.171 190.171 0 103.863 84.846 190.171 190.171 190.171 103.863 0 190.171-84.846 190.171-190.171s-86.309-190.171-190.171-190.171zM608.549 543.086l-136.046-160.914-57.051 67.291c-4.389 4.389-10.24 5.851-16.091 1.463-4.389-4.389-5.851-10.24-1.463-16.091l65.829-77.531c1.463-2.926 5.851-4.389 8.777-4.389v0c2.926 0 5.851 1.463 8.777 4.389l144.823 171.154c4.389 4.389 2.926 11.703-1.463 16.091s-11.703 4.389-16.091-1.463z" />
<glyph unicode="&#xe928;" glyph-name="payless" d="M928.914 749.349h-172.617l-55.589 117.029c-2.926 5.851-7.314 8.777-13.166 11.703-5.851 1.463-11.703 1.463-17.554-1.463l-80.457-39.497-76.069 83.383c-4.389 4.389-10.24 7.314-16.091 7.314s-11.703-2.926-16.091-7.314l-144.823-171.154h-155.063v-1.463c-61.44-4.389-106.789-24.869-136.046-59.977-40.96-52.663-30.72-118.491-27.794-133.12v-488.594c0-43.886 35.109-78.994 78.994-78.994h747.52c43.886 0 78.994 35.109 78.994 78.994v14.629h4.389c43.886 0 78.994 35.109 78.994 78.994v510.537c2.926 42.423-33.646 78.994-77.531 78.994zM753.371 654.263h-433.006l349.623 172.617 83.383-172.617zM498.834 872.229l49.737-55.589-166.766-81.92 117.029 137.509zM206.263 705.463h93.623l-16.091-20.48-62.903-30.72h-122.88c-7.314 0-16.091-1.463-23.406-2.926 1.463 2.926 4.389 5.851 7.314 10.24 23.406 29.257 65.829 43.886 124.343 43.886zM845.531 31.086h-747.52c-19.017 0-35.109 16.091-35.109 35.109v509.074c0 19.017 16.091 35.109 35.109 35.109h747.52c19.017 0 35.109-16.091 35.109-35.109v-162.377h-166.766c-27.794 0-51.2-23.406-51.2-51.2v-86.309c0-27.794 23.406-51.2 51.2-51.2h166.766v-156.526c0-20.48-16.091-36.571-35.109-36.571zM880.64 244.663h-166.766c-16.091 0-29.257 13.166-29.257 29.257v86.309c0 16.091 13.166 29.257 29.257 29.257h166.766v-144.823zM965.486 161.28c0-19.017-16.091-35.109-35.109-35.109h-4.389v449.097c0 43.886-35.109 78.994-78.994 78.994h-43.886l-24.869 51.2h152.137c19.017 0 35.109-16.091 35.109-35.109v-509.074zM738.743 309.029h39.497c5.851 0 11.703 4.389 11.703 11.703s-5.851 10.24-11.703 10.24h-39.497c-5.851 0-11.703-4.389-11.703-11.703s5.851-10.24 11.703-10.24zM130.194 540.16c-5.851 0-11.703-4.389-11.703-11.703v-77.531c0-5.851 4.389-11.703 11.703-11.703s11.703 4.389 11.703 11.703v77.531c-1.463 7.314-5.851 11.703-11.703 11.703zM130.194 411.429c-5.851 0-11.703-4.389-11.703-11.703v-77.531c0-5.851 4.389-11.703 11.703-11.703s11.703 4.389 11.703 11.703v77.531c-1.463 7.314-5.851 11.703-11.703 11.703z" />
<glyph unicode="&#xe929;" glyph-name="payment" d="M985.966 832.731h-117.029c-11.703 0-21.943-10.24-21.943-21.943v-42.423h-380.343c-1.463 0-2.926 0-5.851 0l-258.926-64.366c-4.389-1.463-8.777-2.926-11.703-7.314l-112.64-128.731c-2.926-4.389-5.851-8.777-5.851-14.629v-21.943c-32.183-4.389-58.514-30.72-58.514-64.366v-336.457c0-36.571 29.257-65.829 65.829-65.829h643.657c36.571 0 65.829 29.257 65.829 65.829v336.457c0 36.571-29.257 65.829-65.829 65.829h-5.851l21.943 23.406h108.251v-38.034c0-11.703 10.24-21.943 21.943-21.943h117.029c11.703 0 21.943 10.24 21.943 21.943v292.571c0 11.703-10.24 21.943-21.943 21.943zM722.651 487.497c11.703 0 21.943-10.24 21.943-21.943v-336.457c0-11.703-10.24-21.943-21.943-21.943h-643.657c-11.703 0-21.943 10.24-21.943 21.943v336.457c0 11.703 10.24 21.943 21.943 21.943h400.823l-16.091-17.554c0 0-1.463-1.463-1.463-1.463-14.629-19.017-33.646-64.366 1.463-100.937 13.166-13.166 27.794-19.017 42.423-19.017 21.943 0 43.886 11.703 57.051 24.869l109.714 112.64h49.737zM522.24 531.383h-215.040l13.166 64.366h141.897l68.754-52.663-8.777-11.703zM285.257 531.383h-67.291c24.869 30.72 58.514 64.366 78.994 64.366h1.463l-13.166-64.366zM729.966 597.211c-5.851 0-11.703-2.926-16.091-7.314l-181.394-184.32c-2.926-2.926-21.943-21.943-36.571-5.851-16.091 16.091-1.463 36.571 1.463 42.423l86.309 90.697c4.389 4.389 5.851 8.777 5.851 14.629v84.846c0 11.703-10.24 21.943-21.943 21.943s-21.943-10.24-21.943-21.943v-71.68l-71.68 54.126c-1.463 1.463-4.389 2.926-7.314 2.926h-168.229c-38.034 0-86.309-57.051-106.789-86.309h-74.606v13.166l102.4 117.029 250.149 62.903h377.417v-125.806h-117.029zM964.023 538.697h-73.143v250.149h73.143v-250.149zM520.777 330.971c-54.126 0-98.011-43.886-98.011-98.011s43.886-98.011 98.011-98.011c17.554 0 33.646 4.389 46.811 11.703 14.629-7.314 30.72-11.703 46.811-11.703 54.126 0 98.011 43.886 98.011 98.011s-43.886 98.011-98.011 98.011c-17.554 0-33.646-4.389-46.811-11.703-13.166 7.314-29.257 11.703-46.811 11.703zM520.777 156.891c-42.423 0-76.069 33.646-76.069 76.069s33.646 76.069 76.069 76.069c10.24 0 19.017-1.463 27.794-5.851-19.017-17.554-30.72-42.423-30.72-70.217s11.703-52.663 30.72-70.217c-8.777-2.926-17.554-5.851-27.794-5.851zM596.846 232.96c0-23.406-11.703-43.886-27.794-58.514-17.554 13.166-27.794 35.109-27.794 58.514s11.703 43.886 27.794 58.514c16.091-13.166 27.794-35.109 27.794-58.514zM615.863 309.029c42.423 0 76.069-33.646 76.069-76.069s-33.646-76.069-76.069-76.069c-10.24 0-19.017 1.463-27.794 5.851 19.017 17.554 30.72 42.423 30.72 70.217s-11.703 52.663-30.72 70.217c8.777 4.389 17.554 5.851 27.794 5.851zM119.954 276.846h21.943v-73.143h-21.943v73.143zM200.411 276.846h21.943v-73.143h-21.943v73.143zM282.331 276.846h21.943v-73.143h-21.943v73.143zM362.789 276.846h21.943v-73.143h-21.943v73.143z" />
<glyph unicode="&#xe92a;" glyph-name="quotation" d="M839.68 879.543h-77.531v17.554c0 26.331-20.48 46.811-46.811 46.811h-374.491c-26.331 0-46.811-20.48-46.811-46.811v-17.554h-87.771c-24.869 0-43.886-20.48-43.886-43.886v-823.589c0-24.869 20.48-43.886 43.886-43.886h633.417c24.869 0 43.886 20.48 43.886 43.886v823.589c0 24.869-20.48 43.886-43.886 43.886zM337.92 897.097c0 1.463 1.463 2.926 2.926 2.926h374.491c1.463 0 2.926-1.463 2.926-2.926v-77.531c0-1.463-1.463-2.926-2.926-2.926h-374.491c-1.463 0-2.926 1.463-2.926 2.926v77.531zM839.68 12.069h-633.417v823.589h87.771v-17.554c0-26.331 20.48-46.811 46.811-46.811h374.491c26.331 0 46.811 20.48 46.811 46.811v17.554h77.531v-823.589zM399.36 699.611h-117.029c-5.851 0-11.703-4.389-11.703-11.703v-117.029c0-5.851 4.389-11.703 11.703-11.703h117.029c5.851 0 11.703 4.389 11.703 11.703v117.029c0 5.851-5.851 11.703-11.703 11.703zM389.12 582.583h-95.086v95.086h95.086v-95.086zM450.56 641.097c-5.851 0-11.703-4.389-11.703-11.703s4.389-11.703 11.703-11.703h317.44c5.851 0 11.703 4.389 11.703 11.703s-4.389 11.703-11.703 11.703h-317.44zM399.36 524.069h-117.029c-5.851 0-11.703-4.389-11.703-11.703v-117.029c0-5.851 4.389-11.703 11.703-11.703h117.029c5.851 0 11.703 4.389 11.703 11.703v117.029c0 5.851-5.851 11.703-11.703 11.703zM389.12 407.040h-95.086v95.086h95.086v-95.086zM768 465.554h-317.44c-5.851 0-11.703-4.389-11.703-11.703s4.389-11.703 11.703-11.703h317.44c5.851 0 11.703 4.389 11.703 11.703s-5.851 11.703-11.703 11.703zM399.36 338.286h-117.029c-5.851 0-11.703-4.389-11.703-11.703v-117.029c0-5.851 4.389-11.703 11.703-11.703h117.029c5.851 0 11.703 4.389 11.703 11.703v117.029c0 7.314-5.851 11.703-11.703 11.703zM389.12 221.257h-95.086v95.086h95.086v-95.086zM768 279.771h-317.44c-5.851 0-11.703-4.389-11.703-11.703s4.389-11.703 11.703-11.703h317.44c5.851 0 11.703 4.389 11.703 11.703s-5.851 11.703-11.703 11.703z" />
<glyph unicode="&#xe92b;" glyph-name="time" d="M819.2 74.971h-13.166c2.926 71.68-7.314 282.331-206.263 365.714v13.166c80.457 33.646 198.949 125.806 204.8 367.177h13.166c21.943 0 39.497 17.554 39.497 39.497v40.96c0 21.943-17.554 39.497-39.497 39.497h-579.291c-21.943 0-39.497-17.554-39.497-39.497v-40.96c0-21.943 17.554-39.497 39.497-39.497h13.166c-2.926-71.68 8.777-283.794 209.189-365.714v-10.24c-81.92-33.646-203.337-124.343-209.189-370.103h-13.166c-21.943 0-39.497-17.554-39.497-39.497v-40.96c0-21.943 17.554-39.497 39.497-39.497h580.754c21.943 0 39.497 17.554 39.497 39.497v40.96c1.463 21.943-17.554 39.497-39.497 39.497zM526.629 211.017l203.337-134.583h-405.211l201.874 134.583zM242.834 898.56h571.977v-32.183h-571.977v32.183zM760.686 821.029c-1.463-42.423-5.851-78.994-13.166-112.64-207.726-144.823-387.657-39.497-441.783-1.463-10.24 46.811-11.703 89.234-10.24 112.64h465.189zM314.514 676.206c26.331-16.091 64.366-35.109 111.177-48.274 29.257-7.314 62.903-13.166 102.4-13.166 62.903 0 134.583 16.091 210.651 62.903-38.034-119.954-115.566-168.229-168.229-188.709l-14.629-5.851v-57.051c-19.017-10.24-38.034-4.389-51.2 1.463v57.051l-14.629 5.851c-87.771 32.183-147.749 95.086-175.543 185.783zM490.057 408.503l2.926 1.463c7.314-4.389 16.091-7.314 24.869-8.777v-78.994c0-5.851 4.389-11.703 11.703-11.703s11.703 4.389 11.703 11.703v77.531c8.777 1.463 17.554 2.926 24.869 7.314l4.389-1.463c93.623-35.109 153.6-103.863 179.931-203.337 13.166-49.737 14.629-95.086 13.166-121.417l-225.28 147.749v49.737c0 5.851-4.389 11.703-11.703 11.703s-11.703-4.389-11.703-11.703v-48.274l-219.429-147.749c8.777 226.743 124.343 302.811 194.56 326.217zM816.274-2.56h-573.44v32.183h573.44v-32.183z" />
<glyph unicode="&#xe92c;" glyph-name="survey" d="M434.469 468.48c138.971 0 242.834 42.423 242.834 99.474s-103.863 99.474-242.834 99.474-242.834-42.423-242.834-99.474 103.863-99.474 242.834-99.474zM434.469 646.949c130.194 0 220.891-40.96 220.891-77.531s-90.697-77.531-220.891-77.531-220.891 40.96-220.891 77.531 90.697 77.531 220.891 77.531zM997.669 386.56h-140.434v171.154c0 121.417-185.783 215.040-424.229 215.040s-424.229-95.086-424.229-215.040v-260.389c0-121.417 185.783-215.040 424.229-215.040v0h563.2c11.703 0 21.943 10.24 21.943 21.943v260.389c1.463 11.703-7.314 21.943-20.48 21.943zM814.811 386.56h-121.417c51.2 19.017 92.16 45.349 121.417 74.606v-74.606zM434.469 730.331c206.263 0 380.343-78.994 380.343-171.154 0-93.623-172.617-171.154-378.88-171.154h-1.463c-206.263 0-380.343 78.994-380.343 171.154s174.080 171.154 380.343 171.154zM975.726 126.171h-49.737v65.829c0 5.851-4.389 11.703-11.703 11.703s-11.703-4.389-11.703-11.703v-65.829h-45.349v118.491c0 5.851-4.389 11.703-11.703 11.703s-11.703-4.389-11.703-11.703v-118.491h-42.423l1.463 65.829c0 5.851-4.389 11.703-10.24 11.703s-11.703-4.389-11.703-10.24l2.926-67.291h-51.2v65.829c0 5.851-4.389 11.703-11.703 11.703s-11.703-4.389-11.703-11.703v-65.829h-45.349v118.491c0 5.851-4.389 11.703-11.703 11.703s-11.703-4.389-11.703-11.703v-118.491h-49.737l1.463 65.829c0 5.851-4.389 11.703-10.24 11.703s-11.703-4.389-11.703-10.24l1.463-67.291h-51.2v65.829c0 5.851-4.389 11.703-11.703 11.703s-11.703-4.389-11.703-11.703v-65.829h-54.126c-1.463 0-1.463 0-2.926 0v118.491c0 5.851-4.389 11.703-11.703 11.703s-11.703-4.389-11.703-11.703v-118.491c-191.634 5.851-351.086 81.92-351.086 171.154v163.84c68.754-70.217 210.651-118.491 380.343-118.491 0 0 1.463 0 1.463 0h539.794v-216.503z" />
<glyph unicode="&#xe92d;" glyph-name="installation-v3" d="M1004.983 199.314c-27.794 115.566-267.703 187.246-315.977 201.874-10.24 14.629-17.554 32.183-7.314 78.994 0 2.926 0 5.851 0 7.314 13.166 35.109 23.406 81.92 29.257 143.36 16.091 0 30.72 8.777 39.497 23.406 7.314 11.703 10.24 24.869 10.24 38.034 2.926 23.406-8.777 35.109-21.943 38.034-2.926 24.869-20.48 115.566-95.086 146.286-1.463 4.389-4.389 8.777-8.777 11.703-11.703 8.777-23.406 14.629-36.571 19.017-1.463 1.463-2.926 2.926-2.926 4.389-35.109 30.72-38.034 30.72-42.423 33.646-1.463 0-1.463 0-1.463 1.463-13.166 1.463-27.794 2.926-40.96 1.463-14.629 1.463-29.257 0-42.423-2.926-1.463 0-1.463 0-1.463-1.463-5.851-1.463-7.314-1.463-40.96-33.646-1.463-1.463-1.463-1.463-1.463-2.926-13.166-5.851-26.331-11.703-38.034-20.48-4.389-1.463-8.777-5.851-8.777-11.703-58.514-23.406-87.771-112.64-93.623-144.823-13.166-1.463-26.331-13.166-26.331-38.034 0-13.166 4.389-26.331 10.24-38.034 8.777-14.629 24.869-23.406 40.96-23.406v0c7.314-84.846 26.331-141.897 46.811-179.931 0 0 0 0 0 0 1.463-17.554-1.463-33.646-8.777-49.737-46.811-13.166-93.623-30.72-138.971-49.737-105.326-48.274-166.766-98.011-178.469-152.137-5.851-26.331-20.48-140.434-27.794-204.8-1.463-11.703 2.926-23.406 10.24-32.183 8.777-8.777 19.017-13.166 30.72-13.166h940.617c11.703 0 21.943 4.389 30.72 11.703 8.777 8.777 11.703 19.017 11.703 30.72-4.389 64.366-14.629 178.469-20.48 207.726zM842.606 295.863v0l36.571-305.737h-722.651l36.571 304.274v1.463c0 1.463 0 1.463 0 2.926 32.183 16.091 65.829 29.257 96.549 40.96l13.166-134.583c1.463-19.017 17.554-33.646 36.571-33.646h355.474c19.017 0 35.109 14.629 36.571 33.646l13.166 134.583c30.72-11.703 65.829-24.869 96.549-40.96 1.463-1.463 1.463-2.926 1.463-2.926zM349.623 358.766c1.463-14.629 7.314-29.257 17.554-42.423 26.331-33.646 77.531-49.737 149.211-49.737 73.143 0 122.88 16.091 152.137 51.2 10.24 11.703 16.091 26.331 19.017 40.96 11.703-2.926 23.406-7.314 38.034-11.703l-13.166-140.434c0-8.777-7.314-14.629-16.091-14.629h-355.474c-8.777 0-16.091 7.314-16.091 14.629 0 0 0 0 0 0l-14.629 138.971c14.629 5.851 27.794 10.24 39.497 13.166zM352.549 601.6c24.869-11.703 65.829-21.943 155.063-21.943 93.623 0 134.583 10.24 157.989 23.406-14.629-124.343-57.051-166.766-81.92-191.634-21.943-11.703-48.274-17.554-73.143-16.091v-1.463h-2.926c-26.331-2.926-52.663 2.926-74.606 16.091-23.406 24.869-65.829 67.291-80.457 191.634zM299.886 674.743c-2.926 4.389-4.389 8.777-5.851 14.629h1.463c10.24 0 19.017 8.777 20.48 19.017l1.463 13.166c1.463 26.331 33.646 109.714 77.531 119.954h1.463v-36.571c0-5.851 4.389-10.24 10.24-10.24s10.24 4.389 10.24 8.777c0 0 0 1.463 0 1.463v58.514c11.703 7.314 23.406 11.703 36.571 13.166v-106.789c0-5.851 4.389-10.24 10.24-10.24s10.24 4.389 10.24 10.24v133.12c1.463 0 1.463 1.463 1.463 1.463 7.314 0 17.554 1.463 33.646 1.463s26.331-1.463 30.72-1.463l1.463-1.463v-134.583c0-5.851 4.389-10.24 10.24-10.24s10.24 4.389 10.24 10.24v106.789c13.166-1.463 24.869-7.314 36.571-13.166v-49.737c0-5.851 4.389-10.24 10.24-10.24s10.24 4.389 10.24 10.24v29.257c1.463-1.463 1.463-1.463 2.926-1.463 62.903-20.48 73.143-109.714 73.143-119.954l1.463-13.166c1.463-10.24 10.24-19.017 20.48-19.017h1.463c0-5.851-1.463-10.24-4.389-14.629v0c-1.463-4.389-4.389-4.389-5.851-4.389h-2.926c-8.777 0-17.554-2.926-23.406-7.314l-1.463-1.463c-1.463-1.463-4.389-2.926-5.851-4.389l-2.926-1.463c-2.926-2.926-5.851-4.389-8.777-5.851-19.017-13.166-38.034-30.72-156.526-30.72-117.029 0-137.509 16.091-156.526 30.72-2.926 2.926-5.851 4.389-8.777 5.851l-8.777 5.851c-7.314 4.389-14.629 7.314-23.406 7.314h-4.389c1.463 2.926-1.463 2.926-4.389 7.314zM405.211 382.171c24.869-24.869 80.457-27.794 102.4-27.794h1.463c23.406 0 77.531 2.926 103.863 29.257 7.314 7.314 16.091 16.091 24.869 27.794 4.389-16.091 13.166-29.257 21.943-40.96 1.463-1.463 4.389-4.389 5.851-5.851-1.463-11.703-5.851-24.869-14.629-33.646-23.406-27.794-70.217-42.423-134.583-42.423-65.829 0-111.177 14.629-133.12 40.96-8.777 10.24-13.166 23.406-14.629 36.571 0 0 0 0 1.463 0 4.389 1.463 7.314 4.389 8.777 8.777 4.389 7.314 5.851 16.091 8.777 23.406 7.314-5.851 13.166-11.703 17.554-16.091zM70.217 190.537c8.777 35.109 49.737 67.291 100.937 95.086l-35.109-295.497h-93.623c13.166 106.789 23.406 181.394 27.794 200.411zM899.657-9.874l-35.109 296.96c49.737-27.794 90.697-61.44 99.474-96.549 4.389-17.554 11.703-95.086 19.017-200.411h-83.383z" />
<glyph unicode="&#xe92e;" glyph-name="couponcode_invalid" d="M512 960c-281.6 0-512-230.4-512-512s230.4-512 512-512 512 230.4 512 512-230.4 512-512 512zM593.067 780.8l-25.6-460.8h-106.667l-25.6 460.8h157.867zM516.267 106.667c-42.667 0-81.067 34.133-81.067 81.067 0 42.667 34.133 81.067 81.067 81.067 42.667 0 81.067-34.133 81.067-81.067s-34.133-81.067-81.067-81.067z" />
<glyph unicode="&#xe92f;" glyph-name="payment_counter" d="M931.968-64h-839.893c-11.782 0-21.333 9.551-21.333 21.333v0 408.747c0 11.782 9.551 21.333 21.333 21.333v0h839.893c11.782 0 21.333-9.551 21.333-21.333v0-408.747c0-11.782-9.551-21.333-21.333-21.333v0zM113.408-21.333h797.227v366.080h-797.227zM1002.667 344.747h-981.333c-11.782 0-21.333 9.551-21.333 21.333v0 13.952c0 58.91 47.756 106.667 106.667 106.667v0h810.667c58.91 0 106.667-47.756 106.667-106.667v0-13.952c0-11.782-9.551-21.333-21.333-21.333v0zM43.093 387.413h937.813c-3.886 31.967-30.858 56.491-63.558 56.491-0.005 0-0.011 0-0.016 0h-810.666c-0.005 0-0.010 0-0.015 0-32.7 0-59.672-24.524-63.527-56.183l-0.031-0.308zM702.763 446.379h-381.525c-11.782 0-21.333 9.551-21.333 21.333v0 156.075c0.049 46.826 37.995 84.773 84.817 84.821h254.597c46.808-0.073 84.73-38.010 84.779-84.817v-156.080c0-11.782-9.551-21.333-21.333-21.333v0zM342.571 489.045h338.859v134.741c-0.024 23.257-18.859 42.106-42.107 42.155h-254.597c-23.272-0.024-42.13-18.883-42.155-42.152v-0.002zM511.957 766.805c-53.349 0-96.597 43.248-96.597 96.597s43.248 96.597 96.597 96.597c53.349 0 96.597-43.248 96.597-96.597v0c-0.049-53.33-43.268-96.549-96.593-96.597h-0.005zM511.957 917.333c-29.785 0-53.931-24.146-53.931-53.931s24.146-53.931 53.931-53.931c29.785 0 53.931 24.146 53.931 53.931v0c-0.024 29.775-24.155 53.906-53.928 53.931h-0.002z" />
<glyph unicode="&#xe930;" glyph-name="couponcode_valid" d="M512 960c-281.6 0-512-230.4-512-512s230.4-512 512-512 512 230.4 512 512-230.4 512-512 512zM448 256c-8.533-8.533-21.333-12.8-29.867-12.8s-25.6 4.267-29.867 12.8l-157.867 179.2 64 55.467 128-140.8 285.867 320 64-55.467-324.267-358.4z" />
<glyph unicode="&#xe931;" glyph-name="delete" d="M997.053 825.263h-970.105c-16.168 0-26.947 10.779-26.947 26.947s10.779 26.947 26.947 26.947h970.105c16.168 0 26.947-10.779 26.947-26.947s-10.779-26.947-26.947-26.947zM679.074 825.263h-334.147c-37.726 0-64.674 32.337-64.674 64.674s32.337 64.674 64.674 64.674h334.147c37.726 0 64.674-32.337 64.674-64.674s-26.947-64.674-64.674-64.674zM344.926 906.105c-5.389 0-10.779-5.389-10.779-10.779s5.389-10.779 10.779-10.779h334.147c5.389 0 10.779 5.389 10.779 10.779s-5.389 10.779-10.779 10.779h-334.147zM819.2-64h-625.179c-43.116 0-80.842 37.726-80.842 80.842v862.316h786.863v-862.316c0-43.116-37.726-80.842-80.842-80.842zM167.074 825.263v-808.421c0-16.168 10.779-26.947 26.947-26.947h625.179c16.168 0 26.947 10.779 26.947 26.947v808.421h-679.074zM332.638-30.316c-16.168 0-26.947 10.779-26.947 26.947v425.768c0 16.168 10.779 26.947 26.947 26.947s26.947-10.779 26.947-26.947v-425.768c0-10.779-10.779-26.947-26.947-26.947zM499.712-62.653c-16.168 0-26.947 10.779-26.947 26.947v689.853c0 16.168 10.779 26.947 26.947 26.947s26.947-10.779 26.947-26.947v-689.853c0-16.168-10.779-26.947-26.947-26.947zM677.565-30.316c-16.168 0-26.947 10.779-26.947 26.947v425.768c0 16.168 10.779 26.947 26.947 26.947s26.947-10.779 26.947-26.947v-425.768c0-10.779-10.779-26.947-26.947-26.947z" />
<glyph unicode="&#xe932;" glyph-name="calendar" d="M268.203 960c-40.547-0.742-73.132-33.787-73.132-74.442 0-0.169 0.001-0.338 0.002-0.507v0.026-49.963h-121.941c-40.547-0.742-73.132-33.787-73.132-74.442 0-0.169 0.001-0.338 0.002-0.507v0.026-749.269c-0.001-0.143-0.002-0.312-0.002-0.481 0-40.655 32.585-73.699 73.063-74.441l0.069-0.001h877.739c40.547 0.742 73.132 33.787 73.132 74.442 0 0.169-0.001 0.338-0.002 0.507v-0.026 749.269c0.001 0.143 0.002 0.312 0.002 0.481 0 40.655-32.585 73.699-73.063 74.441l-0.069 0.001h-121.899v49.963c0.014 0.526 0.021 1.146 0.021 1.767 0 40.413-32.761 73.173-73.173 73.173s-73.173-32.761-73.173-73.173c0-0.621 0.008-1.241 0.023-1.858l-0.002 0.091v-49.963h-341.333v49.963c0.001 0.143 0.002 0.312 0.002 0.481 0 40.655-32.585 73.699-73.063 74.441l-0.069 0.001zM268.203 910.037c0.081 0.001 0.176 0.002 0.271 0.002 13.314 0 24.107-10.793 24.107-24.107 0-0.301-0.006-0.6-0.016-0.898l0.001 0.043v-149.845c0.014-0.304 0.021-0.661 0.021-1.020 0-13.479-10.927-24.405-24.405-24.405s-24.405 10.927-24.405 24.405c0 0.359 0.008 0.716 0.023 1.071l-0.002-0.051v149.845c-0.010 0.255-0.015 0.555-0.015 0.855 0 13.314 10.793 24.107 24.107 24.107 0.11 0 0.221-0.001 0.33-0.002h-0.017zM755.84 910.037c0.081 0.001 0.176 0.002 0.271 0.002 13.314 0 24.107-10.793 24.107-24.107 0-0.301-0.006-0.6-0.016-0.898l0.001 0.043v-149.845c0.014-0.304 0.021-0.661 0.021-1.020 0-13.479-10.927-24.405-24.405-24.405s-24.405 10.927-24.405 24.405c0 0.359 0.008 0.716 0.023 1.071l-0.002-0.051v149.845c-0.010 0.255-0.015 0.554-0.015 0.855 0 13.314 10.793 24.107 24.107 24.107 0.095 0 0.191-0.001 0.286-0.002h-0.014zM73.173 785.152h121.899v-49.963c-0.014-0.526-0.021-1.146-0.021-1.767 0-40.413 32.761-73.173 73.173-73.173s73.173 32.761 73.173 73.173c0 0.621-0.008 1.241-0.023 1.858l0.002-0.091v49.877h341.333v-49.963c-0.014-0.526-0.021-1.146-0.021-1.767 0-40.413 32.761-73.173 73.173-73.173s73.173 32.761 73.173 73.173c0 0.621-0.008 1.241-0.023 1.858l0.002-0.091v49.963h121.899c0.081 0.001 0.176 0.002 0.271 0.002 13.314 0 24.107-10.793 24.107-24.107 0-0.301-0.006-0.6-0.016-0.898l0.001 0.043v-149.973h-926.507v150.059c-0.008 0.229-0.012 0.499-0.012 0.769 0 13.314 10.793 24.107 24.107 24.107 0.094 0 0.189-0.001 0.283-0.002h-0.014zM48.811 560.384h926.421v-549.461c0.010-0.255 0.015-0.554 0.015-0.855 0-13.314-10.793-24.107-24.107-24.107-0.095 0-0.191 0.001-0.286 0.002h-877.725c-0.081-0.001-0.176-0.002-0.271-0.002-13.314 0-24.107 10.793-24.107 24.107 0 0.301 0.006 0.6 0.016 0.898l-0.001-0.043z" />
<glyph unicode="&#xe933;" glyph-name="edit" d="M26.908-64h859.022c0.017 0 0.037 0 0.057 0 14.83 0 26.852 12.022 26.852 26.852 0 0 0 0 0 0v0 403.911c-0.679 14.319-12.454 25.672-26.88 25.672s-26.201-11.352-26.878-25.611l-0.002-0.061v-376.946h-805.319v804.693h326.77c0.369-0.018 0.801-0.028 1.236-0.028 14.83 0 26.852 12.022 26.852 26.852s-12.022 26.852-26.852 26.852c-0.435 0-0.867-0.010-1.296-0.031l0.061 0.002h-353.621c-0.017 0-0.037 0-0.057 0-14.83 0-26.852-12.022-26.852-26.852 0 0 0 0 0 0v0-858.453c0 0 0 0 0 0 0-14.83 12.022-26.852 26.852-26.852 0.020 0 0.040 0 0.060 0h-0.003zM980.878 917.333c-26.64 26.373-63.3 42.666-103.765 42.666s-77.126-16.294-103.778-42.678l0.012 0.012-386.389-389.006c-3.079-3.185-5.358-7.162-6.503-11.595l-0.040-0.181-57.458-228.409c-0.637-2.092-1.005-4.497-1.005-6.987 0-6.988 2.89-13.302 7.54-17.81l0.006-0.006c4.746-4.855 11.361-7.866 18.679-7.866 0.313 0 0.625 0.006 0.936 0.016l-0.045-0.001h5.234l228.409 57.458c4.777 1.409 8.795 4.157 11.741 7.806l0.035 0.045 386.389 389.006c26.59 25.87 43.086 61.997 43.086 101.977 0 0.869-0.008 1.736-0.023 2.601l0.002-0.13c0 0.001 0 0.002 0 0.004 0 40.322-16.47 76.797-43.051 103.065l-0.014 0.014zM563.143 363.861l-178.859-45.511 44.373 178.859 323.755 325.006 134.428-133.12zM944.299 746.325l-20.594-20.878-133.12 133.12 20.878 20.878c17.165 17.886 41.269 28.999 67.968 28.999 51.998 0 94.151-42.153 94.151-94.151 0-26.699-11.113-50.803-28.967-67.937l-0.032-0.031z" />
<glyph unicode="&#xe934;" glyph-name="installationincluded" horiz-adv-x="1110" d="M971.139 177.232c-45.424 18.339-138.384 52.48-155.244 58.65l-113.116 41.452v138.384l6.169 5.028c39.869 32.015 65.174 80.755 65.174 135.404 0 0.855-0.006 1.708-0.019 2.56l0.001-0.129v23.705c10.918 14.554 17.484 32.919 17.484 52.818s-6.566 38.264-17.649 53.048l0.165-0.23v107.623c0 0.025 0 0.055 0 0.085 0 88.297-71.459 159.904-159.7 160.145h-118.801c-88.182-0.479-159.508-71.968-159.723-160.167v-107.77c-10.918-14.554-17.484-32.919-17.484-52.818s6.566-38.264 17.649-53.048l-0.165 0.23v-23.705c-0.012-0.765-0.019-1.668-0.019-2.573 0-54.499 25.164-103.12 64.508-134.878l0.33-0.258 6.169-5.071v-138.342l-135.469-49.438c-45.762-16.902-136.44-52.142-136.44-52.142-33.123-13.983-59.182-39.289-73.797-70.962l-0.36-0.871-55.354-140.412 21.972-8.704 55.354 140.412c16.395 41.579 59.157 60.213 109.609 78.636l48.804 17.916v-54.213h-23.663v-71.917h23.663v-35.621h-42.762l-38.579-77.791 21.127-10.606 32.24 64.65h51.846v59.368h70.988v-59.157h437.59v59.368h70.988v-59.157h51.846l32.24-64.65 21.127 10.606-38.748 77.791h-42.804v35.198h23.663v71.199h-23.663v54.509l48.846-17.916c50.241-18.423 92.96-37.057 109.566-78.636l55.396-140.412 21.972 8.747-55.396 140.412c-15.61 33.667-42.913 59.709-76.577 73.307l-0.96 0.343zM359.545 795.503c0.19 75.161 60.936 136.070 136.017 136.525h118.653c75.19-0.216 136.060-61.22 136.060-136.44 0-0.015 0-0.030 0-0.045v0.002-61.058c-58.712 18.797-126.249 29.632-196.316 29.632-69.461 0-136.435-10.648-199.379-30.4l4.713 1.275zM359.207 710.275c58.138 19.113 125.052 30.136 194.541 30.136 70.222 0 137.814-11.257 201.072-32.064l-4.545 1.294v-14.747c-10.859-8.958-21.127-17.24-31.353-25.353s-21.127-16.902-32.663-26.282c-38.824 16.571-83.993 26.205-131.412 26.205s-92.588-9.634-133.657-27.051l2.245 0.846c-11.662 9.761-22.649 18.803-33.804 27.846-9.972 8.24-20.113 16.606-30.635 25.353zM359.207 558.623v33.128l-3.423 3.465c-8.74 10.055-14.067 23.279-14.067 37.747 0 0.738 0.014 1.474 0.041 2.205l-0.003-0.106c-0.008 0.359-0.012 0.781-0.012 1.205 0 13.011 4.136 25.057 11.164 34.894l-0.124-0.182 21.972-18.212c12.676-10.395 25.353-20.832 38.917-32.283l5.493-4.606 6.888 2.789c37.942 17.075 82.248 27.022 128.877 27.022s90.935-9.947 130.911-27.835l-2.034 0.813 6.676-2.831 5.578 4.69c13.352 11.197 25.353 20.832 37.649 30.423q11.705 9.254 23.832 19.099c6.464-9.525 10.319-21.276 10.319-33.927 0-0.373-0.003-0.744-0.010-1.116l0.001 0.056c0.025-0.635 0.039-1.381 0.039-2.13 0-14.459-5.328-27.673-14.127-37.786l0.060 0.070-3.423-3.465v-33.128c0.009-0.613 0.014-1.337 0.014-2.062 0-47.386-21.978-89.638-56.296-117.12l-0.297-0.23-59.537-48.846c-11.718-10.015-27.049-16.109-43.803-16.109-0.407 0-0.812 0.004-1.217 0.011l0.061-0.001h-69.129c-0.344-0.006-0.75-0.010-1.156-0.010-16.754 0-32.084 6.094-43.896 16.187l0.093-0.078-59.579 48.846c-34.543 27.728-56.467 69.948-56.467 117.29 0 0.746 0.005 1.491 0.016 2.235l-0.001-0.113zM678.948 396.323v-132.088c-35.752-20.458-78.581-32.522-124.229-32.522s-88.477 12.064-125.475 33.177l1.246-0.655v132.088l29.578-24.381c15.747-13.353 36.299-21.473 58.748-21.473 0.411 0 0.821 0.003 1.231 0.008l-0.062-0.001h69.129c0.352-0.005 0.768-0.008 1.184-0.008 22.444 0 42.991 8.12 58.865 21.582l-0.132-0.109zM241.232 89.384v23.747h23.663v86.96l70.988 26.029v-112.989h23.663v-23.747zM749.936 30.228h-390.391v35.621h23.663v71.368h-23.663v97.566l46.227 16.902c42.152-27.36 93.703-43.628 149.053-43.628s106.901 16.268 150.132 44.283l-1.078-0.655 46.1-16.902v-97.904h-23.663v-71.199h23.663zM868.249 89.384h-118.313v23.747h23.663v112.989l70.988-25.987v-86.96h23.663z" />
<glyph unicode="&#xe935;" glyph-name="map" d="M999.325 762.602l-320.771 178.892c0 0 0 0 0 0s0 0 0 0 0 0 0 0h-6.169c0 0 0 0 0 0s0 0 0 0v0l-320.771-178.892-320.771 178.892c0 0-6.169 0-6.169 0s-6.169-6.169-6.169-6.169v-789.59c0-6.169 0-6.169 6.169-6.169l320.771-178.892c0 0 0 0 0 0s0 0 0 0v0 0 0l320.771 178.892 320.771-178.892c0 0 0 0 6.169 0 0 0 6.169 0 6.169 0s6.169 6.169 6.169 6.169v789.59c0 0 0 0-6.169 6.169zM37.012 916.819l308.434-172.723v-771.084l-308.434 172.723v771.084zM357.783 750.265l308.434 172.723v-771.084l-308.434-172.723c0 0 0 771.084 0 771.084zM986.988-20.819l-308.434 172.723v771.084l308.434-172.723v-771.084zM351.614-64v0c-6.169 0-6.169 0-6.169 0h-6.169l-326.94 178.892c-6.169 6.169-12.337 12.337-12.337 24.675v789.59c0 6.169 6.169 18.506 12.337 24.675 12.337 6.169 18.506 6.169 30.843 0l308.434-172.723 320.771 178.892 12.337-6.169 326.94-178.892c6.169-6.169 12.337-12.337 12.337-24.675v-789.59c0-6.169-6.169-18.506-12.337-24.675s-12.337-6.169-12.337-6.169h-12.337l-314.602 172.723-320.771-166.554zM376.289 737.928v-727.904l271.422 148.048v727.904l-271.422-148.048zM703.229 158.072l271.422-148.048v727.904l-271.422 148.048v-727.904zM55.518 158.072l271.422-148.048v727.904l-271.422 148.048v-727.904z" />
<glyph unicode="&#xe936;" glyph-name="view" horiz-adv-x="1785" d="M1771.71 432.514c3.425 3.757 5.522 8.776 5.522 14.285s-2.097 10.528-5.537 14.302l0.015-0.017c-271.044 326.037-564.275 492.595-867.239 492.595-515.477 0-876.974-471.166-891.638-492.595-3.425-3.757-5.522-8.776-5.522-14.285s2.097-10.528 5.537-14.302l-0.015 0.017c271.17-326.037 564.338-490.193 867.239-490.193 515.413-2.402 876.974 471.166 891.638 490.193zM880.071-9.956c-283.37 0-559.407 154.675-815.913 459.283 65.928 78.507 400.624 456.881 840.375 456.881 283.37 0 559.407-154.675 815.913-459.283-65.991-81.098-398.222-457.007-840.375-457.007zM892.271 715.82c-145.527-3.916-262.005-122.821-262.005-268.93 0-148.576 120.445-269.021 269.021-269.021s269.021 120.445 269.021 269.021c0 0.012 0 0.024 0 0.037v-0.002c-2.835 149.043-124.324 268.778-273.779 268.778-0.794 0-1.588-0.003-2.38-0.010l0.122 0.001zM892.271 225.628c-119.601 3.314-215.293 101.060-215.293 221.155 0 122.184 99.050 221.235 221.235 221.235 122.156 0 221.189-99.005 221.235-221.15v-0.004c-2.269-122.739-102.302-221.368-225.37-221.368-0.635 0-1.269 0.003-1.903 0.008l0.097-0.001z" />
<glyph unicode="&#xe937;" glyph-name="payment_card" horiz-adv-x="1530" d="M82.173 953.679h1365.333c44.247-6.321 75.852-44.247 75.852-88.494v-834.37c6.321-44.247-31.605-82.173-75.852-88.494h-1365.333c-44.247 6.321-75.852 44.247-75.852 88.494v834.37c-6.321 44.247 31.605 82.173 75.852 88.494zM44.247 789.333h1447.506v75.852c0 25.284-18.963 44.247-37.926 44.247h-1365.333c-25.284 0-37.926-25.284-37.926-44.247v-75.852zM1485.432 631.309h-1447.506v-600.494c0-25.284 18.963-44.247 37.926-44.247h1365.333c25.284 0 44.247 25.284 37.926 44.247v600.494zM1485.432 745.086h-1447.506v-69.531h1447.506v69.531zM82.173-64c-50.568 6.321-82.173 44.247-82.173 94.815v834.37c-6.321 50.568 31.605 88.494 82.173 94.815v0h1365.333c50.568-6.321 82.173-44.247 82.173-94.815v-834.37c6.321-50.568-31.605-88.494-82.173-94.815h-1365.333zM82.173 947.358c-37.926-6.321-69.531-37.926-69.531-82.173v-834.37c0-44.247 25.284-75.852 69.531-82.173h1365.333c37.926 6.321 69.531 37.926 69.531 82.173v834.37c0 44.247-25.284 75.852-69.531 82.173h-1365.333zM82.173-19.753c-25.284 0-50.568 25.284-44.247 50.568v606.815h1460.148v-606.815c0-25.284-18.963-50.568-44.247-50.568h-1371.654zM50.568 624.988v-594.173c0-18.963 12.642-37.926 31.605-37.926h1365.333c18.963 0 37.926 18.963 31.605 37.926v594.173h-1428.543zM1491.753 669.235h-1460.148v82.173h1460.148v-82.173zM50.568 681.877h1434.864v56.889h-1434.864v-56.889zM1491.753 783.012h-1460.148v82.173c0 25.284 18.963 50.568 44.247 50.568h1365.333c25.284 0 50.568-25.284 44.247-50.568v-82.173zM50.568 795.654h1434.864v69.531c0 18.963-12.642 37.926-31.605 37.926h-1365.333c-18.963 0-31.605-18.963-31.605-37.926l-6.321-69.531zM189.63 391.111h278.123v-107.457h-297.086v107.457h18.963zM429.827 353.185h-221.235v-31.605h221.235v31.605zM474.074 277.333h-309.728v120.099h309.728v-120.099zM176.988 289.975h284.444v94.815h-284.444v-94.815zM436.148 315.259h-233.877v44.247h233.877v-44.247zM214.914 327.901h208.593v18.963h-208.593v-18.963zM164.346 81.383h480.395v-37.926h-480.395v37.926zM651.062 43.457h-493.037v50.568h493.037v-50.568zM170.667 56.099h467.753v25.284h-467.753v-25.284z" />
<glyph unicode="&#xe938;" glyph-name="shipping_delivery_ecomomic" horiz-adv-x="1536" d="M201.728 960v-63.040h695.936v-384.96h492.352l81.472-100.8v-268.8h-125.44c-17.137 83.233-89.809 144.93-176.892 144.93-11.541 0-22.829-1.084-33.768-3.155l1.124 0.177c-74.004-12.213-131.997-68.653-146.372-140.818l-0.188-1.134h-322.112c-17.137 83.233-89.809 144.93-176.892 144.93-11.541 0-22.829-1.084-33.768-3.155l1.124 0.177c-74.004-12.213-131.997-68.653-146.372-140.818l-0.188-1.134h-110.016v-63.040h109.504c17.867-82.467 90.211-143.342 176.773-143.342 12.179 0 24.076 1.205 35.579 3.502l-1.152-0.192c72.654 12.766 129.508 68.093 144.372 138.871l0.204 1.161h322.56c17.867-82.467 90.211-143.342 176.773-143.342 12.179 0 24.076 1.205 35.579 3.502l-1.152-0.192c72.654 12.766 129.508 68.093 144.372 138.871l0.204 1.161h190.592v352.832l-101.184 125.888-157.376 321.152h-314.624v80.64zM488.832-1.024c-60.542 1.991-108.864 51.548-108.864 112.391 0 62.103 50.345 112.448 112.448 112.448s112.448-50.345 112.448-112.448c0-0.002 0-0.005 0-0.007v0c-1.072-62.303-51.83-112.397-114.288-112.397-0.613 0-1.225 0.005-1.836 0.014l0.092-0.001zM1167.232-1.024c-60.542 1.991-108.864 51.548-108.864 112.391 0 62.103 50.345 112.448 112.448 112.448s112.448-50.345 112.448-112.448c0-0.002 0-0.005 0-0.007v0c-1.144-62.246-51.874-112.267-114.286-112.267-0.569 0-1.137 0.004-1.704 0.012l0.086-0.001zM1236.096 816.384l118.784-241.536h-392.128v241.536zM79.424 385.216h254.144v-63.552h-254.144v63.552zM0 574.272h444.8v-63.552h-444.8v63.552zM79.424 763.328h444.8v-63.552h-444.8v63.552z" />
</font>
</defs>
</svg>
